<svg xmlns="http://www.w3.org/2000/svg" width="541" height="263" viewBox="0 0 541 263">
  <g fill="none" fill-rule="evenodd">
    <g transform="translate(0 18)">
      <polygon fill="#E50E32" points="0 41.898 41.898 41.898 41.898 0 0 0" opacity=".505"/>
      <polygon fill="#F4F4F4" fill-rule="nonzero" points="46.251 45.037 45.544 45.744 2.9 3.1 3.607 2.393"/>
      <polygon fill="#F4F4F4" fill-rule="nonzero" points="3.607 45.744 2.9 45.037 45.544 2.393 46.251 3.1"/>
    </g>
    <g transform="translate(494 79)">
      <polygon fill="#E50E32" points="0 41.898 41.898 41.898 41.898 0 0 0" opacity=".505"/>
      <polygon fill="#F4F4F4" fill-rule="nonzero" points="46.251 45.037 45.544 45.744 2.9 3.1 3.607 2.393"/>
      <polygon fill="#F4F4F4" fill-rule="nonzero" points="3.607 45.744 2.9 45.037 45.544 2.393 46.251 3.1"/>
    </g>
    <g opacity=".507" transform="translate(176 18)">
      <path fill="#E50E32" d="M114.808 130.434283C101.567306 132.197766 91.353 143.534978 91.353 157.258 91.353 172.204 103.469 184.32 118.415 184.32 133.361 184.32 145.477 172.204 145.477 157.258 145.477 143.625976 135.397709 132.348228 122.285 130.470625L122.285 164.6857 114.808 164.6857 114.808 130.434283zM118.415 103L163.831 129.22 163.831 181.661 118.415 207.882 73 181.661 73 129.22 118.415 103zM206.259 129.892L266.465 129.892 266.465 125.64 206.259 125.64 206.259 129.892zM206.259 137.073L266.465 137.073 266.465 132.82 206.259 132.82 206.259 137.073zM206.259 144.254L266.465 144.254 266.465 140.001 206.259 140.001 206.259 144.254zM228.629 184.092L244.095 184.092 244.095 156.281 228.629 156.281 228.629 184.092zM235.81 106C209.405 106 188 127.405 188 153.809 188 180.215 209.405 201.619 235.81 201.619 262.214 201.619 283.619 180.215 283.619 153.809 283.619 127.405 262.214 106 235.81 106z"/>
      <path fill="#F4F4F4" d="M152.751 57.7591L161.231 57.7591C157.652 53.1701 155.515 47.4041 155.515 41.1341 155.515 26.1881 167.63 47.6871 182.577 47.6871 197.522 47.6871 209.639 26.1881 209.639 41.1341 209.639 47.4041 207.501 53.1701 203.922 57.7591L210.882 57.7591 210.882 61.5361 200.345 61.5361C195.59 65.6801 189.379 68.1961 182.577 68.1961 175.774 68.1961 169.563 65.6801 164.808 61.5361L152.751 61.5361 152.751 57.7591zM182.577 95.3921L137.161 69.1711 137.161 16.7311 182.577 34.7571 227.992 16.7311 227.992 69.1711 182.577 95.3921zM222.061 9.0003L182.577 24.4613 142.149 9.0003 222.061 9.0003zM25.093 40.896L.504 40.896C3.855 17.769 23.754 0 47.81 0 71.865 0 91.764 17.769 95.115 40.896L58.926 40.896C57.547 32.791 50.508 26.614 42.01 26.614 33.511 26.614 26.472 32.791 25.093 40.896zM58.989 46.2778L95.58 46.2778C95.596 46.7878 95.619 47.2958 95.619 47.8088 95.619 74.2138 74.214 95.6188 47.81 95.6188 21.405 95.6188 2.27373675e-13 74.2138 2.27373675e-13 47.8088 2.27373675e-13 47.2958.023 46.7878.039 46.2778L25.03 46.2778C26.237 54.5858 33.367 60.9728 42.01 60.9728 50.652 60.9728 57.782 54.5858 58.989 46.2778z"/>
      <path fill="#FFF" d="M348,71.363961 L348,76 L264,76 L264,29 L305.636039,29 L348,71.363961 Z M348,58.636039 L318.363961,29 L348,29 L348,58.636039 Z M348,85 L348,93 L264,93 L264,85 L348,85 Z M348,20 L264,20 L264,9 L348,9 L348,20 Z"/>
    </g>
    <g transform="translate(114 193)">
      <polygon fill="#F4F4F4" points="19.339 26 1 7.661 1.659 7 20 25.339"/>
      <polygon fill="#F4F4F4" points="38.661 26 38 25.339 56.341 7 57 7.661"/>
      <polygon fill="#F4F4F4" points="56.339 63 38 44.661 38.659 44 57 62.339"/>
      <polygon fill="#F4F4F4" points="1.661 63 1 62.339 19.341 44 20 44.661"/>
      <polygon points="0 69 58 69 58 0 0 0"/>
      <path fill="#F4F4F4" d="M24.4296808,38.5685936 L33.566868,38.5685936 L33.566868,29.4314064 L24.4296808,29.4314064 L24.4296808,38.5685936 Z M24,39 L34,39 L34,29 L24,29 L24,39 Z"/>
      <polygon fill="#F4F4F4" points="13 35.5 15 35.5 15 35 13 35"/>
      <polygon fill="#F4F4F4" points="41 35.5 43 35.5 43 35 41 35"/>
      <polygon fill="#F4F4F4" points="48.327 10 48 9.671 57.675 0 58 .329"/>
      <polygon fill="#F4F4F4" points="8.685 9 1 1.316 1.315 1 9 8.684"/>
      <polygon fill="#F4F4F4" points=".327 69 0 68.671 9.675 59 10 59.329"/>
      <polygon fill="#F4F4F4" points="55.685 67 48 59.316 48.315 59 56 66.684"/>
    </g>
    <polygon fill="#E50E32" fill-rule="nonzero" points="142.5 261.5 153 261.5 153 262.5 141.5 262.5 141.5 .5 153 .5 153 1.5 142.5 1.5"/>
    <path fill="#F4F4F4" fill-rule="nonzero" d="M111.420311 93.9770727L111.420311 92.9770727 112.420311 92.9770727 112.420311 93.9770727 111.420311 93.9770727zM113.420311 93.9770727L113.420311 92.9770727 114.420311 92.9770727 114.420311 93.9770727 113.420311 93.9770727zM115.420311 93.9770727L115.420311 92.9770727 116.420311 92.9770727 116.420311 93.9770727 115.420311 93.9770727zM117.420311 93.9770727L117.420311 92.9770727 118.420311 92.9770727 118.420311 93.9770727 117.420311 93.9770727zM119.420311 93.9770727L119.420311 92.9770727 120.420311 92.9770727 120.420311 93.9770727 119.420311 93.9770727zM121.420311 93.9770727L121.420311 92.9770727 122.420311 92.9770727 122.420311 93.9770727 121.420311 93.9770727zM123.420311 93.9770727L123.420311 92.9770727 124.420311 92.9770727 124.420311 93.9770727 123.420311 93.9770727zM125.420311 93.9770727L125.420311 92.9770727 126.420311 92.9770727 126.420311 93.9770727 125.420311 93.9770727zM127.420311 93.9770727L127.420311 92.9770727 128.420311 92.9770727 128.420311 93.9770727 127.420311 93.9770727zM129.420311 93.9770727L129.420311 92.9770727 130.402425 92.9770727 130.402425 93.9770727 129.420311 93.9770727zM111.420311 102.248252L111.420311 101.248252 112.420311 101.248252 112.420311 102.248252 111.420311 102.248252zM113.420311 102.248252L113.420311 101.248252 114.420311 101.248252 114.420311 102.248252 113.420311 102.248252zM115.420311 102.248252L115.420311 101.248252 116.420311 101.248252 116.420311 102.248252 115.420311 102.248252zM117.420311 102.248252L117.420311 101.248252 118.420311 101.248252 118.420311 102.248252 117.420311 102.248252zM119.420311 102.248252L119.420311 101.248252 120.420311 101.248252 120.420311 102.248252 119.420311 102.248252zM121.420311 102.248252L121.420311 101.248252 122.420311 101.248252 122.420311 102.248252 121.420311 102.248252zM123.420311 102.248252L123.420311 101.248252 124.420311 101.248252 124.420311 102.248252 123.420311 102.248252zM125.420311 102.248252L125.420311 101.248252 126.420311 101.248252 126.420311 102.248252 125.420311 102.248252zM127.420311 102.248252L127.420311 101.248252 128.420311 101.248252 128.420311 102.248252 127.420311 102.248252zM129.420311 102.248252L129.420311 101.248252 130.402425 101.248252 130.402425 102.248252 129.420311 102.248252zM111.420311 110.519514L111.420311 109.519514 112.420311 109.519514 112.420311 110.519514 111.420311 110.519514zM113.420311 110.519514L113.420311 109.519514 114.420311 109.519514 114.420311 110.519514 113.420311 110.519514zM115.420311 110.519514L115.420311 109.519514 116.420311 109.519514 116.420311 110.519514 115.420311 110.519514zM117.420311 110.519514L117.420311 109.519514 118.420311 109.519514 118.420311 110.519514 117.420311 110.519514zM119.420311 110.519514L119.420311 109.519514 120.420311 109.519514 120.420311 110.519514 119.420311 110.519514zM121.420311 110.519514L121.420311 109.519514 122.420311 109.519514 122.420311 110.519514 121.420311 110.519514zM123.420311 110.519514L123.420311 109.519514 124.420311 109.519514 124.420311 110.519514 123.420311 110.519514zM125.420311 110.519514L125.420311 109.519514 126.420311 109.519514 126.420311 110.519514 125.420311 110.519514zM127.420311 110.519514L127.420311 109.519514 128.420311 109.519514 128.420311 110.519514 127.420311 110.519514zM129.420311 110.519514L129.420311 109.519514 130.402425 109.519514 130.402425 110.519514 129.420311 110.519514zM111.420311 118.790694L111.420311 117.790694 112.420311 117.790694 112.420311 118.790694 111.420311 118.790694zM113.420311 118.790694L113.420311 117.790694 114.420311 117.790694 114.420311 118.790694 113.420311 118.790694zM115.420311 118.790694L115.420311 117.790694 116.420311 117.790694 116.420311 118.790694 115.420311 118.790694zM117.420311 118.790694L117.420311 117.790694 118.420311 117.790694 118.420311 118.790694 117.420311 118.790694zM119.420311 118.790694L119.420311 117.790694 120.420311 117.790694 120.420311 118.790694 119.420311 118.790694zM121.420311 118.790694L121.420311 117.790694 122.420311 117.790694 122.420311 118.790694 121.420311 118.790694zM123.420311 118.790694L123.420311 117.790694 124.420311 117.790694 124.420311 118.790694 123.420311 118.790694zM125.420311 118.790694L125.420311 117.790694 126.420311 117.790694 126.420311 118.790694 125.420311 118.790694zM127.420311 118.790694L127.420311 117.790694 128.420311 117.790694 128.420311 118.790694 127.420311 118.790694zM129.420311 118.790694L129.420311 117.790694 130.402425 117.790694 130.402425 118.790694 129.420311 118.790694zM111.420311 127.061956L111.420311 126.061956 112.420311 126.061956 112.420311 127.061956 111.420311 127.061956zM113.420311 127.061956L113.420311 126.061956 114.420311 126.061956 114.420311 127.061956 113.420311 127.061956zM115.420311 127.061956L115.420311 126.061956 116.420311 126.061956 116.420311 127.061956 115.420311 127.061956zM117.420311 127.061956L117.420311 126.061956 118.420311 126.061956 118.420311 127.061956 117.420311 127.061956zM119.420311 127.061956L119.420311 126.061956 120.420311 126.061956 120.420311 127.061956 119.420311 127.061956zM121.420311 127.061956L121.420311 126.061956 122.420311 126.061956 122.420311 127.061956 121.420311 127.061956zM123.420311 127.061956L123.420311 126.061956 124.420311 126.061956 124.420311 127.061956 123.420311 127.061956zM125.420311 127.061956L125.420311 126.061956 126.420311 126.061956 126.420311 127.061956 125.420311 127.061956zM127.420311 127.061956L127.420311 126.061956 128.420311 126.061956 128.420311 127.061956 127.420311 127.061956zM129.420311 127.061956L129.420311 126.061956 130.402425 126.061956 130.402425 127.061956 129.420311 127.061956zM245.420311 190.977073L245.420311 189.977073 246.420311 189.977073 246.420311 190.977073 245.420311 190.977073zM247.420311 190.977073L247.420311 189.977073 248.420311 189.977073 248.420311 190.977073 247.420311 190.977073zM249.420311 190.977073L249.420311 189.977073 250.420311 189.977073 250.420311 190.977073 249.420311 190.977073zM251.420311 190.977073L251.420311 189.977073 252.420311 189.977073 252.420311 190.977073 251.420311 190.977073zM253.420311 190.977073L253.420311 189.977073 254.420311 189.977073 254.420311 190.977073 253.420311 190.977073zM255.420311 190.977073L255.420311 189.977073 256.420311 189.977073 256.420311 190.977073 255.420311 190.977073zM257.420311 190.977073L257.420311 189.977073 258.420311 189.977073 258.420311 190.977073 257.420311 190.977073zM259.420311 190.977073L259.420311 189.977073 260.420311 189.977073 260.420311 190.977073 259.420311 190.977073zM261.420311 190.977073L261.420311 189.977073 262.420311 189.977073 262.420311 190.977073 261.420311 190.977073zM263.420311 190.977073L263.420311 189.977073 264.402425 189.977073 264.402425 190.977073 263.420311 190.977073zM245.420311 199.248252L245.420311 198.248252 246.420311 198.248252 246.420311 199.248252 245.420311 199.248252zM247.420311 199.248252L247.420311 198.248252 248.420311 198.248252 248.420311 199.248252 247.420311 199.248252zM249.420311 199.248252L249.420311 198.248252 250.420311 198.248252 250.420311 199.248252 249.420311 199.248252zM251.420311 199.248252L251.420311 198.248252 252.420311 198.248252 252.420311 199.248252 251.420311 199.248252zM253.420311 199.248252L253.420311 198.248252 254.420311 198.248252 254.420311 199.248252 253.420311 199.248252zM255.420311 199.248252L255.420311 198.248252 256.420311 198.248252 256.420311 199.248252 255.420311 199.248252zM257.420311 199.248252L257.420311 198.248252 258.420311 198.248252 258.420311 199.248252 257.420311 199.248252zM259.420311 199.248252L259.420311 198.248252 260.420311 198.248252 260.420311 199.248252 259.420311 199.248252zM261.420311 199.248252L261.420311 198.248252 262.420311 198.248252 262.420311 199.248252 261.420311 199.248252zM263.420311 199.248252L263.420311 198.248252 264.402425 198.248252 264.402425 199.248252 263.420311 199.248252zM245.420311 207.519514L245.420311 206.519514 246.420311 206.519514 246.420311 207.519514 245.420311 207.519514zM247.420311 207.519514L247.420311 206.519514 248.420311 206.519514 248.420311 207.519514 247.420311 207.519514zM249.420311 207.519514L249.420311 206.519514 250.420311 206.519514 250.420311 207.519514 249.420311 207.519514zM251.420311 207.519514L251.420311 206.519514 252.420311 206.519514 252.420311 207.519514 251.420311 207.519514zM253.420311 207.519514L253.420311 206.519514 254.420311 206.519514 254.420311 207.519514 253.420311 207.519514zM255.420311 207.519514L255.420311 206.519514 256.420311 206.519514 256.420311 207.519514 255.420311 207.519514zM257.420311 207.519514L257.420311 206.519514 258.420311 206.519514 258.420311 207.519514 257.420311 207.519514zM259.420311 207.519514L259.420311 206.519514 260.420311 206.519514 260.420311 207.519514 259.420311 207.519514zM261.420311 207.519514L261.420311 206.519514 262.420311 206.519514 262.420311 207.519514 261.420311 207.519514zM263.420311 207.519514L263.420311 206.519514 264.402425 206.519514 264.402425 207.519514 263.420311 207.519514zM245.420311 215.790694L245.420311 214.790694 246.420311 214.790694 246.420311 215.790694 245.420311 215.790694zM247.420311 215.790694L247.420311 214.790694 248.420311 214.790694 248.420311 215.790694 247.420311 215.790694zM249.420311 215.790694L249.420311 214.790694 250.420311 214.790694 250.420311 215.790694 249.420311 215.790694zM251.420311 215.790694L251.420311 214.790694 252.420311 214.790694 252.420311 215.790694 251.420311 215.790694zM253.420311 215.790694L253.420311 214.790694 254.420311 214.790694 254.420311 215.790694 253.420311 215.790694zM255.420311 215.790694L255.420311 214.790694 256.420311 214.790694 256.420311 215.790694 255.420311 215.790694zM257.420311 215.790694L257.420311 214.790694 258.420311 214.790694 258.420311 215.790694 257.420311 215.790694zM259.420311 215.790694L259.420311 214.790694 260.420311 214.790694 260.420311 215.790694 259.420311 215.790694zM261.420311 215.790694L261.420311 214.790694 262.420311 214.790694 262.420311 215.790694 261.420311 215.790694zM263.420311 215.790694L263.420311 214.790694 264.402425 214.790694 264.402425 215.790694 263.420311 215.790694zM245.420311 224.061956L245.420311 223.061956 246.420311 223.061956 246.420311 224.061956 245.420311 224.061956zM247.420311 224.061956L247.420311 223.061956 248.420311 223.061956 248.420311 224.061956 247.420311 224.061956zM249.420311 224.061956L249.420311 223.061956 250.420311 223.061956 250.420311 224.061956 249.420311 224.061956zM251.420311 224.061956L251.420311 223.061956 252.420311 223.061956 252.420311 224.061956 251.420311 224.061956zM253.420311 224.061956L253.420311 223.061956 254.420311 223.061956 254.420311 224.061956 253.420311 224.061956zM255.420311 224.061956L255.420311 223.061956 256.420311 223.061956 256.420311 224.061956 255.420311 224.061956zM257.420311 224.061956L257.420311 223.061956 258.420311 223.061956 258.420311 224.061956 257.420311 224.061956zM259.420311 224.061956L259.420311 223.061956 260.420311 223.061956 260.420311 224.061956 259.420311 224.061956zM261.420311 224.061956L261.420311 223.061956 262.420311 223.061956 262.420311 224.061956 261.420311 224.061956zM263.420311 224.061956L263.420311 223.061956 264.402425 223.061956 264.402425 224.061956 263.420311 224.061956z"/>
    <path stroke="#979797" d="M233,143 L276,143"/>
    <polygon fill="#979797" fill-rule="nonzero" points="431.5 229.5 504 229.5 504 230.5 430.5 230.5 430.5 200 431.5 200"/>
  </g>
</svg>
