<svg xmlns="http://www.w3.org/2000/svg" width="64" height="64" viewBox="0 0 64 64">
  <g fill="none" fill-rule="evenodd">
    <rect width="64" height="64" fill="#E50E32" opacity=".686"/>
    <rect width="63" height="63" x=".5" y=".5" stroke="#E50E32"/>
    <path fill="#F4F4F4" fill-rule="nonzero" d="M2,16.5 L2,15.5 L3,15.5 L3,16.5 L2,16.5 Z M4,16.5 L4,15.5 L5,15.5 L5,16.5 L4,16.5 Z M6,16.5 L6,15.5 L7,15.5 L7,16.5 L6,16.5 Z M8,16.5 L8,15.5 L9,15.5 L9,16.5 L8,16.5 Z M10,16.5 L10,15.5 L11,15.5 L11,16.5 L10,16.5 Z M12,16.5 L12,15.5 L13,15.5 L13,16.5 L12,16.5 Z M14,16.5 L14,15.5 L15,15.5 L15,16.5 L14,16.5 Z M16,16.5 L16,15.5 L17,15.5 L17,16.5 L16,16.5 Z M2,25.5 L2,24.5 L3,24.5 L3,25.5 L2,25.5 Z M4,25.5 L4,24.5 L5,24.5 L5,25.5 L4,25.5 Z M6,25.5 L6,24.5 L7,24.5 L7,25.5 L6,25.5 Z M8,25.5 L8,24.5 L9,24.5 L9,25.5 L8,25.5 Z M10,25.5 L10,24.5 L11,24.5 L11,25.5 L10,25.5 Z M12,25.5 L12,24.5 L13,24.5 L13,25.5 L12,25.5 Z M14,25.5 L14,24.5 L15,24.5 L15,25.5 L14,25.5 Z M16,25.5 L16,24.5 L17,24.5 L17,25.5 L16,25.5 Z M2,33.5 L2,32.5 L3,32.5 L3,33.5 L2,33.5 Z M4,33.5 L4,32.5 L5,32.5 L5,33.5 L4,33.5 Z M6,33.5 L6,32.5 L7,32.5 L7,33.5 L6,33.5 Z M8,33.5 L8,32.5 L9,32.5 L9,33.5 L8,33.5 Z M10,33.5 L10,32.5 L11,32.5 L11,33.5 L10,33.5 Z M12,33.5 L12,32.5 L13,32.5 L13,33.5 L12,33.5 Z M14,33.5 L14,32.5 L15,32.5 L15,33.5 L14,33.5 Z M16,33.5 L16,32.5 L17,32.5 L17,33.5 L16,33.5 Z M2,41.5 L2,40.5 L3,40.5 L3,41.5 L2,41.5 Z M4,41.5 L4,40.5 L5,40.5 L5,41.5 L4,41.5 Z M6,41.5 L6,40.5 L7,40.5 L7,41.5 L6,41.5 Z M8,41.5 L8,40.5 L9,40.5 L9,41.5 L8,41.5 Z M10,41.5 L10,40.5 L11,40.5 L11,41.5 L10,41.5 Z M12,41.5 L12,40.5 L13,40.5 L13,41.5 L12,41.5 Z M14,41.5 L14,40.5 L15,40.5 L15,41.5 L14,41.5 Z M16,41.5 L16,40.5 L17,40.5 L17,41.5 L16,41.5 Z M2,50.5 L2,49.5 L3,49.5 L3,50.5 L2,50.5 Z M4,50.5 L4,49.5 L5,49.5 L5,50.5 L4,50.5 Z M6,50.5 L6,49.5 L7,49.5 L7,50.5 L6,50.5 Z M8,50.5 L8,49.5 L9,49.5 L9,50.5 L8,50.5 Z M10,50.5 L10,49.5 L11,49.5 L11,50.5 L10,50.5 Z M12,50.5 L12,49.5 L13,49.5 L13,50.5 L12,50.5 Z M14,50.5 L14,49.5 L15,49.5 L15,50.5 L14,50.5 Z M16,50.5 L16,49.5 L17,49.5 L17,50.5 L16,50.5 Z"/>
    <path fill="#FFF" fill-rule="nonzero" stroke="#E50E32" d="M37.5518619,32.6548278 L50.3077989,45.249847 L48.3758762,47.2071571 L48.0200217,46.8557891 L35.0832116,34.0820254 C34.3057169,33.2947612 34.3055866,32.0286126 35.0829192,31.2411884 L48.3589103,17.7928439 L50.3157171,19.7252679 L37.5518619,32.6548278 Z"/>
  </g>
</svg>
