<svg xmlns="http://www.w3.org/2000/svg" width="64" height="64" viewBox="0 0 64 64">
  <g fill="none" fill-rule="evenodd">
    <rect width="64" height="64" fill="#E50E32" opacity=".686" transform="matrix(-1 0 0 1 64 0)"/>
    <rect width="63" height="63" x=".5" y=".5" stroke="#E50E32" transform="matrix(-1 0 0 1 64 0)"/>
    <path fill="#F4F4F4" fill-rule="nonzero" d="M47,16.5 L47,15.5 L48,15.5 L48,16.5 L47,16.5 Z M49,16.5 L49,15.5 L50,15.5 L50,16.5 L49,16.5 Z M51,16.5 L51,15.5 L52,15.5 L52,16.5 L51,16.5 Z M53,16.5 L53,15.5 L54,15.5 L54,16.5 L53,16.5 Z M55,16.5 L55,15.5 L56,15.5 L56,16.5 L55,16.5 Z M57,16.5 L57,15.5 L58,15.5 L58,16.5 L57,16.5 Z M59,16.5 L59,15.5 L60,15.5 L60,16.5 L59,16.5 Z M61,16.5 L61,15.5 L62,15.5 L62,16.5 L61,16.5 Z M47,25.5 L47,24.5 L48,24.5 L48,25.5 L47,25.5 Z M49,25.5 L49,24.5 L50,24.5 L50,25.5 L49,25.5 Z M51,25.5 L51,24.5 L52,24.5 L52,25.5 L51,25.5 Z M53,25.5 L53,24.5 L54,24.5 L54,25.5 L53,25.5 Z M55,25.5 L55,24.5 L56,24.5 L56,25.5 L55,25.5 Z M57,25.5 L57,24.5 L58,24.5 L58,25.5 L57,25.5 Z M59,25.5 L59,24.5 L60,24.5 L60,25.5 L59,25.5 Z M61,25.5 L61,24.5 L62,24.5 L62,25.5 L61,25.5 Z M47,33.5 L47,32.5 L48,32.5 L48,33.5 L47,33.5 Z M49,33.5 L49,32.5 L50,32.5 L50,33.5 L49,33.5 Z M51,33.5 L51,32.5 L52,32.5 L52,33.5 L51,33.5 Z M53,33.5 L53,32.5 L54,32.5 L54,33.5 L53,33.5 Z M55,33.5 L55,32.5 L56,32.5 L56,33.5 L55,33.5 Z M57,33.5 L57,32.5 L58,32.5 L58,33.5 L57,33.5 Z M59,33.5 L59,32.5 L60,32.5 L60,33.5 L59,33.5 Z M61,33.5 L61,32.5 L62,32.5 L62,33.5 L61,33.5 Z M47,41.5 L47,40.5 L48,40.5 L48,41.5 L47,41.5 Z M49,41.5 L49,40.5 L50,40.5 L50,41.5 L49,41.5 Z M51,41.5 L51,40.5 L52,40.5 L52,41.5 L51,41.5 Z M53,41.5 L53,40.5 L54,40.5 L54,41.5 L53,41.5 Z M55,41.5 L55,40.5 L56,40.5 L56,41.5 L55,41.5 Z M57,41.5 L57,40.5 L58,40.5 L58,41.5 L57,41.5 Z M59,41.5 L59,40.5 L60,40.5 L60,41.5 L59,41.5 Z M61,41.5 L61,40.5 L62,40.5 L62,41.5 L61,41.5 Z M47,50.5 L47,49.5 L48,49.5 L48,50.5 L47,50.5 Z M49,50.5 L49,49.5 L50,49.5 L50,50.5 L49,50.5 Z M51,50.5 L51,49.5 L52,49.5 L52,50.5 L51,50.5 Z M53,50.5 L53,49.5 L54,49.5 L54,50.5 L53,50.5 Z M55,50.5 L55,49.5 L56,49.5 L56,50.5 L55,50.5 Z M57,50.5 L57,49.5 L58,49.5 L58,50.5 L57,50.5 Z M59,50.5 L59,49.5 L60,49.5 L60,50.5 L59,50.5 Z M61,50.5 L61,49.5 L62,49.5 L62,50.5 L61,50.5 Z" transform="matrix(-1 0 0 1 109 0)"/>
    <path fill="#FFF" fill-rule="nonzero" stroke="#E50E32" d="M16.9431685,32.6548278 L29.6991055,45.249847 L27.7671828,47.2071571 L27.4113283,46.8557891 L14.4745182,34.0820254 C13.6970235,33.2947612 13.6968932,32.0286126 14.4742258,31.2411884 L27.7502169,17.7928439 L29.7070237,19.7252679 L16.9431685,32.6548278 Z" transform="matrix(-1 0 0 1 43.391 0)"/>
    <path fill="#FFF" fill-rule="nonzero" d="M28.992077,45.2543986 L27.7626317,46.5 L14.8302721,33.7306862 C14.2450774,33.1381384 14.2449793,32.1851226 14.830052,31.5924543 L27.7547139,18.5 L28.9999948,19.7297641 L16.2361122,32.6593519 L28.992077,45.2543986 Z" transform="matrix(-1 0 0 1 43.391 0)"/>
  </g>
</svg>
