<svg xmlns="http://www.w3.org/2000/svg" width="389" height="451" viewBox="0 0 389 451">
  <g fill="none" fill-rule="evenodd" transform="translate(1 2)">
    <polygon stroke="#E50E32" stroke-width="2" points="0 335.25 0 111.751 193.501 0 387 111.751 387 335.25 193.501 447"/>
    <polygon stroke="#F4F4F4" stroke-width=".5" points="372 327.001 372 120.999 193.499 18 15 120.999 15 327.001 193.499 430"/>
    <polygon fill="#D8D8D8" stroke="#FFF" stroke-width=".5" points="337 307 337 141.002 193.5 58 50 141.002 50 307 193.5 390" opacity=".139"/>
    <path fill="#152896" fill-rule="nonzero" d="M363.833833,292.865307 L366.833833,292.865307 L366.833833,323.883181 L339.951282,339.391868 L338.452149,336.793291 L363.833833,322.150463 L363.833833,292.865307 Z M366.834286,246.788515 L363.834286,246.788515 L363.834286,216.224516 L366.834286,216.224516 L366.834286,246.788515 Z M366.834286,185.660517 L363.834286,185.660517 L363.834286,177.670689 L366.834286,177.670689 L366.834286,185.660517 Z M338.452602,110.703329 L339.951735,108.104753 L366.834286,123.613439 L366.834286,154.631314 L363.834286,154.631314 L363.834286,125.346158 L338.452602,110.703329 Z M300.018068,85.0656777 L298.518938,87.6642556 L272.044627,72.3911123 L273.543757,69.7925344 L300.018068,85.0656777 Z M247.069447,54.5193912 L245.570316,57.1179691 L238.616177,53.1060965 L240.115308,50.5075186 L247.069447,54.5193912 Z M167.885782,41.5859371 L166.386585,38.9873978 L193.266771,23.4791802 L220.148476,38.9873791 L218.649343,41.5859558 L193.266814,26.9426395 L167.885782,41.5859371 Z M126.451732,62.0266116 L127.950891,64.6251732 L101.476746,79.8986051 L99.9775873,77.3000435 L126.451732,62.0266116 Z M73.5034429,92.5734754 L75.0026019,95.172037 L68.0496387,99.1833323 L66.5504796,96.5847707 L73.5034429,92.5734754 Z M22.7003548,125.346158 L22.7003548,154.631314 L19.7003548,154.631314 L19.7003548,123.613439 L46.5829058,108.104753 L48.0820385,110.703329 L22.7003548,125.346158 Z M19.7006565,200.710367 L22.7006565,200.710367 L22.7006565,231.274366 L19.7006565,231.274366 L19.7006565,200.710367 Z M19.7006565,261.838365 L22.7006565,261.838365 L22.7006565,269.828192 L19.7006565,269.828192 L19.7006565,261.838365 Z M48.0823403,336.793291 L46.5832075,339.391868 L19.7006565,323.883181 L19.7006565,292.865307 L22.7006565,292.865307 L22.7006565,322.150463 L48.0823403,336.793291 Z M86.5175894,362.43092 L88.0167975,359.832387 L114.490654,375.106319 L112.991445,377.704852 L86.5175894,362.43092 Z M139.465301,392.978784 L140.96451,390.380251 L147.91805,394.392054 L146.418842,396.990587 L139.465301,392.978784 Z M218.649192,405.910665 L220.148325,408.509241 L193.26662,424.01744 L166.386434,408.509223 L167.885631,405.910683 L193.266663,420.553981 L218.649192,405.910665 Z M260.08321,385.470009 L258.584051,382.871447 L285.058196,367.598015 L286.557355,370.196577 L260.08321,385.470009 Z M313.031499,354.923145 L311.53234,352.324583 L318.485304,348.313288 L319.984463,350.91185 L313.031499,354.923145 Z"/>
  </g>
</svg>
