<svg xmlns="http://www.w3.org/2000/svg" xmlns:xlink="http://www.w3.org/1999/xlink" width="980" height="400" viewBox="0 0 980 400">
  <defs>
    <path id="bg-forms-a" d="M1.168114,241.696752 L241.596697,241.696752 L241.596697,1.37941176 L1.168114,1.37941176 L1.168114,241.696752 Z M0.501911148,242.363468 L0.501911148,0.714338235 L242.2629,0.714338235 L242.2629,242.363468 L0.501911148,242.363468 Z"/>
    <linearGradient id="bg-forms-b" x1="19.609%" x2="87.59%" y1="83.27%" y2="8.849%">
      <stop offset="0%" stop-color="#FFF"/>
      <stop offset="100%" stop-color="#142895"/>
    </linearGradient>
    <polygon id="bg-forms-d" points=".013 .369 241.108 .369 241.108 1.035 .013 1.035"/>
    <linearGradient id="bg-forms-e" x1="36.123%" x2="104.292%" y1="4499.209%" y2="-17403.469%">
      <stop offset="0%" stop-color="#FFF"/>
      <stop offset="100%" stop-color="#142895"/>
    </linearGradient>
    <polygon id="bg-forms-g" points=".013 .438 241.108 .438 241.108 1.104 .013 1.104"/>
    <linearGradient id="bg-forms-h" x1="27.824%" x2="95.993%" y1="7165.782%" y2="-14736.896%">
      <stop offset="0%" stop-color="#FFF"/>
      <stop offset="100%" stop-color="#142895"/>
    </linearGradient>
    <polygon id="bg-forms-j" points=".013 .507 241.108 .507 241.108 1.173 .013 1.173"/>
    <linearGradient id="bg-forms-k" x1="19.525%" x2="87.694%" y1="9832.354%" y2="-12070.324%">
      <stop offset="0%" stop-color="#FFF"/>
      <stop offset="100%" stop-color="#142895"/>
    </linearGradient>
    <polygon id="bg-forms-m" points=".013 .576 241.108 .576 241.108 1.242 .013 1.242"/>
    <linearGradient id="bg-forms-n" x1="11.226%" x2="79.394%" y1="12498.944%" y2="-9403.733%">
      <stop offset="0%" stop-color="#FFF"/>
      <stop offset="100%" stop-color="#142895"/>
    </linearGradient>
    <polygon id="bg-forms-p" points=".013 .645 241.108 .645 241.108 1.311 .013 1.311"/>
    <linearGradient id="bg-forms-q" x1="2.926%" x2="71.095%" y1="15165.435%" y2="-6737.243%">
      <stop offset="0%" stop-color="#FFF"/>
      <stop offset="100%" stop-color="#142895"/>
    </linearGradient>
    <polygon id="bg-forms-s" points=".157 .227 .823 .227 .823 241.21 .157 241.21"/>
    <linearGradient id="bg-forms-t" x1="-13353.896%" x2="6653.358%" y1="99.961%" y2="25.334%">
      <stop offset="0%" stop-color="#FFF"/>
      <stop offset="100%" stop-color="#142895"/>
    </linearGradient>
    <polygon id="bg-forms-v" points=".226 .227 .892 .227 .892 241.21 .226 241.21"/>
    <linearGradient id="bg-forms-w" x1="-11128.879%" x2="8878.375%" y1="91.661%" y2="17.035%">
      <stop offset="0%" stop-color="#FFF"/>
      <stop offset="100%" stop-color="#142895"/>
    </linearGradient>
    <polygon id="bg-forms-y" points=".295 .227 .961 .227 .961 241.21 .295 241.21"/>
    <linearGradient id="bg-forms-z" x1="-8903.838%" x2="11103.416%" y1="83.362%" y2="8.735%">
      <stop offset="0%" stop-color="#FFF"/>
      <stop offset="100%" stop-color="#142895"/>
    </linearGradient>
    <polygon id="bg-forms-B" points=".364 .227 1.03 .227 1.03 241.21 .364 241.21"/>
    <linearGradient id="bg-forms-C" x1="-6678.818%" x2="13328.436%" y1="75.063%" y2=".436%">
      <stop offset="0%" stop-color="#FFF"/>
      <stop offset="100%" stop-color="#142895"/>
    </linearGradient>
    <polygon id="bg-forms-E" points=".433 .227 1.099 .227 1.099 241.21 .433 241.21"/>
    <linearGradient id="bg-forms-F" x1="-4453.802%" x2="15553.452%" y1="66.764%" y2="-7.863%">
      <stop offset="0%" stop-color="#FFF"/>
      <stop offset="100%" stop-color="#142895"/>
    </linearGradient>
    <path id="bg-forms-H" d="M0.36883487,181.458333 L0.36883487,0.647830882 L181.262213,0.647830882 L181.262213,181.458333 L0.36883487,181.458333 Z M0.866638726,180.959939 L180.764409,180.959939 L180.764409,1.14622549 L0.866638726,1.14622549 L0.866638726,180.959939 Z"/>
    <linearGradient id="bg-forms-I" x1="19.608%" x2="87.59%" y1="83.27%" y2="8.849%">
      <stop offset="0%" stop-color="#FFF"/>
      <stop offset="100%" stop-color="#142895"/>
    </linearGradient>
    <polygon id="bg-forms-K" points=".618 .651 181.013 .651 181.013 1.15 .618 1.15"/>
    <linearGradient id="bg-forms-L" x1="36.123%" x2="104.292%" y1="3366.358%" y2="-13022.022%">
      <stop offset="0%" stop-color="#FFF"/>
      <stop offset="100%" stop-color="#142895"/>
    </linearGradient>
    <polygon id="bg-forms-N" points=".618 .158 181.013 .158 181.013 .655 .618 .655"/>
    <linearGradient id="bg-forms-O" x1="27.824%" x2="95.993%" y1="5361.612%" y2="-11026.769%">
      <stop offset="0%" stop-color="#FFF"/>
      <stop offset="100%" stop-color="#142895"/>
    </linearGradient>
    <polygon id="bg-forms-Q" points=".618 .485 181.013 .485 181.013 .983 .618 .983"/>
    <linearGradient id="bg-forms-R" x1="19.524%" x2="87.693%" y1="7356.865%" y2="-9031.515%">
      <stop offset="0%" stop-color="#FFF"/>
      <stop offset="100%" stop-color="#142895"/>
    </linearGradient>
    <polygon id="bg-forms-T" points=".618 .814 181.013 .814 181.013 1.311 .618 1.311"/>
    <linearGradient id="bg-forms-U" x1="11.225%" x2="79.394%" y1="9352.032%" y2="-7036.348%">
      <stop offset="0%" stop-color="#FFF"/>
      <stop offset="100%" stop-color="#142895"/>
    </linearGradient>
    <polygon id="bg-forms-W" points=".618 .32 181.013 .32 181.013 .818 .618 .818"/>
    <linearGradient id="bg-forms-X" x1="2.926%" x2="71.095%" y1="11347.299%" y2="-5041.081%">
      <stop offset="0%" stop-color="#FFF"/>
      <stop offset="100%" stop-color="#142895"/>
    </linearGradient>
    <polygon id="bg-forms-Z" points=".371 .076 .869 .076 .869 180.388 .371 180.388"/>
    <linearGradient id="bg-forms-aa" x1="-9991.922%" x2="4978.233%" y1="99.961%" y2="25.334%">
      <stop offset="0%" stop-color="#FFF"/>
      <stop offset="100%" stop-color="#142895"/>
    </linearGradient>
    <polygon id="bg-forms-ac" points=".699 .076 1.197 .076 1.197 180.388 .699 180.388"/>
    <linearGradient id="bg-forms-ad" x1="-8327.056%" x2="6643.1%" y1="91.662%" y2="17.035%">
      <stop offset="0%" stop-color="#FFF"/>
      <stop offset="100%" stop-color="#142895"/>
    </linearGradient>
    <polygon id="bg-forms-af" points=".206 .076 .704 .076 .704 180.388 .206 180.388"/>
    <linearGradient id="bg-forms-ag" x1="-6662.27%" x2="8307.885%" y1="83.362%" y2="8.735%">
      <stop offset="0%" stop-color="#FFF"/>
      <stop offset="100%" stop-color="#142895"/>
    </linearGradient>
    <polygon id="bg-forms-ai" points=".533 .076 1.032 .076 1.032 180.388 .533 180.388"/>
    <linearGradient id="bg-forms-aj" x1="-4997.304%" x2="9972.852%" y1="75.063%" y2=".436%">
      <stop offset="0%" stop-color="#FFF"/>
      <stop offset="100%" stop-color="#142895"/>
    </linearGradient>
    <polygon id="bg-forms-al" points=".04 .076 .539 .076 .539 180.388 .04 180.388"/>
    <linearGradient id="bg-forms-am" x1="-3332.537%" x2="11637.619%" y1="66.764%" y2="-7.863%">
      <stop offset="0%" stop-color="#FFF"/>
      <stop offset="100%" stop-color="#142895"/>
    </linearGradient>
    <path id="bg-forms-ao" d="M180.894199,0.00821078431 L180.894199,180.818713 L0,180.818713 L0,0.00821078431 L180.894199,0.00821078431 Z M0.498625314,180.320319 L180.396396,180.320319 L180.396396,0.505784314 L0.498625314,0.505784314 L0.498625314,180.320319 Z"/>
    <linearGradient id="bg-forms-ap" x1="19.609%" x2="87.59%" y1="83.271%" y2="8.849%">
      <stop offset="0%" stop-color="#FFF"/>
      <stop offset="100%" stop-color="#142895"/>
    </linearGradient>
    <polygon id="bg-forms-ar" points=".25 .011 180.645 .011 180.645 .509 .25 .509"/>
    <linearGradient id="bg-forms-as" x1="36.123%" x2="104.292%" y1="3366.463%" y2="-13021.918%">
      <stop offset="0%" stop-color="#FFF"/>
      <stop offset="100%" stop-color="#142895"/>
    </linearGradient>
    <polygon id="bg-forms-au" points=".25 .339 180.645 .339 180.645 .837 .25 .837"/>
    <linearGradient id="bg-forms-av" x1="27.824%" x2="95.993%" y1="5361.616%" y2="-11026.764%">
      <stop offset="0%" stop-color="#FFF"/>
      <stop offset="100%" stop-color="#142895"/>
    </linearGradient>
    <polygon id="bg-forms-ax" points=".25 .667 180.645 .667 180.645 1.165 .25 1.165"/>
    <linearGradient id="bg-forms-ay" x1="19.524%" x2="87.693%" y1="7356.869%" y2="-9031.511%">
      <stop offset="0%" stop-color="#FFF"/>
      <stop offset="100%" stop-color="#142895"/>
    </linearGradient>
    <polygon id="bg-forms-aA" points=".25 .173 180.645 .173 180.645 .672 .25 .672"/>
    <linearGradient id="bg-forms-aB" x1="11.225%" x2="79.394%" y1="9352.136%" y2="-7036.244%">
      <stop offset="0%" stop-color="#FFF"/>
      <stop offset="100%" stop-color="#142895"/>
    </linearGradient>
    <polygon id="bg-forms-aD" points=".25 .501 180.645 .501 180.645 .999 .25 .999"/>
    <linearGradient id="bg-forms-aE" x1="2.926%" x2="71.095%" y1="11347.405%" y2="-5040.976%">
      <stop offset="0%" stop-color="#FFF"/>
      <stop offset="100%" stop-color="#142895"/>
    </linearGradient>
    <polygon id="bg-forms-aG" points=".002 .257 .501 .257 .501 180.569 .002 180.569"/>
    <linearGradient id="bg-forms-aH" x1="-9991.802%" x2="4978.354%" y1="99.961%" y2="25.334%">
      <stop offset="0%" stop-color="#FFF"/>
      <stop offset="100%" stop-color="#142895"/>
    </linearGradient>
    <polygon id="bg-forms-aJ" points=".331 .257 .83 .257 .83 180.569 .331 180.569"/>
    <linearGradient id="bg-forms-aK" x1="-8327.035%" x2="6643.12%" y1="91.662%" y2="17.035%">
      <stop offset="0%" stop-color="#FFF"/>
      <stop offset="100%" stop-color="#142895"/>
    </linearGradient>
    <polygon id="bg-forms-aM" points=".659 .257 1.157 .257 1.157 180.569 .659 180.569"/>
    <linearGradient id="bg-forms-aN" x1="-6662.152%" x2="8308.003%" y1="83.363%" y2="8.736%">
      <stop offset="0%" stop-color="#FFF"/>
      <stop offset="100%" stop-color="#142895"/>
    </linearGradient>
    <polygon id="bg-forms-aP" points=".166 .257 .664 .257 .664 180.569 .166 180.569"/>
    <linearGradient id="bg-forms-aQ" x1="-4997.385%" x2="9972.77%" y1="75.063%" y2=".436%">
      <stop offset="0%" stop-color="#FFF"/>
      <stop offset="100%" stop-color="#142895"/>
    </linearGradient>
    <polygon id="bg-forms-aS" points=".493 .257 .992 .257 .992 180.569 .493 180.569"/>
    <linearGradient id="bg-forms-aT" x1="-3332.419%" x2="11637.737%" y1="66.764%" y2="-7.863%">
      <stop offset="0%" stop-color="#FFF"/>
      <stop offset="100%" stop-color="#142895"/>
    </linearGradient>
    <path id="bg-forms-aV" d="M181.004275,181.260453 L0.11007544,181.260453 L0.11007544,0.44995098 L181.004275,0.44995098 L181.004275,181.260453 Z M0.609522213,180.76288 L180.506471,180.76288 L180.506471,0.948345588 L0.609522213,0.948345588 L0.609522213,180.76288 Z"/>
    <linearGradient id="bg-forms-aW" x1="19.609%" x2="87.59%" y1="83.271%" y2="8.849%">
      <stop offset="0%" stop-color="#FFF"/>
      <stop offset="100%" stop-color="#142895"/>
    </linearGradient>
    <polygon id="bg-forms-aY" points=".36 .452 180.755 .452 180.755 .951 .36 .951"/>
    <linearGradient id="bg-forms-aZ" x1="36.123%" x2="104.292%" y1="3366.466%" y2="-13021.915%">
      <stop offset="0%" stop-color="#FFF"/>
      <stop offset="100%" stop-color="#142895"/>
    </linearGradient>
    <polygon id="bg-forms-bb" points=".36 .781 180.755 .781 180.755 1.279 .36 1.279"/>
    <linearGradient id="bg-forms-bc" x1="27.824%" x2="95.993%" y1="5361.619%" y2="-11026.761%">
      <stop offset="0%" stop-color="#FFF"/>
      <stop offset="100%" stop-color="#142895"/>
    </linearGradient>
    <polygon id="bg-forms-be" points=".36 .287 180.755 .287 180.755 .785 .36 .785"/>
    <linearGradient id="bg-forms-bf" x1="19.525%" x2="87.693%" y1="7356.872%" y2="-9031.508%">
      <stop offset="0%" stop-color="#FFF"/>
      <stop offset="100%" stop-color="#142895"/>
    </linearGradient>
    <polygon id="bg-forms-bh" points=".36 .616 180.755 .616 180.755 1.113 .36 1.113"/>
    <linearGradient id="bg-forms-bi" x1="11.225%" x2="79.394%" y1="9352.039%" y2="-7036.341%">
      <stop offset="0%" stop-color="#FFF"/>
      <stop offset="100%" stop-color="#142895"/>
    </linearGradient>
    <polygon id="bg-forms-bk" points=".36 .122 180.755 .122 180.755 .621 .36 .621"/>
    <linearGradient id="bg-forms-bl" x1="2.926%" x2="71.095%" y1="11347.306%" y2="-5041.074%">
      <stop offset="0%" stop-color="#FFF"/>
      <stop offset="100%" stop-color="#142895"/>
    </linearGradient>
    <polygon id="bg-forms-bn" points=".113 .699 .611 .699 .611 181.011 .113 181.011"/>
    <linearGradient id="bg-forms-bo" x1="-9991.864%" x2="4978.291%" y1="99.961%" y2="25.334%">
      <stop offset="0%" stop-color="#FFF"/>
      <stop offset="100%" stop-color="#142895"/>
    </linearGradient>
    <polygon id="bg-forms-bq" points=".442 .699 .94 .699 .94 181.011 .442 181.011"/>
    <linearGradient id="bg-forms-br" x1="-8327.103%" x2="6643.052%" y1="91.662%" y2="17.035%">
      <stop offset="0%" stop-color="#FFF"/>
      <stop offset="100%" stop-color="#142895"/>
    </linearGradient>
    <polygon id="bg-forms-bt" points=".77 .699 1.268 .699 1.268 181.011 .77 181.011"/>
    <linearGradient id="bg-forms-bu" x1="-6662.218%" x2="8307.937%" y1="83.363%" y2="8.736%">
      <stop offset="0%" stop-color="#FFF"/>
      <stop offset="100%" stop-color="#142895"/>
    </linearGradient>
    <polygon id="bg-forms-bw" points=".276 .699 .775 .699 .775 181.011 .276 181.011"/>
    <linearGradient id="bg-forms-bx" x1="-4997.351%" x2="9972.804%" y1="75.063%" y2=".436%">
      <stop offset="0%" stop-color="#FFF"/>
      <stop offset="100%" stop-color="#142895"/>
    </linearGradient>
    <polygon id="bg-forms-bz" points=".604 .699 1.102 .699 1.102 181.011 .604 181.011"/>
    <linearGradient id="bg-forms-bA" x1="-3332.484%" x2="11637.671%" y1="66.764%" y2="-7.863%">
      <stop offset="0%" stop-color="#FFF"/>
      <stop offset="100%" stop-color="#142895"/>
    </linearGradient>
  </defs>
  <g fill="none" fill-rule="evenodd" opacity=".238" transform="translate(0 64)">
    <g transform="translate(131 9)">
      <polygon stroke="#152896" stroke-width="2" points="251.356 201.358 251.356 79.57 356.584 18.676 461.811 79.57 461.811 201.358 356.584 262.252"/>
      <polygon stroke="#F4F4F4" stroke-width=".5" points="453.602 196.607 453.602 84.32 356.583 28.177 259.566 84.32 259.566 196.607 356.583 252.75"/>
      <polygon stroke="#F4F4F4" stroke-width=".5" points="434.715 185.678 434.715 95.25 356.584 50.035 278.452 95.25 278.452 185.678 356.584 230.892"/>
      <g stroke="#152896" stroke-width="3" transform="translate(262.694 32.09)">
        <polyline points="173.296 170.782 187.515 162.554 187.515 146.097"/>
        <path stroke-dasharray="30.564 30.564" d="M187.515343,120.948702 L187.515343,83.2247435"/>
        <polyline points="187.515 70.65 187.515 54.194 173.296 45.965"/>
        <path stroke-dasharray="30.564 30.564" d="M151.567293,33.3908084 L118.972697,14.5292408"/>
        <polyline points="108.108 8.242 93.889 .013 79.671 8.242"/>
        <path stroke-dasharray="30.564 30.564" d="M57.9412143,20.8162655 L25.3474393,39.677833"/>
        <polyline points="14.483 45.965 .263 54.194 .263 70.65"/>
        <path stroke-dasharray="30.564 30.564" d="M0.263597147,95.7996156 L0.263597147,133.523574"/>
        <polyline points=".264 146.097 .264 162.554 14.483 170.782"/>
        <path stroke-dasharray="30.564 30.564" d="M36.2120583,183.356274 L68.8058333,202.218665"/>
        <polyline points="79.671 208.505 93.889 216.734 108.108 208.505"/>
        <path stroke-dasharray="30.564 30.564" d="M129.837726,195.930817 L162.431501,177.06925"/>
      </g>
      <path fill="#152896" d="M356.583401,42.428612 L289.044739,81.5126961 L296.843471,95.0522456 L356.583401,60.4805219 L409.122229,90.884648 L416.920961,77.3450985 L356.583401,42.428612 Z M424.030121,81.4592126 L416.231389,94.9987622 L425.690019,100.47218 L425.690019,149.64078 L441.287484,149.64078 L441.287484,91.446636 L424.030121,81.4592126 Z M441.287484,157.869008 L425.690019,157.869008 L425.690019,180.455495 L393.264533,199.219969 L401.063265,212.759519 L441.287484,189.481861 L441.287484,157.869008 Z M386.155373,203.334083 L356.583401,220.447153 L334.213354,207.501681 L326.414622,221.040408 L356.583401,238.499062 C356.583401,238.499062 356.910948,238.309813 357.506114,237.96505 L357.507756,237.964228 C357.607087,237.90663 357.712165,237.845741 357.824631,237.780738 L357.827915,237.779092 C357.882916,237.747002 357.93956,237.714089 357.997845,237.680354 L358.014263,237.67048 C358.024935,237.663897 358.036428,237.658138 358.0471,237.651555 L358.049563,237.650732 C358.062698,237.642504 358.076653,237.634276 358.089788,237.62687 L358.102923,237.620288 C358.114416,237.612882 358.126729,237.605477 358.139043,237.598071 L358.147252,237.593135 C358.150536,237.591489 358.154641,237.589843 358.157924,237.588198 L358.239195,237.540474 C358.285167,237.514144 358.331959,237.48699 358.380393,237.459014 L358.391065,237.453255 C358.42226,237.435153 358.453455,237.41705 358.48465,237.398126 L358.489576,237.395657 C358.521591,237.377555 358.554428,237.357807 358.586444,237.339705 L358.602042,237.330654 C358.634057,237.312552 358.666894,237.293627 358.69891,237.274702 L358.700552,237.273879 C358.73503,237.253309 358.769509,237.234384 358.803988,237.214636 L358.81466,237.208053 C358.847496,237.188306 358.879512,237.170204 358.91317,237.150456 L358.93123,237.140582 C358.936156,237.137291 358.94026,237.134822 358.944365,237.132354 L358.955037,237.126594 C358.959141,237.124126 358.962425,237.121657 358.967351,237.119189 L358.988694,237.107669 C358.991978,237.105201 358.996083,237.102732 358.999366,237.101086 L359.192282,236.989183 C359.195566,236.987537 359.19885,236.985068 359.201313,236.983423 L359.215268,236.975195 C359.222656,236.971903 359.229224,236.967789 359.236612,236.963675 L359.248926,236.95627 C359.25221,236.953801 359.255493,236.952156 359.259598,236.95051 L359.303927,236.92418 C359.310495,236.920888 359.317883,236.916774 359.323629,236.91266 L359.336764,236.906077 L359.382736,236.878924 L359.403259,236.867405 C359.408184,236.864114 359.413931,236.860822 359.418856,236.858354 L359.428707,236.851771 C359.432812,236.850126 359.436095,236.847657 359.4402,236.845189 L359.593712,236.757147 C359.593712,236.757147 359.595354,236.755501 359.596175,236.755501 L359.656923,236.72012 L359.661027,236.717651 L359.675804,236.709423 C359.682371,236.705309 359.688118,236.702017 359.694685,236.698726 L393.953284,216.873633 L386.155373,203.334083 Z M287.475962,166.204204 L271.878498,166.204204 L271.878498,189.481861 C271.878498,189.481861 272.618146,189.908906 273.911094,190.657675 L273.92587,190.665903 C274.003858,190.711159 274.083487,190.757237 274.165579,190.80496 L274.167221,190.805783 C274.421706,190.953068 274.695072,191.11105 274.986498,191.279729 L274.993886,191.283843 C275.090755,191.340618 275.187623,191.39657 275.288596,191.45499 L275.291059,191.455813 C275.389569,191.513411 275.491363,191.571831 275.593157,191.631074 L275.606292,191.63848 C275.708086,191.697723 275.810701,191.756144 275.915778,191.817855 L275.927271,191.823615 C275.978989,191.854882 276.031528,191.884504 276.084067,191.915771 L276.093097,191.920708 C276.117725,191.934696 276.142352,191.948684 276.16698,191.962672 L276.175189,191.967609 C276.186682,191.974192 276.200637,191.98242 276.211309,191.989002 L276.216235,191.991471 C276.224444,191.996408 276.233474,192.001345 276.242504,192.006282 L276.303252,192.041663 C276.313103,192.047423 276.323775,192.054005 276.334447,192.060588 L276.343477,192.064702 C276.370568,192.080336 276.396016,192.095969 276.423106,192.11078 L276.430495,192.115717 C276.455122,192.130528 276.481392,192.144516 276.50684,192.16015 L276.529005,192.172492 C276.537214,192.177429 276.546244,192.182366 276.554454,192.187303 L276.557737,192.188948 C276.564305,192.193062 276.570872,192.197177 276.576618,192.199645 L276.57826,192.201291 C276.583186,192.203759 276.588111,192.206228 276.592216,192.208696 L276.606992,192.217747 C276.618485,192.22433 276.629978,192.231735 276.642292,192.237495 L276.644755,192.239141 C276.652143,192.244077 276.661173,192.249014 276.668561,192.253951 L276.692368,192.267117 C276.712891,192.278636 276.732593,192.290978 276.753116,192.302498 L276.781027,192.318132 C276.806476,192.333765 276.833566,192.349399 276.859835,192.36421 L276.871328,192.370792 C276.882821,192.376552 276.892672,192.383135 276.903344,192.389717 L276.914837,192.3963 C276.920584,192.399591 276.92633,192.402882 276.932076,192.405351 L276.987078,192.437441 C276.987078,192.438264 276.987899,192.439086 276.98872,192.439086 L277.002675,192.446492 C277.014989,192.453897 277.02484,192.459657 277.037975,192.467062 L277.05111,192.474468 C277.056035,192.476936 277.060961,192.480228 277.065065,192.482696 L277.068349,192.484342 C277.074095,192.488456 277.079842,192.490924 277.086409,192.495038 L277.094618,192.500798 C277.106932,192.507381 277.118425,192.513141 277.129918,192.520546 L277.143053,192.527951 C277.155366,192.535357 277.168501,192.542762 277.180815,192.549345 C277.195591,192.558396 277.208726,192.565801 277.223503,192.574852 L277.23007,192.578144 C277.253877,192.592132 277.278504,192.606942 277.303132,192.620108 L277.346641,192.645615 C277.349924,192.647261 277.354029,192.649729 277.358133,192.652198 L277.372089,192.660426 C277.382761,192.667008 277.393433,192.672768 277.404105,192.679351 L277.421344,192.688402 C277.424628,192.69087 277.42627,192.691693 277.429553,192.693339 L277.436942,192.698276 C277.443509,192.701567 277.450076,192.706504 277.456644,192.709795 L277.461569,192.712264 C277.466495,192.714732 277.470599,192.717201 277.475525,192.719669 L277.491943,192.730366 L277.494406,192.731189 L277.514108,192.742708 L277.522317,192.747645 L277.532989,192.753405 C277.537915,192.755873 277.542019,192.758342 277.546945,192.761633 L277.557617,192.768216 C277.568289,192.773975 277.579782,192.781381 277.590454,192.787141 L277.606872,192.796192 C277.610977,192.79866 277.616723,192.801951 277.620828,192.80442 L277.627395,192.808534 C277.630679,192.81018 277.633962,192.812648 277.637246,192.814294 L277.654485,192.824168 C277.657769,192.825813 277.660232,192.826636 277.662694,192.828282 L277.725084,192.864486 C277.727547,192.866132 277.729189,192.866954 277.732473,192.8686 L277.776802,192.894108 L277.777623,192.89493 L277.796504,192.90645 C277.80143,192.908918 277.806355,192.91221 277.811281,192.914678 L277.814565,192.917147 C277.821953,192.920438 277.827699,192.923729 277.835087,192.927843 L277.840834,192.931135 C277.84658,192.935249 277.853969,192.939363 277.859715,192.942654 L277.895015,192.963225 C277.906507,192.969807 277.918,192.97639 277.928672,192.982972 L277.936881,192.987909 C277.950016,192.994492 277.96233,193.001897 277.976286,193.010126 L277.98942,193.018354 C278.001734,193.024114 278.014869,193.032342 278.027183,193.039747 L278.038675,193.04633 C278.041138,193.047975 278.04278,193.048798 278.045243,193.049621 L278.110916,193.088294 C278.113379,193.089939 278.115842,193.091585 278.119126,193.092408 L278.135544,193.102282 C278.139648,193.10475 278.146216,193.108041 278.15032,193.11051 L278.162634,193.117915 C278.163455,193.118738 278.163455,193.118738 278.164276,193.119561 L278.18562,193.13108 C278.188083,193.132726 278.190545,193.134372 278.193008,193.135195 L278.236517,193.159879 C278.237338,193.160702 278.238159,193.161525 278.239801,193.162348 L278.335027,193.217477 C278.336669,193.219123 278.336669,193.219123 278.339132,193.219945 L319.305461,216.926294 L327.104194,203.387567 L287.475962,180.455495 L287.475962,166.204204 Z M281.934758,85.6268102 L271.878498,91.446636 L271.878498,157.975975 L287.475962,157.975975 L287.475962,100.47218 L289.73349,99.1663598 L287.475962,95.2464318 L287.475962,91.446636 L285.287392,91.446636 L281.934758,85.6268102 Z"/>
      <path stroke="#F4F4F4" stroke-dasharray="95 10" d="M.652384469.477484084L19.6344986.477484084M.652384469 8.74833453L19.6344986 8.74833453M.652384469 17.0199255L19.6344986 17.0199255M.652384469 25.290776L19.6344986 25.290776M.652384469 33.562367L19.6344986 33.562367M.652384469 41.8331351L19.6344986 41.8331351M.652384469 50.1048084L19.6344986 50.1048084M.652384469 58.3755766L19.6344986 58.3755766M.652384469 66.6472498L19.6344986 66.6472498M.652384469 74.918018L19.6344986 74.918018M.652384469 83.1888685L19.6344986 83.1888685M.652384469 91.4604595L19.6344986 91.4604595M.652384469 99.7313099L19.6344986 99.7313099M.652384469 108.002901L19.6344986 108.002901M.652384469 116.273751L19.6344986 116.273751M.652384469 124.545342L19.6344986 124.545342M.652384469 132.816193L19.6344986 132.816193M.652384469 141.087784L19.6344986 141.087784M.652384469 149.358552L19.6344986 149.358552M.652384469 157.630225L19.6344986 157.630225" transform="translate(293.068 111.904)"/>
      <path stroke="#F4F4F4" stroke-dasharray="95 10" d="M.582277971.408778378L19.5643921.408778378M.582277971 8.67962883L19.5643921 8.67962883M.582277971 16.9508084L19.5643921 16.9508084M.582277971 25.221988L19.5643921 25.221988M.582277971 33.4932498L19.5643921 33.4932498M.582277971 41.7644294L19.5643921 41.7644294M.582277971 50.0356913L19.5643921 50.0356913M.582277971 58.3068709L19.5643921 58.3068709M.582277971 66.5781327L19.5643921 66.5781327M.582277971 74.8493123L19.5643921 74.8493123M.582277971 83.1205742L19.5643921 83.1205742M.582277971 91.3917538L19.5643921 91.3917538M.582277971 99.6630156L19.5643921 99.6630156M.582277971 107.934195L19.5643921 107.934195M.582277971 116.205457L19.5643921 116.205457M.582277971 124.476225L19.5643921 124.476225M.582277971 132.747898L19.5643921 132.747898M.582277971 141.018667L19.5643921 141.018667M.582277971 149.29034L19.5643921 149.29034M.582277971 157.561108L19.5643921 157.561108" transform="translate(498.298)"/>
      <path stroke="#F4F4F4" stroke-dasharray="95 10" d="M.722983518.000164564565L19.7050976.000164564565M.722983518 8.27183784L19.7050976 8.27183784M.722983518 16.542606L19.7050976 16.542606M.722983518 24.8142793L19.7050976 24.8142793M.722983518 33.0850474L19.7050976 33.0850474M.722983518 41.3566384L19.7050976 41.3566384M.722983518 49.6274889L19.7050976 49.6274889M.722983518 57.8990799L19.7050976 57.8990799" transform="translate(0 120.955)"/>
      <path stroke="#F4F4F4" stroke-dasharray="95 10" d="M.722983518.650276877L19.7050976.650276877M.722983518 8.92104505L19.7050976 8.92104505M.722983518 17.192636L19.7050976 17.192636M.722983518 25.4634865L19.7050976 25.4634865M.722983518 33.7350775L19.7050976 33.7350775M.722983518 42.0059279L19.7050976 42.0059279M.722983518 50.2767784L19.7050976 50.2767784M.722983518 58.5483694L19.7050976 58.5483694" transform="translate(0 213.934)"/>
      <path stroke="#F4F4F4" stroke-dasharray="1" d="M.420310618.477072673L19.4024247.477072673M.420310618 8.74825225L19.4024247 8.74825225M.420310618 17.0195141L19.4024247 17.0195141M.420310618 25.2906937L19.4024247 25.2906937M.420310618 33.5619556L19.4024247 33.5619556" transform="translate(340.681 77.345)"/>
      <path stroke="#F4F4F4" stroke-dasharray="1" d="M.420310618.498795195L19.4024247.498795195M.420310618 8.76997477L19.4024247 8.76997477M.420310618 17.0412366L19.4024247 17.0412366M.420310618 25.3124162L19.4024247 25.3124162" transform="translate(340.681 81.46)"/>
      <path stroke="#F4F4F4" stroke-dasharray="1" d="M.420310618.477072673L19.4024247.477072673M.420310618 8.74825225L19.4024247 8.74825225M.420310618 17.0195141L19.4024247 17.0195141M.420310618 25.2906937L19.4024247 25.2906937M.420310618 33.5619556L19.4024247 33.5619556" transform="translate(340.681 77.345)"/>
    </g>
    <path stroke="#F4F4F4" stroke-dasharray="1" d="M428.46,34 L428,34"/>
    <g stroke="#F4F4F4" stroke-dasharray="1" transform="translate(103 107)">
      <path d="M.401416667.1735L19.6705833.1735M.401416667 8.55041667L19.6705833 8.55041667M.401416667 16.92725L19.6705833 16.92725M.401416667 25.3045833L19.6705833 25.3045833M.401416667 33.681L19.6705833 33.681"/>
      <path d="M.401416667.1955L19.6705833.1955M.401416667 8.57233333L19.6705833 8.57233333M.401416667 16.94925L19.6705833 16.94925M.401416667 25.32575L19.6705833 25.32575" transform="translate(0 4.167)"/>
      <path d="M.401416667.1735L19.6705833.1735M.401416667 8.55041667L19.6705833 8.55041667M.401416667 16.92725L19.6705833 16.92725M.401416667 25.3045833L19.6705833 25.3045833M.401416667 33.681L19.6705833 33.681"/>
    </g>
    <path stroke="#F4F4F4" stroke-dasharray="1" d="M59.46,54 L59,54"/>
    <g stroke="#F4F4F4" stroke-dasharray="1" transform="translate(913 93)">
      <path d="M.294833333.671837209L19.564.671837209M.294833333 8.85394186L19.564 8.85394186M.294833333 17.0359651L19.564 17.0359651M.294833333 25.2179884L19.564 25.2179884M.294833333 33.400093L19.564 33.400093"/>
      <path d="M.294833333.693325581L19.564.693325581M.294833333 8.87494186L19.564 8.87494186M.294833333 17.0570465L19.564 17.0570465M.294833333 25.2390698L19.564 25.2390698" transform="translate(0 4.07)"/>
      <path d="M.294833333.671837209L19.564.671837209M.294833333 8.85394186L19.564 8.85394186M.294833333 17.0359651L19.564 17.0359651M.294833333 25.2179884L19.564 25.2179884M.294833333 33.400093L19.564 33.400093"/>
    </g>
    <path stroke="#F4F4F4" stroke-dasharray="1" d="M870.46,41 L870,41"/>
    <g stroke="#F4F4F4" stroke-dasharray="1" transform="translate(743 201)">
      <path d="M.504.01975L19.7723333.01975M.504 8.397L19.7723333 8.397M.504 16.7735L19.7723333 16.7735M.504 25.15075L19.7723333 25.15075M.504 33.5271667L19.7723333 33.5271667"/>
      <path d="M.504.0416666667L19.7723333.0416666667M.504 8.41816667L19.7723333 8.41816667M.504 16.7954167L19.7723333 16.7954167M.504 25.1719167L19.7723333 25.1719167" transform="translate(0 4.167)"/>
      <path d="M.504.01975L19.7723333.01975M.504 8.397L19.7723333 8.397M.504 16.7735L19.7723333 16.7735M.504 25.15075L19.7723333 25.15075M.504 33.5271667L19.7723333 33.5271667"/>
    </g>
    <path stroke="#F4F4F4" stroke-dasharray="1" d="M699.461,149 L699,149"/>
    <g transform="translate(311.333 41.054)">
      <polygon fill="#152896" points=".619 34.415 35.037 34.415 35.037 .013 .619 .013"/>
      <path stroke="#F4F4F4" d="M38.3227645 37.2827083L3.29248785 2.26781863M3.29248785 37.2827083L38.3227645 2.26781863"/>
    </g>
    <g transform="translate(64.895 198.701)">
      <polygon fill="#E50E32" points=".558 34.884 34.975 34.884 34.975 .482 .558 .482"/>
      <path stroke="#F4F4F4" d="M38.2610729 37.7505588L3.23079631 2.7364902M3.23071417 37.7505588L38.2609908 2.7364902"/>
    </g>
    <g transform="translate(788.6 75.54)">
      <polygon fill="#152896" points=".74 35.171 35.157 35.171 35.157 .77 .74 .77"/>
      <path stroke="#F4F4F4" d="M38.4427795 38.0384289L3.41250293 3.02436029M3.41283152 38.0384289L38.4431081 3.02436029"/>
    </g>
    <g transform="translate(565.163 192.953)">
      <polygon fill="#152896" points=".497 34.778 34.914 34.778 34.914 .378 .497 .378"/>
      <path stroke="#F4F4F4" d="M38.19971 37.6462819L3.16943336 2.63139216M3.16976194 37.6462819L38.2000386 2.63139216"/>
    </g>
    <polyline stroke="#E50E32" points="462.963 123.855 454.534 123.855 454.534 181.599 464.402 181.599"/>
    <polyline stroke="#E50E32" points="510.365 181.599 518.794 181.599 518.794 123.855 508.926 123.855"/>
    <path stroke="#F4F4F4" d="M2.52877787.0859669118L.399557418.0859669118M2.52877787 22.5982953L.399557418 22.5982953M2.52877787 45.1106238L.399557418 45.1106238" transform="translate(461.66 132.194)"/>
    <path stroke="#F4F4F4" d="M2.73734619.771567402L.608947192.771567402M2.73734619 23.2830748L.608947192 23.2830748M2.73734619 45.7953211L.608947192 45.7953211" transform="translate(798.458 204.449)"/>
    <path stroke="#F4F4F4" d="M2.30903772.771567402L.179817267.771567402M2.30903772 23.2830748L.179817267 23.2830748M2.30903772 45.7953211L.179817267 45.7953211" transform="translate(835.423 204.449)"/>
    <path stroke="#F4F4F4" d="M2.70120201.771567402L.572803018.771567402M2.70120201 23.2830748L.572803018 23.2830748M2.70120201 45.7953211L.572803018 45.7953211" transform="translate(871.567 204.449)"/>
    <path stroke="#F4F4F4" d="M2.2728114.771567402L.143590947.771567402M2.2728114 23.2830748L.143590947 23.2830748M2.2728114 45.7953211L.143590947 45.7953211" transform="translate(908.533 204.449)"/>
    <path stroke="#F4F4F4" d="M2.5777368.0859669118L.448516345.0859669118M2.5777368 22.5982953L.448516345 22.5982953M2.5777368 45.1106238L.448516345 45.1106238" transform="translate(513.412 132.194)"/>
    <g transform="translate(201.257 52.549)">
      <mask id="bg-forms-c" fill="#fff">
        <use xlink:href="#bg-forms-a"/>
      </mask>
      <path fill="url(#bg-forms-b)" d="M1.168114,241.696752 L241.596697,241.696752 L241.596697,1.37941176 L1.168114,1.37941176 L1.168114,241.696752 Z M0.501911148,242.363468 L242.2629,242.363468 L242.2629,0.714338235 L0.501911148,0.714338235 L0.501911148,242.363468 Z" mask="url(#bg-forms-c)"/>
      <g transform="translate(.821 201.164)">
        <mask id="bg-forms-f" fill="#fff">
          <use xlink:href="#bg-forms-d"/>
        </mask>
        <polygon fill="url(#bg-forms-e)" points=".013 1.035 241.108 1.035 241.108 .369 .013 .369" mask="url(#bg-forms-f)"/>
      </g>
      <g transform="translate(.821 160.931)">
        <mask id="bg-forms-i" fill="#fff">
          <use xlink:href="#bg-forms-g"/>
        </mask>
        <polygon fill="url(#bg-forms-h)" points=".013 1.104 241.108 1.104 241.108 .438 .013 .438" mask="url(#bg-forms-i)"/>
      </g>
      <g transform="translate(.821 120.699)">
        <mask id="bg-forms-l" fill="#fff">
          <use xlink:href="#bg-forms-j"/>
        </mask>
        <polygon fill="url(#bg-forms-k)" points=".013 1.173 241.108 1.173 241.108 .507 .013 .507" mask="url(#bg-forms-l)"/>
      </g>
      <g transform="translate(.821 80.466)">
        <mask id="bg-forms-o" fill="#fff">
          <use xlink:href="#bg-forms-m"/>
        </mask>
        <polygon fill="url(#bg-forms-n)" points=".013 1.242 241.108 1.242 241.108 .576 .013 .576" mask="url(#bg-forms-o)"/>
      </g>
      <g transform="translate(.821 40.233)">
        <mask id="bg-forms-r" fill="#fff">
          <use xlink:href="#bg-forms-p"/>
        </mask>
        <polygon fill="url(#bg-forms-q)" points=".013 1.311 241.108 1.311 241.108 .645 .013 .645" mask="url(#bg-forms-r)"/>
      </g>
      <g transform="translate(201.257 .821)">
        <mask id="bg-forms-u" fill="#fff">
          <use xlink:href="#bg-forms-s"/>
        </mask>
        <polygon fill="url(#bg-forms-t)" points=".157 241.21 .823 241.21 .823 .227 .157 .227" mask="url(#bg-forms-u)"/>
      </g>
      <g transform="translate(161.006 .821)">
        <mask id="bg-forms-x" fill="#fff">
          <use xlink:href="#bg-forms-v"/>
        </mask>
        <polygon fill="url(#bg-forms-w)" points=".226 241.21 .892 241.21 .892 .227 .226 .227" mask="url(#bg-forms-x)"/>
      </g>
      <g transform="translate(120.754 .821)">
        <mask id="bg-forms-A" fill="#fff">
          <use xlink:href="#bg-forms-y"/>
        </mask>
        <polygon fill="url(#bg-forms-z)" points=".295 241.21 .961 241.21 .961 .227 .295 .227" mask="url(#bg-forms-A)"/>
      </g>
      <g transform="translate(80.503 .821)">
        <mask id="bg-forms-D" fill="#fff">
          <use xlink:href="#bg-forms-B"/>
        </mask>
        <polygon fill="url(#bg-forms-C)" points=".364 241.21 1.03 241.21 1.03 .227 .364 .227" mask="url(#bg-forms-D)"/>
      </g>
      <g transform="translate(40.251 .821)">
        <mask id="bg-forms-G" fill="#fff">
          <use xlink:href="#bg-forms-E"/>
        </mask>
        <polygon fill="url(#bg-forms-F)" points=".433 241.21 1.099 241.21 1.099 .227 .433 .227" mask="url(#bg-forms-G)"/>
      </g>
    </g>
    <g transform="translate(501.911 153.542)">
      <mask id="bg-forms-J" fill="#fff">
        <use xlink:href="#bg-forms-H"/>
      </mask>
      <path fill="url(#bg-forms-I)" d="M0.866638726,180.959939 L180.764409,180.959939 L180.764409,1.14622549 L0.866638726,1.14622549 L0.866638726,180.959939 Z M0.36883487,181.458333 L181.262213,181.458333 L181.262213,0.647830882 L0.36883487,0.647830882 L0.36883487,181.458333 Z" mask="url(#bg-forms-J)"/>
      <g transform="translate(0 150.257)">
        <mask id="bg-forms-M" fill="#fff">
          <use xlink:href="#bg-forms-K"/>
        </mask>
        <polygon fill="url(#bg-forms-L)" points=".618 1.15 181.013 1.15 181.013 .651 .618 .651" mask="url(#bg-forms-M)"/>
      </g>
      <g transform="translate(0 120.699)">
        <mask id="bg-forms-P" fill="#fff">
          <use xlink:href="#bg-forms-N"/>
        </mask>
        <polygon fill="url(#bg-forms-O)" points=".618 .655 181.013 .655 181.013 .158 .618 .158" mask="url(#bg-forms-P)"/>
      </g>
      <g transform="translate(0 90.319)">
        <mask id="bg-forms-S" fill="#fff">
          <use xlink:href="#bg-forms-Q"/>
        </mask>
        <polygon fill="url(#bg-forms-R)" points=".618 .983 181.013 .983 181.013 .485 .618 .485" mask="url(#bg-forms-S)"/>
      </g>
      <g transform="translate(0 59.939)">
        <mask id="bg-forms-V" fill="#fff">
          <use xlink:href="#bg-forms-T"/>
        </mask>
        <polygon fill="url(#bg-forms-U)" points=".618 1.311 181.013 1.311 181.013 .814 .618 .814" mask="url(#bg-forms-V)"/>
      </g>
      <g transform="translate(0 30.38)">
        <mask id="bg-forms-Y" fill="#fff">
          <use xlink:href="#bg-forms-W"/>
        </mask>
        <polygon fill="url(#bg-forms-X)" points=".618 .818 181.013 .818 181.013 .32 .618 .32" mask="url(#bg-forms-Y)"/>
      </g>
      <g transform="translate(150.327 .821)">
        <mask id="bg-forms-ab" fill="#fff">
          <use xlink:href="#bg-forms-Z"/>
        </mask>
        <polygon fill="url(#bg-forms-aa)" points=".371 180.388 .869 180.388 .869 .076 .371 .076" mask="url(#bg-forms-ab)"/>
      </g>
      <g transform="translate(119.933 .821)">
        <mask id="bg-forms-ae" fill="#fff">
          <use xlink:href="#bg-forms-ac"/>
        </mask>
        <polygon fill="url(#bg-forms-ad)" points=".699 180.388 1.197 180.388 1.197 .076 .699 .076" mask="url(#bg-forms-ae)"/>
      </g>
      <g transform="translate(90.36 .821)">
        <mask id="bg-forms-ah" fill="#fff">
          <use xlink:href="#bg-forms-af"/>
        </mask>
        <polygon fill="url(#bg-forms-ag)" points=".206 180.388 .704 180.388 .704 .076 .206 .076" mask="url(#bg-forms-ah)"/>
      </g>
      <g transform="translate(59.966 .821)">
        <mask id="bg-forms-ak" fill="#fff">
          <use xlink:href="#bg-forms-ai"/>
        </mask>
        <polygon fill="url(#bg-forms-aj)" points=".533 180.388 1.032 180.388 1.032 .076 .533 .076" mask="url(#bg-forms-ak)"/>
      </g>
      <g transform="translate(30.394 .821)">
        <mask id="bg-forms-an" fill="#fff">
          <use xlink:href="#bg-forms-al"/>
        </mask>
        <polygon fill="url(#bg-forms-am)" points=".04 180.388 .539 180.388 .539 .076 .04 .076" mask="url(#bg-forms-an)"/>
      </g>
    </g>
    <mask id="bg-forms-aq" fill="#fff">
      <use xlink:href="#bg-forms-ao"/>
    </mask>
    <path fill="url(#bg-forms-ap)" d="M0.498625314,180.320319 L180.396396,180.320319 L180.396396,0.505784314 L0.498625314,0.505784314 L0.498625314,180.320319 Z M0,180.818713 L180.894199,180.818713 L180.894199,0.00821078431 L0,0.00821078431 L0,180.818713 Z" mask="url(#bg-forms-aq)"/>
    <g transform="translate(0 150.257)">
      <mask id="bg-forms-at" fill="#fff">
        <use xlink:href="#bg-forms-ar"/>
      </mask>
      <polygon fill="url(#bg-forms-as)" points=".25 .509 180.645 .509 180.645 .011 .25 .011" mask="url(#bg-forms-at)"/>
    </g>
    <g transform="translate(0 119.877)">
      <mask id="bg-forms-aw" fill="#fff">
        <use xlink:href="#bg-forms-au"/>
      </mask>
      <polygon fill="url(#bg-forms-av)" points=".25 .837 180.645 .837 180.645 .339 .25 .339" mask="url(#bg-forms-aw)"/>
    </g>
    <g transform="translate(0 89.498)">
      <mask id="bg-forms-az" fill="#fff">
        <use xlink:href="#bg-forms-ax"/>
      </mask>
      <polygon fill="url(#bg-forms-ay)" points=".25 1.165 180.645 1.165 180.645 .667 .25 .667" mask="url(#bg-forms-az)"/>
    </g>
    <g transform="translate(0 59.939)">
      <mask id="bg-forms-aC" fill="#fff">
        <use xlink:href="#bg-forms-aA"/>
      </mask>
      <polygon fill="url(#bg-forms-aB)" points=".25 .672 180.645 .672 180.645 .173 .25 .173" mask="url(#bg-forms-aC)"/>
    </g>
    <g transform="translate(0 29.559)">
      <mask id="bg-forms-aF" fill="#fff">
        <use xlink:href="#bg-forms-aD"/>
      </mask>
      <polygon fill="url(#bg-forms-aE)" points=".25 .999 180.645 .999 180.645 .501 .25 .501" mask="url(#bg-forms-aF)"/>
    </g>
    <g transform="translate(150.327)">
      <mask id="bg-forms-aI" fill="#fff">
        <use xlink:href="#bg-forms-aG"/>
      </mask>
      <polygon fill="url(#bg-forms-aH)" points=".002 180.569 .501 180.569 .501 .257 .002 .257" mask="url(#bg-forms-aI)"/>
    </g>
    <g transform="translate(119.933)">
      <mask id="bg-forms-aL" fill="#fff">
        <use xlink:href="#bg-forms-aJ"/>
      </mask>
      <polygon fill="url(#bg-forms-aK)" points=".331 180.569 .83 180.569 .83 .257 .331 .257" mask="url(#bg-forms-aL)"/>
    </g>
    <g transform="translate(89.539)">
      <mask id="bg-forms-aO" fill="#fff">
        <use xlink:href="#bg-forms-aM"/>
      </mask>
      <polygon fill="url(#bg-forms-aN)" points=".659 180.569 1.157 180.569 1.157 .257 .659 .257" mask="url(#bg-forms-aO)"/>
    </g>
    <g transform="translate(59.966)">
      <mask id="bg-forms-aR" fill="#fff">
        <use xlink:href="#bg-forms-aP"/>
      </mask>
      <polygon fill="url(#bg-forms-aQ)" points=".166 180.569 .664 180.569 .664 .257 .166 .257" mask="url(#bg-forms-aR)"/>
    </g>
    <g transform="translate(29.573)">
      <mask id="bg-forms-aU" fill="#fff">
        <use xlink:href="#bg-forms-aS"/>
      </mask>
      <polygon fill="url(#bg-forms-aT)" points=".493 180.569 .992 180.569 .992 .257 .493 .257" mask="url(#bg-forms-aU)"/>
    </g>
    <g transform="translate(798.458 120.699)">
      <mask id="bg-forms-aX" fill="#fff">
        <use xlink:href="#bg-forms-aV"/>
      </mask>
      <path fill="url(#bg-forms-aW)" d="M0.609522213,180.76288 L180.506471,180.76288 L180.506471,0.948345588 L0.609522213,0.948345588 L0.609522213,180.76288 Z M0.11007544,181.260453 L181.004275,181.260453 L181.004275,0.44995098 L0.11007544,0.44995098 L0.11007544,181.260453 Z" mask="url(#bg-forms-aX)"/>
      <g transform="translate(0 150.257)">
        <mask id="bg-forms-ba" fill="#fff">
          <use xlink:href="#bg-forms-aY"/>
        </mask>
        <polygon fill="url(#bg-forms-aZ)" points=".36 .951 180.755 .951 180.755 .452 .36 .452" mask="url(#bg-forms-ba)"/>
      </g>
      <g transform="translate(0 119.877)">
        <mask id="bg-forms-bd" fill="#fff">
          <use xlink:href="#bg-forms-bb"/>
        </mask>
        <polygon fill="url(#bg-forms-bc)" points=".36 1.279 180.755 1.279 180.755 .781 .36 .781" mask="url(#bg-forms-bd)"/>
      </g>
      <g transform="translate(0 90.319)">
        <mask id="bg-forms-bg" fill="#fff">
          <use xlink:href="#bg-forms-be"/>
        </mask>
        <polygon fill="url(#bg-forms-bf)" points=".36 .785 180.755 .785 180.755 .287 .36 .287" mask="url(#bg-forms-bg)"/>
      </g>
      <g transform="translate(0 59.939)">
        <mask id="bg-forms-bj" fill="#fff">
          <use xlink:href="#bg-forms-bh"/>
        </mask>
        <polygon fill="url(#bg-forms-bi)" points=".36 1.113 180.755 1.113 180.755 .616 .36 .616" mask="url(#bg-forms-bj)"/>
      </g>
      <g transform="translate(0 30.38)">
        <mask id="bg-forms-bm" fill="#fff">
          <use xlink:href="#bg-forms-bk"/>
        </mask>
        <polygon fill="url(#bg-forms-bl)" points=".36 .621 180.755 .621 180.755 .122 .36 .122" mask="url(#bg-forms-bm)"/>
      </g>
      <g transform="translate(150.327)">
        <mask id="bg-forms-bp" fill="#fff">
          <use xlink:href="#bg-forms-bn"/>
        </mask>
        <polygon fill="url(#bg-forms-bo)" points=".113 181.011 .611 181.011 .611 .699 .113 .699" mask="url(#bg-forms-bp)"/>
      </g>
      <g transform="translate(119.933)">
        <mask id="bg-forms-bs" fill="#fff">
          <use xlink:href="#bg-forms-bq"/>
        </mask>
        <polygon fill="url(#bg-forms-br)" points=".442 181.011 .94 181.011 .94 .699 .442 .699" mask="url(#bg-forms-bs)"/>
      </g>
      <g transform="translate(89.539)">
        <mask id="bg-forms-bv" fill="#fff">
          <use xlink:href="#bg-forms-bt"/>
        </mask>
        <polygon fill="url(#bg-forms-bu)" points=".77 181.011 1.268 181.011 1.268 .699 .77 .699" mask="url(#bg-forms-bv)"/>
      </g>
      <g transform="translate(59.966)">
        <mask id="bg-forms-by" fill="#fff">
          <use xlink:href="#bg-forms-bw"/>
        </mask>
        <polygon fill="url(#bg-forms-bx)" points=".276 181.011 .775 181.011 .775 .699 .276 .699" mask="url(#bg-forms-by)"/>
      </g>
      <g transform="translate(29.573)">
        <mask id="bg-forms-bB" fill="#fff">
          <use xlink:href="#bg-forms-bz"/>
        </mask>
        <polygon fill="url(#bg-forms-bA)" points=".604 181.011 1.102 181.011 1.102 .699 .604 .699" mask="url(#bg-forms-bB)"/>
      </g>
    </g>
    <g fill="#005F89" transform="translate(202.079 90.319)">
      <polygon points=".347 .592 5.656 3.795 .347 6.856"/>
      <polygon points=".347 40.806 5.656 44.009 .347 47.07"/>
      <polygon points=".347 81.021 5.656 84.223 .347 87.284"/>
      <polygon points=".347 121.235 5.656 124.437 .347 127.498"/>
    </g>
    <g fill="#F4F4F4" transform="translate(483.84 131.373)">
      <polygon points=".17 .632 5.479 3.834 .17 6.895"/>
      <polygon points=".17 40.846 5.479 44.049 .17 47.11"/>
      <polygon points=".17 81.061 5.479 84.263 .17 87.324"/>
      <polygon points=".17 121.275 5.479 124.477 .17 127.538"/>
    </g>
    <g fill="#E50E32" transform="translate(368.835 46.801)">
      <polygon points=".209 .266 5.519 3.468 .209 6.529"/>
      <polygon points=".209 40.48 5.519 43.683 .209 46.744"/>
      <polygon points=".209 80.694 5.519 83.897 .209 86.958"/>
      <polygon points=".209 120.909 5.519 124.111 .209 127.173"/>
    </g>
    <g fill="#E50E32" transform="translate(27.108 169.142)">
      <polygon points=".303 .56 5.612 3.762 .303 6.824"/>
      <polygon points=".303 40.774 5.612 43.976 .303 47.037"/>
    </g>
    <g fill="#F4F4F4" transform="translate(683.453 127.267)">
      <polygon points=".301 20.833 5.61 24.036 .301 27.097"/>
      <polygon points=".301 61.048 5.61 64.25 .301 67.311"/>
      <polygon points="49.163 6.493 43.853 3.29 49.163 .229"/>
      <polygon points="49.163 184.083 43.853 180.881 49.163 177.819"/>
      <polygon points=".301 101.262 5.61 104.464 .301 107.525"/>
      <polygon points=".301 141.477 5.61 144.679 .301 147.74"/>
    </g>
    <polyline stroke="#F4F4F4" stroke-width=".5" points="291.674 110.205 348.315 110.205 382.591 144.465 449.009 144.465"/>
    <polyline stroke="#F4F4F4" stroke-width=".5" points="689.064 110.205 632.423 110.205 598.147 144.465 531.729 144.465"/>
    <g transform="translate(243.152 174.069)">
      <polygon fill="#F4F4F4" points=".407 39.849 39.658 39.849 39.658 .616 .407 .616"/>
      <polyline stroke="#F4F4F4" stroke-width=".75" points="6.147 .616 .406 .616 .406 6.433"/>
      <polyline stroke="#F4F4F4" stroke-width=".75" points=".367 34.072 .367 39.81 6.187 39.81"/>
      <polyline stroke="#F4F4F4" stroke-width=".75" points="33.674 39.81 39.415 39.81 39.415 33.993"/>
      <polyline stroke="#F4F4F4" stroke-width=".75" points="39.455 6.354 39.455 .616 33.635 .616"/>
    </g>
    <g transform="translate(592.272 275.061)">
      <polygon fill="#F4F4F4" points=".734 30.256 30.769 30.256 30.769 .235 .734 .235"/>
      <polyline stroke="#F4F4F4" stroke-width=".75" points="5.127 .234 .734 .234 .734 4.685"/>
      <polyline stroke="#F4F4F4" stroke-width=".75" points=".704 25.834 .704 30.226 5.158 30.226"/>
      <polyline stroke="#F4F4F4" stroke-width=".75" points="26.191 30.225 30.584 30.225 30.584 25.773"/>
      <polyline stroke="#F4F4F4" stroke-width=".75" points="30.614 4.625 30.614 .234 26.16 .234"/>
    </g>
    <polyline stroke="#F4F4F4" stroke-width=".5" points="789.34 173.771 809.528 173.771 817.072 181.311 832.569 181.311 884.176 181.311 893.07 172.42 932.747 172.42"/>
    <path stroke="#F4F4F4" d="M845 181L864 181M797 174L787 174"/>
  </g>
</svg>
