<svg xmlns="http://www.w3.org/2000/svg" xmlns:xlink="http://www.w3.org/1999/xlink" width="1439" height="900" viewBox="0 0 1439 900">
  <defs>
    <linearGradient id="bg-whitepaper-a" x1="36.123%" x2="104.292%" y1="4499.209%" y2="-17403.469%">
      <stop offset="0%" stop-color="#FFF"/>
      <stop offset="100%" stop-color="#142895"/>
    </linearGradient>
    <linearGradient id="bg-whitepaper-b" x1="27.824%" x2="95.993%" y1="7165.782%" y2="-14736.896%">
      <stop offset="0%" stop-color="#FFF"/>
      <stop offset="100%" stop-color="#142895"/>
    </linearGradient>
    <linearGradient id="bg-whitepaper-c" x1="19.525%" x2="87.694%" y1="9832.354%" y2="-12070.324%">
      <stop offset="0%" stop-color="#FFF"/>
      <stop offset="100%" stop-color="#142895"/>
    </linearGradient>
    <linearGradient id="bg-whitepaper-d" x1="11.226%" x2="79.394%" y1="12498.944%" y2="-9403.733%">
      <stop offset="0%" stop-color="#FFF"/>
      <stop offset="100%" stop-color="#142895"/>
    </linearGradient>
    <linearGradient id="bg-whitepaper-e" x1="2.926%" x2="71.095%" y1="15165.435%" y2="-6737.243%">
      <stop offset="0%" stop-color="#FFF"/>
      <stop offset="100%" stop-color="#142895"/>
    </linearGradient>
    <linearGradient id="bg-whitepaper-f" x1="-13353.896%" x2="6653.358%" y1="99.961%" y2="25.334%">
      <stop offset="0%" stop-color="#FFF"/>
      <stop offset="100%" stop-color="#142895"/>
    </linearGradient>
    <linearGradient id="bg-whitepaper-g" x1="-11128.879%" x2="8878.375%" y1="91.661%" y2="17.035%">
      <stop offset="0%" stop-color="#FFF"/>
      <stop offset="100%" stop-color="#142895"/>
    </linearGradient>
    <polygon id="bg-whitepaper-h" points="79.768 241.952 80.434 241.952 80.434 .969 79.768 .969"/>
    <linearGradient id="bg-whitepaper-i" x1="-8903.838%" x2="11103.416%" y1="83.362%" y2="8.735%">
      <stop offset="0%" stop-color="#FFF"/>
      <stop offset="100%" stop-color="#142895"/>
    </linearGradient>
    <linearGradient id="bg-whitepaper-j" x1="-6678.818%" x2="13328.436%" y1="75.063%" y2=".436%">
      <stop offset="0%" stop-color="#FFF"/>
      <stop offset="100%" stop-color="#142895"/>
    </linearGradient>
    <linearGradient id="bg-whitepaper-k" x1="-4453.802%" x2="15553.452%" y1="66.764%" y2="-7.863%">
      <stop offset="0%" stop-color="#FFF"/>
      <stop offset="100%" stop-color="#142895"/>
    </linearGradient>
    <linearGradient id="bg-whitepaper-l" x1="19.609%" x2="87.59%" y1="83.27%" y2="8.849%">
      <stop offset="0%" stop-color="#FFF"/>
      <stop offset="100%" stop-color="#142895"/>
    </linearGradient>
  </defs>
  <g fill="none" fill-rule="evenodd" transform="translate(0 36)">
    <polygon stroke="#E50E32" stroke-width="82" points="386 615.001 386 213.002 734.001 12 1082 213.002 1082 615.001 734.001 816" opacity=".044"/>
    <g transform="translate(0 479)">
      <polygon fill="url(#bg-whitepaper-a)" points=".071 41.134 241.165 41.134 241.165 40.467 .071 40.467" transform="rotate(180 120.618 40.967)"/>
      <polygon fill="url(#bg-whitepaper-b)" points=".071 81.298 241.165 81.298 241.165 80.631 .071 80.631" transform="rotate(180 120.618 81.131)"/>
      <polygon fill="url(#bg-whitepaper-c)" points=".071 121.462 241.165 121.462 241.165 120.795 .071 120.795" transform="rotate(180 120.618 121.295)"/>
      <polygon fill="url(#bg-whitepaper-d)" points=".071 161.625 241.165 161.625 241.165 160.959 .071 160.959" transform="rotate(180 120.618 161.459)"/>
      <polygon fill="url(#bg-whitepaper-e)" points=".071 201.788 241.165 201.788 241.165 201.122 .071 201.122" transform="rotate(180 120.618 201.622)"/>
      <polygon fill="url(#bg-whitepaper-f)" points="39.586 241.952 40.252 241.952 40.252 .969 39.586 .969" transform="rotate(180 40.086 121.46)"/>
      <use fill="url(#bg-whitepaper-g)" transform="rotate(180 80.268 121.46)" xlink:href="#bg-whitepaper-h"/>
      <polygon fill="url(#bg-whitepaper-i)" points="119.951 241.952 120.617 241.952 120.617 .969 119.951 .969" transform="rotate(180 120.45 121.46)"/>
      <polygon fill="url(#bg-whitepaper-j)" points="160.133 241.952 160.799 241.952 160.799 .969 160.133 .969" transform="rotate(180 160.633 121.46)"/>
      <polygon fill="url(#bg-whitepaper-k)" points="200.316 241.952 200.982 241.952 200.982 .969 200.316 .969" transform="rotate(180 200.816 121.46)"/>
      <path fill="url(#bg-whitepaper-l)" d="M0.66620285,240.982414 L241.094786,240.982414 L241.094786,0.665073529 L0.66620285,0.665073529 L0.66620285,240.982414 Z M0,241.64913 L241.760989,241.64913 L241.760989,0 L0,0 L0,241.64913 Z" transform="rotate(-180 120.88 120.825)"/>
    </g>
    <g transform="translate(241 195)">
      <path fill="url(#bg-whitepaper-l)" d="M1.168114,241.696752 L241.596697,241.696752 L241.596697,1.37941176 L1.168114,1.37941176 L1.168114,241.696752 Z M0.501911148,242.363468 L242.2629,242.363468 L242.2629,0.714338235 L0.501911148,0.714338235 L0.501911148,242.363468 Z"/>
      <polygon fill="url(#bg-whitepaper-a)" points=".835 202.2 241.929 202.2 241.929 201.533 .835 201.533"/>
      <polygon fill="url(#bg-whitepaper-b)" points=".835 162.036 241.929 162.036 241.929 161.369 .835 161.369"/>
      <polygon fill="url(#bg-whitepaper-c)" points=".835 121.872 241.929 121.872 241.929 121.205 .835 121.205"/>
      <polygon fill="url(#bg-whitepaper-d)" points=".835 81.708 241.929 81.708 241.929 81.041 .835 81.041"/>
      <polygon fill="url(#bg-whitepaper-e)" points=".835 41.544 241.929 41.544 241.929 40.878 .835 40.878"/>
      <polygon fill="url(#bg-whitepaper-f)" points="201.414 242.031 202.08 242.031 202.08 1.048 201.414 1.048"/>
      <polygon fill="url(#bg-whitepaper-g)" points="161.232 242.031 161.898 242.031 161.898 1.048 161.232 1.048"/>
      <polygon fill="url(#bg-whitepaper-i)" points="121.049 242.031 121.716 242.031 121.716 1.048 121.049 1.048"/>
      <polygon fill="url(#bg-whitepaper-j)" points="80.867 242.031 81.533 242.031 81.533 1.048 80.867 1.048"/>
      <polygon fill="url(#bg-whitepaper-k)" points="40.684 242.031 41.351 242.031 41.351 1.048 40.684 1.048"/>
    </g>
    <g transform="translate(1221 481)">
      <polygon fill="#152896" points=".619 34.415 35.037 34.415 35.037 .013 .619 .013" opacity=".199"/>
      <path fill="#E50E32" fill-rule="nonzero" d="M20.8076262,20.482215 L3.64596356,37.6363394 L2.93901213,36.9290773 L20.100364,19.7752635 L2.93901213,2.62144968 L3.64596356,1.91418758 L20.8076262,19.068312 L37.9692887,1.91418758 L38.6762402,2.62144968 L21.5148883,19.7752635 L38.6762402,36.9290773 L37.9692887,37.6363394 L20.8076262,20.482215 Z"/>
    </g>
    <g transform="translate(400 414)">
      <polygon fill="#E50E32" points="0 23 23 23 23 0 0 0" opacity=".505"/>
      <path fill="#152896" fill-rule="nonzero" d="M13.5,13.2071068 L2.35355339,24.3535534 L1.64644661,23.6464466 L12.7928932,12.5 L1.64644661,1.35355339 L2.35355339,0.646446609 L13.5,11.7928932 L24.6464466,0.646446609 L25.3535534,1.35355339 L14.2071068,12.5 L25.3535534,23.6464466 L24.6464466,24.3535534 L13.5,13.2071068 Z"/>
    </g>
    <g transform="translate(263 351)">
      <polygon fill="#E50E32" points="0 23 23 23 23 0 0 0" opacity=".505"/>
      <path fill="#152896" fill-rule="nonzero" d="M13.5,13.2071068 L2.35355339,24.3535534 L1.64644661,23.6464466 L12.7928932,12.5 L1.64644661,1.35355339 L2.35355339,0.646446609 L13.5,11.7928932 L24.6464466,0.646446609 L25.3535534,1.35355339 L14.2071068,12.5 L25.3535534,23.6464466 L24.6464466,24.3535534 L13.5,13.2071068 Z"/>
    </g>
    <g transform="translate(354 291)">
      <polygon fill="#E50E32" points="0 41.898 41.898 41.898 41.898 0 0 0" opacity=".505"/>
      <path fill="#152896" fill-rule="nonzero" d="M24.5758,24.7753068 L3.60735339,45.7437534 L2.90024661,45.0366466 L23.8686932,24.0682 L2.90024661,3.09975339 L3.60735339,2.39264661 L24.5758,23.3610932 L45.5442466,2.39264661 L46.2513534,3.09975339 L25.2829068,24.0682 L46.2513534,45.0366466 L45.5442466,45.7437534 L24.5758,24.7753068 Z"/>
    </g>
    <g transform="translate(222 222)">
      <polygon fill="#152896" points=".619 34.415 35.037 34.415 35.037 .013 .619 .013" opacity=".199"/>
      <path fill="#E50E32" fill-rule="nonzero" d="M20.8076262,20.482215 L3.64596356,37.6363394 L2.93901213,36.9290773 L20.100364,19.7752635 L2.93901213,2.62144968 L3.64596356,1.91418758 L20.8076262,19.068312 L37.9692887,1.91418758 L38.6762402,2.62144968 L21.5148883,19.7752635 L38.6762402,36.9290773 L37.9692887,37.6363394 L20.8076262,20.482215 Z"/>
    </g>
    <g transform="translate(459 351)">
      <polygon fill="#E50E32" points="0 23 23 23 23 0 0 0" opacity=".505"/>
      <path fill="#152896" fill-rule="nonzero" d="M13.5,13.2071068 L2.35355339,24.3535534 L1.64644661,23.6464466 L12.7928932,12.5 L1.64644661,1.35355339 L2.35355339,0.646446609 L13.5,11.7928932 L24.6464466,0.646446609 L25.3535534,1.35355339 L14.2071068,12.5 L25.3535534,23.6464466 L24.6464466,24.3535534 L13.5,13.2071068 Z"/>
    </g>
    <g transform="translate(269 492)">
      <polygon fill="#152896" points=".619 34.415 35.037 34.415 35.037 .013 .619 .013" opacity=".199"/>
      <path fill="#E50E32" fill-rule="nonzero" d="M20.8076262,20.482215 L3.64596356,37.6363394 L2.93901213,36.9290773 L20.100364,19.7752635 L2.93901213,2.62144968 L3.64596356,1.91418758 L20.8076262,19.068312 L37.9692887,1.91418758 L38.6762402,2.62144968 L21.5148883,19.7752635 L38.6762402,36.9290773 L37.9692887,37.6363394 L20.8076262,20.482215 Z"/>
    </g>
    <g transform="translate(1223 327)">
      <polygon fill="#E50E32" points="0 23 23 23 23 0 0 0" opacity=".505"/>
      <path fill="#152896" fill-rule="nonzero" d="M13.5,13.2071068 L2.35355339,24.3535534 L1.64644661,23.6464466 L12.7928932,12.5 L1.64644661,1.35355339 L2.35355339,0.646446609 L13.5,11.7928932 L24.6464466,0.646446609 L25.3535534,1.35355339 L14.2071068,12.5 L25.3535534,23.6464466 L24.6464466,24.3535534 L13.5,13.2071068 Z"/>
    </g>
    <g transform="translate(1196)">
      <path fill="url(#bg-whitepaper-l)" d="M1.168114,241.696752 L241.596697,241.696752 L241.596697,1.37941176 L1.168114,1.37941176 L1.168114,241.696752 Z M0.501911148,242.363468 L242.2629,242.363468 L242.2629,0.714338235 L0.501911148,0.714338235 L0.501911148,242.363468 Z"/>
      <polygon fill="url(#bg-whitepaper-a)" points=".835 202.2 241.929 202.2 241.929 201.533 .835 201.533"/>
      <polygon fill="url(#bg-whitepaper-b)" points=".835 162.036 241.929 162.036 241.929 161.369 .835 161.369"/>
      <polygon fill="url(#bg-whitepaper-c)" points=".835 121.872 241.929 121.872 241.929 121.205 .835 121.205"/>
      <polygon fill="url(#bg-whitepaper-d)" points=".835 81.708 241.929 81.708 241.929 81.041 .835 81.041"/>
      <polygon fill="url(#bg-whitepaper-e)" points=".835 41.544 241.929 41.544 241.929 40.878 .835 40.878"/>
      <polygon fill="url(#bg-whitepaper-f)" points="201.414 242.031 202.08 242.031 202.08 1.048 201.414 1.048"/>
      <polygon fill="url(#bg-whitepaper-g)" points="161.232 242.031 161.898 242.031 161.898 1.048 161.232 1.048"/>
      <polygon fill="url(#bg-whitepaper-i)" points="121.049 242.031 121.716 242.031 121.716 1.048 121.049 1.048"/>
      <polygon fill="url(#bg-whitepaper-j)" points="80.867 242.031 81.533 242.031 81.533 1.048 80.867 1.048"/>
      <polygon fill="url(#bg-whitepaper-k)" points="40.684 242.031 41.351 242.031 41.351 1.048 40.684 1.048"/>
    </g>
    <g opacity=".505" transform="rotate(180 630 295.5)">
      <path fill="url(#bg-whitepaper-l)" d="M1.168114,241.696752 L241.596697,241.696752 L241.596697,1.37941176 L1.168114,1.37941176 L1.168114,241.696752 Z M0.501911148,242.363468 L242.2629,242.363468 L242.2629,0.714338235 L0.501911148,0.714338235 L0.501911148,242.363468 Z"/>
      <polygon fill="url(#bg-whitepaper-a)" points=".835 202.2 241.929 202.2 241.929 201.533 .835 201.533"/>
      <polygon fill="url(#bg-whitepaper-b)" points=".835 162.036 241.929 162.036 241.929 161.369 .835 161.369"/>
      <polygon fill="url(#bg-whitepaper-c)" points=".835 121.872 241.929 121.872 241.929 121.205 .835 121.205"/>
      <polygon fill="url(#bg-whitepaper-d)" points=".835 81.708 241.929 81.708 241.929 81.041 .835 81.041"/>
      <polygon fill="url(#bg-whitepaper-e)" points=".835 41.544 241.929 41.544 241.929 40.878 .835 40.878"/>
      <polygon fill="url(#bg-whitepaper-f)" points="201.414 242.031 202.08 242.031 202.08 1.048 201.414 1.048"/>
      <polygon fill="url(#bg-whitepaper-g)" points="161.232 242.031 161.898 242.031 161.898 1.048 161.232 1.048"/>
      <polygon fill="url(#bg-whitepaper-i)" points="121.049 242.031 121.716 242.031 121.716 1.048 121.049 1.048"/>
      <polygon fill="url(#bg-whitepaper-j)" points="80.867 242.031 81.533 242.031 81.533 1.048 80.867 1.048"/>
      <polygon fill="url(#bg-whitepaper-k)" points="40.684 242.031 41.351 242.031 41.351 1.048 40.684 1.048"/>
    </g>
    <g transform="translate(1129 414)">
      <polygon fill="#E50E32" points="0 23 23 23 23 0 0 0" opacity=".505"/>
      <path stroke="#152896" d="M13.5,13.2071068 L2.35355339,24.3535534 L1.64644661,23.6464466 L12.7928932,12.5 L1.64644661,1.35355339 L2.35355339,0.646446609 L13.5,11.7928932 L24.6464466,0.646446609 L25.3535534,1.35355339 L14.2071068,12.5 L25.3535534,23.6464466 L24.6464466,24.3535534 L13.5,13.2071068 Z"/>
    </g>
    <g transform="translate(1017 336)">
      <polygon fill="#E50E32" points="0 23 23 23 23 0 0 0" opacity=".505"/>
      <path fill="#152896" fill-rule="nonzero" d="M13.5,13.2071068 L2.35355339,24.3535534 L1.64644661,23.6464466 L12.7928932,12.5 L1.64644661,1.35355339 L2.35355339,0.646446609 L13.5,11.7928932 L24.6464466,0.646446609 L25.3535534,1.35355339 L14.2071068,12.5 L25.3535534,23.6464466 L24.6464466,24.3535534 L13.5,13.2071068 Z"/>
    </g>
    <g transform="translate(1104 314)">
      <polygon fill="#E50E32" points="0 41.898 41.898 41.898 41.898 0 0 0" opacity=".505"/>
      <path stroke="#152896" d="M24.5758,24.7753068 L3.60735339,45.7437534 L2.90024661,45.0366466 L23.8686932,24.0682 L2.90024661,3.09975339 L3.60735339,2.39264661 L24.5758,23.3610932 L45.5442466,2.39264661 L46.2513534,3.09975339 L25.2829068,24.0682 L46.2513534,45.0366466 L45.5442466,45.7437534 L24.5758,24.7753068 Z"/>
    </g>
    <g transform="translate(1139 222)">
      <polygon fill="#152896" points=".619 34.415 35.037 34.415 35.037 .013 .619 .013" opacity=".199"/>
      <path fill="#E50E32" fill-rule="nonzero" d="M20.8076262,20.482215 L3.64596356,37.6363394 L2.93901213,36.9290773 L20.100364,19.7752635 L2.93901213,2.62144968 L3.64596356,1.91418758 L20.8076262,19.068312 L37.9692887,1.91418758 L38.6762402,2.62144968 L21.5148883,19.7752635 L38.6762402,36.9290773 L37.9692887,37.6363394 L20.8076262,20.482215 Z"/>
    </g>
    <g transform="translate(1017 500)">
      <polygon fill="#152896" points=".619 34.415 35.037 34.415 35.037 .013 .619 .013" opacity=".199"/>
      <path stroke="#E50E32" d="M20.8076262,20.482215 L3.64596356,37.6363394 L2.93901213,36.9290773 L20.100364,19.7752635 L2.93901213,2.62144968 L3.64596356,1.91418758 L20.8076262,19.068312 L37.9692887,1.91418758 L38.6762402,2.62144968 L21.5148883,19.7752635 L38.6762402,36.9290773 L37.9692887,37.6363394 L20.8076262,20.482215 Z"/>
    </g>
  </g>
</svg>
