<svg xmlns="http://www.w3.org/2000/svg" width="476" height="476" viewBox="0 0 476 476">
  <g fill="none" fill-rule="evenodd">
    <path fill="#000" fill-rule="nonzero" d="M405.6,69.6 C360.7,24.7 301.1,0 237.6,0 C174.1,0 114.5,24.7 69.6,69.6 C24.7,114.5 0,174.1 0,237.6 C0,301.1 24.7,360.7 69.6,405.6 C114.5,450.5 174.1,475.2 237.6,475.2 C301.1,475.2 360.7,450.5 405.6,405.6 C450.5,360.7 475.2,301.1 475.2,237.6 C475.2,174.1 450.5,114.5 405.6,69.6 Z"/>
    <path fill="#FFF" d="M342.3,132.9 C337,127.6 328.5,127.6 323.2,132.9 L237.6,218.5 L152,132.9 C146.7,127.6 138.2,127.6 132.9,132.9 C127.6,138.2 127.6,146.7 132.9,152 L218.5,237.6 L132.9,323.2 C127.6,328.5 127.6,337 132.9,342.3 C135.5,344.9 139,346.3 142.4,346.3 C145.8,346.3 149.3,345 151.9,342.3 L237.5,256.7 L323.1,342.3 C325.7,344.9 329.2,346.3 332.6,346.3 C336.1,346.3 339.5,345 342.1,342.3 C347.4,337 347.4,328.5 342.1,323.2 L256.7,237.6 L342.3,152 C347.6,146.7 347.6,138.2 342.3,132.9 Z"/>
  </g>
</svg>
