<svg xmlns="http://www.w3.org/2000/svg" width="24" height="24" viewBox="0 0 24 24">
  <g fill="none" fill-rule="evenodd">
    <path fill="#E50E32" d="M24,12.0001475 C24,18.6273368 18.6272707,24 12,24 C5.37272928,24 0,18.6273368 0,12.0001475 C0,5.37266325 5.37272928,0 12,0 C18.6272707,0 24,5.37266325 24,12.0001475"/>
    <path fill="#EFEBE3" d="M6,18 L6,10 L9,10 L9,18 L6,18 Z M7.49985713,9 C6.67149252,9 6,8.32794785 6,7.49971655 C6,6.67148526 6.67149252,6 7.49985713,6 C8.32850748,6 9,6.67148526 9,7.49971655 C9,8.32794785 8.32850748,9 7.49985713,9 Z M12.4688531,13.4153471 L12.4688531,18 L10,18 L10,9.26644336 L12.4688531,9.26644336 L12.4688531,10.4427527 C12.4688531,10.4427527 13.2113064,9 14.9748143,9 C16.7377423,9 18,10.1309379 18,12.4701583 L18,18 L15.4380866,18 L15.4380866,13.4153471 C15.4380866,12.158039 14.9835115,11.456151 14.0372531,11.456151 C13.0069215,11.456151 12.4688531,12.1875761 12.4688531,13.4153471 Z"/>
  </g>
</svg>
