<svg xmlns="http://www.w3.org/2000/svg" width="47" height="96" viewBox="0 0 47 96">
  <g fill="none" fill-rule="evenodd">
    <g transform="translate(0 49)">
      <polygon fill="#E50E32" points="0 42 42 42 42 0 0 0" opacity=".505"/>
      <path stroke="#F4F4F4" d="M24.5,25.2071068 L3.35355339,46.3535534 L2.64644661,45.6464466 L23.7928932,24.5 L2.64644661,3.35355339 L3.35355339,2.64644661 L24.5,23.7928932 L45.6464466,2.64644661 L46.3535534,3.35355339 L25.2071068,24.5 L46.3535534,45.6464466 L45.6464466,46.3535534 L24.5,25.2071068 Z"/>
    </g>
    <path fill="#F4F4F4" fill-rule="nonzero" d="M25,1.5 L25,0.5 L26,0.5 L26,1.5 L25,1.5 Z M27,1.5 L27,0.5 L28,0.5 L28,1.5 L27,1.5 Z M29,1.5 L29,0.5 L30,0.5 L30,1.5 L29,1.5 Z M31,1.5 L31,0.5 L32,0.5 L32,1.5 L31,1.5 Z M33,1.5 L33,0.5 L34,0.5 L34,1.5 L33,1.5 Z M35,1.5 L35,0.5 L36,0.5 L36,1.5 L35,1.5 Z M37,1.5 L37,0.5 L38,0.5 L38,1.5 L37,1.5 Z M39,1.5 L39,0.5 L40,0.5 L40,1.5 L39,1.5 Z M41,1.5 L41,0.5 L42,0.5 L42,1.5 L41,1.5 Z M43,1.5 L43,0.5 L44,0.5 L44,1.5 L43,1.5 Z M25,10.5 L25,9.5 L26,9.5 L26,10.5 L25,10.5 Z M27,10.5 L27,9.5 L28,9.5 L28,10.5 L27,10.5 Z M29,10.5 L29,9.5 L30,9.5 L30,10.5 L29,10.5 Z M31,10.5 L31,9.5 L32,9.5 L32,10.5 L31,10.5 Z M33,10.5 L33,9.5 L34,9.5 L34,10.5 L33,10.5 Z M35,10.5 L35,9.5 L36,9.5 L36,10.5 L35,10.5 Z M37,10.5 L37,9.5 L38,9.5 L38,10.5 L37,10.5 Z M39,10.5 L39,9.5 L40,9.5 L40,10.5 L39,10.5 Z M41,10.5 L41,9.5 L42,9.5 L42,10.5 L41,10.5 Z M43,10.5 L43,9.5 L44,9.5 L44,10.5 L43,10.5 Z M25,18.5 L25,17.5 L26,17.5 L26,18.5 L25,18.5 Z M27,18.5 L27,17.5 L28,17.5 L28,18.5 L27,18.5 Z M29,18.5 L29,17.5 L30,17.5 L30,18.5 L29,18.5 Z M31,18.5 L31,17.5 L32,17.5 L32,18.5 L31,18.5 Z M33,18.5 L33,17.5 L34,17.5 L34,18.5 L33,18.5 Z M35,18.5 L35,17.5 L36,17.5 L36,18.5 L35,18.5 Z M37,18.5 L37,17.5 L38,17.5 L38,18.5 L37,18.5 Z M39,18.5 L39,17.5 L40,17.5 L40,18.5 L39,18.5 Z M41,18.5 L41,17.5 L42,17.5 L42,18.5 L41,18.5 Z M43,18.5 L43,17.5 L44,17.5 L44,18.5 L43,18.5 Z M25,26.5 L25,25.5 L26,25.5 L26,26.5 L25,26.5 Z M27,26.5 L27,25.5 L28,25.5 L28,26.5 L27,26.5 Z M29,26.5 L29,25.5 L30,25.5 L30,26.5 L29,26.5 Z M31,26.5 L31,25.5 L32,25.5 L32,26.5 L31,26.5 Z M33,26.5 L33,25.5 L34,25.5 L34,26.5 L33,26.5 Z M35,26.5 L35,25.5 L36,25.5 L36,26.5 L35,26.5 Z M37,26.5 L37,25.5 L38,25.5 L38,26.5 L37,26.5 Z M39,26.5 L39,25.5 L40,25.5 L40,26.5 L39,26.5 Z M41,26.5 L41,25.5 L42,25.5 L42,26.5 L41,26.5 Z M43,26.5 L43,25.5 L44,25.5 L44,26.5 L43,26.5 Z M25,35.5 L25,34.5 L26,34.5 L26,35.5 L25,35.5 Z M27,35.5 L27,34.5 L28,34.5 L28,35.5 L27,35.5 Z M29,35.5 L29,34.5 L30,34.5 L30,35.5 L29,35.5 Z M31,35.5 L31,34.5 L32,34.5 L32,35.5 L31,35.5 Z M33,35.5 L33,34.5 L34,34.5 L34,35.5 L33,35.5 Z M35,35.5 L35,34.5 L36,34.5 L36,35.5 L35,35.5 Z M37,35.5 L37,34.5 L38,34.5 L38,35.5 L37,35.5 Z M39,35.5 L39,34.5 L40,34.5 L40,35.5 L39,35.5 Z M41,35.5 L41,34.5 L42,34.5 L42,35.5 L41,35.5 Z M43,35.5 L43,34.5 L44,34.5 L44,35.5 L43,35.5 Z"/>
  </g>
</svg>
