<svg xmlns="http://www.w3.org/2000/svg" width="24" height="24" viewBox="0 0 24 24">
  <g fill="none" fill-rule="evenodd">
    <path fill="#E50E32" d="M24,12 C24,18.6272707 18.6272707,24 11.999705,24 C5.37243431,24 0,18.6272707 0,12 C0,5.37243431 5.37243431,0 11.999705,0 C18.6272707,0 24,5.37243431 24,12"/>
    <path fill="#EFEBE3" d="M5,15.8656186 C6.27105666,16.5819425 7.78101072,17 9.40275651,17 C14.7353752,17 17.7482389,13.0412404 17.5666156,9.49030903 C18.1277182,9.13497362 18.6150077,8.69026596 19,8.18337461 C18.4845329,8.38419296 17.9310873,8.52013567 17.3503828,8.58070421 C17.9430322,8.26897814 18.3984686,7.7742005 18.6128637,7.18412835 C18.058193,7.47378055 17.4431853,7.68375148 16.7892802,7.79735114 C16.2652374,7.30661139 15.5191424,7 14.6924962,7 C12.8388974,7 11.4762634,8.52067406 11.8949464,10.0997631 C9.50781011,9.99450845 7.3914242,8.98960913 5.97488515,7.46193604 C5.22235835,8.59685582 5.58437979,10.081458 6.86370597,10.8325078 C6.39295559,10.8195865 5.94946401,10.7057177 5.56232772,10.5164746 C5.53139357,11.6863896 6.4848392,12.7801228 7.8661562,13.0240121 C7.46156202,13.1209217 7.01898928,13.1427264 6.56937213,13.067083 C6.93415008,14.0706364 7.99509954,14.7998816 9.25237366,14.8203403 C8.04471669,15.6524174 6.52404288,16.0239044 5,15.8656186"/>
  </g>
</svg>
