<svg xmlns="http://www.w3.org/2000/svg" width="415" height="35" viewBox="0 0 415 35">
  <g fill="none" fill-rule="evenodd">
    <path fill="#E50E32" d="M13.34916,27.81242 L13.34916,24.99002 L16.94376,24.99002 L16.94376,27.81242 C16.94376,30.10562 16.23996,31.87682 14.83776,33.12602 C13.43376,34.37522 11.32956,34.99982 8.52336,34.99982 C5.71536,34.99982 3.59496,34.37522 2.15676,33.12602 C0.71856,31.87682 0.00036,30.10562 0.00036,27.81242 L0.00036,7.27622 C0.00036,4.98302 0.70236,3.21182 2.10456,1.96262 C3.50856,0.71342 5.61276,0.08882 8.42076,0.08882 C11.22696,0.08882 13.34916,0.71342 14.78556,1.96262 C16.22376,3.21182 16.94376,4.98302 16.94376,7.27622 L16.94376,12.15422 L13.34916,12.15422 L13.34916,7.27622 C13.34916,4.53842 11.72376,3.17042 8.47116,3.17042 C5.21856,3.17042 3.59496,4.53842 3.59496,7.27622 L3.59496,27.81242 C3.59496,30.55022 5.21856,31.92002 8.47116,31.92002 C11.72376,31.92002 13.34916,30.55022 13.34916,27.81242"/>
    <path fill="#FFF" d="M67.2995772,35 L63.7985975,35 L63.7985975,25.375836 C59.2650304,24.8531823 57,22.4471413 57,18.1577131 L57,1 L60.4992266,1 L60.4992266,18.1577131 C60.4992266,20.9470334 62.1664432,22.3426106 65.4991234,22.3426106 C68.8335568,22.3426106 70.5007734,20.9470334 70.5007734,18.1577131 L70.5007734,1 L74,1 L74,18.1577131 C74,22.4471413 71.7665257,24.8531823 67.2995772,25.375836 L67.2995772,35 Z"/>
    <polygon fill="#FFF" points="131 1 131 4.138 124.303 4.138 124.303 35 120.697 35 120.697 4.138 114 4.138 114 1"/>
    <path fill="#FFF" d="M156.248,27.81242 L156.248,7.27622 C156.248,4.53842 154.518909,3.17042 151.062545,3.17042 C147.604364,3.17042 145.875273,4.53842 145.875273,7.27622 L145.875273,27.81242 C145.875273,30.55022 147.604364,31.92002 151.062545,31.92002 C154.518909,31.92002 156.248,30.55022 156.248,27.81242 M159.878909,7.27622 L159.878909,27.81242 C159.878909,30.10562 159.142545,31.87682 157.673455,33.12602 C156.204364,34.37522 154.009818,34.99982 151.088,34.99982 C148.166182,34.99982 145.962545,34.37522 144.475273,33.12602 C142.989818,31.87682 142.246182,30.10562 142.246182,27.81242 L142.246182,7.27622 C142.246182,4.98302 142.980727,3.21182 144.449818,1.96262 C145.918909,0.71342 148.113455,0.08882 151.035273,0.08882 C153.957091,0.08882 156.160727,0.71342 157.648,1.96262 C159.133455,3.21182 159.878909,4.98302 159.878909,7.27622"/>
    <path fill="#E50E32" d="M188.399636,27.81242 C188.399636,32.60582 185.477818,34.99982 179.636,34.99982 C173.792364,34.99982 170.870545,32.60582 170.870545,27.81242 L170.870545,23.44922 L174.501455,23.44922 L174.501455,28.01762 C174.501455,29.25062 174.934182,30.21002 175.796,30.89222 C176.661455,31.57802 177.941455,31.92002 179.636,31.92002 C181.328727,31.92002 182.606909,31.57802 183.472364,30.89222 C184.337818,30.21002 184.768727,29.27582 184.768727,28.09502 C184.768727,26.91422 184.639636,25.97282 184.379636,25.27082 C184.119636,24.57062 183.592364,23.82542 182.797818,23.03882 L173.670545,14.20802 C172.599636,13.14782 171.865091,12.11102 171.466909,11.10122 C171.070545,10.09142 170.870545,8.81702 170.870545,7.27622 C170.870545,4.98302 171.588727,3.21182 173.023273,1.96262 C174.457818,0.71342 176.626909,0.08882 179.530545,0.08882 C185.097818,0.08882 187.881455,2.48462 187.881455,7.27622 L187.881455,11.64122 L184.250545,11.64122 L184.250545,7.07102 C184.250545,5.83802 183.843273,4.88042 183.032364,4.19642 C182.219636,3.51242 181.001455,3.17042 179.376,3.17042 C177.750545,3.17042 176.532364,3.51242 175.719636,4.19642 C174.906909,4.88042 174.501455,5.82182 174.501455,7.02062 C174.501455,8.21762 174.621455,9.15902 174.865091,9.84302 C175.105091,10.52882 175.641455,11.24702 176.470545,11.99942 L185.754182,20.83022 C186.757818,21.92642 187.448727,22.97762 187.828727,23.98742 C188.208727,24.99902 188.399636,26.27342 188.399636,27.81242"/>
    <path fill="#FFF" d="M236.499077 1C234.88426 1 233.483522 2.11132686 233.12734 3.67745415L226 35C228.15555 35 230.021355 33.516397 230.497495 31.427616L231.471922 27.1528587 232.156604 24.0151025 236.47324 5.08036677 240.789876 24.0151025 241.528078 27.1528587 242.502505 31.427616C242.978645 33.516397 244.846296 35 247 35L239.87266 3.67745415C239.516478 2.11132686 238.11574 1 236.499077 1M269.100545 27.81242L269.100545 24.99002 272.731455 24.99002 272.731455 27.81242C272.731455 30.10562 272.020545 31.87682 270.604182 33.12602 269.187818 34.37522 267.060545 34.99982 264.226 34.99982 261.391455 34.99982 259.247818 34.37522 257.795091 33.12602 256.342364 31.87682 255.616909 30.10562 255.616909 27.81242L255.616909 7.27622C255.616909 4.98302 256.326 3.21182 257.744182 1.96262 259.160545.71342 261.286.08882 264.122364.08882 266.956909.08882 269.100545.71342 270.553273 1.96262 272.006 3.21182 272.731455 4.98302 272.731455 7.27622L272.731455 12.15422 269.100545 12.15422 269.100545 7.27622C269.100545 4.53842 267.458727 3.17042 264.173273 3.17042 260.887818 3.17042 259.247818 4.53842 259.247818 7.27622L259.247818 27.81242C259.247818 30.55022 260.887818 31.92002 264.173273 31.92002 267.458727 31.92002 269.100545 30.55022 269.100545 27.81242"/>
    <path fill="#E50E32" d="M329.90442,27.81242 C329.90442,32.60582 327.01362,34.99982 321.22842,34.99982 C315.44322,34.99982 312.55062,32.60582 312.55062,27.81242 L312.55062,23.44922 L316.14522,23.44922 L316.14522,28.01762 C316.14522,29.25062 316.57362,30.21002 317.42862,30.89222 C318.28362,31.57802 319.55082,31.92002 321.22842,31.92002 C322.90422,31.92002 324.17142,31.57802 325.02822,30.89222 C325.88322,30.21002 326.31162,29.27582 326.31162,28.09502 C326.31162,26.91422 326.18382,25.97282 325.92642,25.27082 C325.66902,24.57062 325.14702,23.82542 324.36042,23.03882 L315.32262,14.20802 C314.26422,13.14782 313.53522,12.11102 313.14102,11.10122 C312.74862,10.09142 312.55062,8.81702 312.55062,7.27622 C312.55062,4.98302 313.26162,3.21182 314.68182,1.96262 C316.10202,0.71342 318.24942,0.08882 321.12582,0.08882 C326.63742,0.08882 329.39142,2.48462 329.39142,7.27622 L329.39142,11.64122 L325.79862,11.64122 L325.79862,7.07102 C325.79862,5.83802 325.39542,4.88042 324.59082,4.19642 C323.78802,3.51242 322.58022,3.17042 320.97102,3.17042 C319.36362,3.17042 318.15582,3.51242 317.35122,4.19642 C316.54662,4.88042 316.14522,5.82182 316.14522,7.02062 C316.14522,8.21762 316.26582,9.15902 316.50522,9.84302 C316.74282,10.52882 317.27382,11.24702 318.09642,11.99942 L327.28722,20.83022 C328.27902,21.92642 328.96302,22.97762 329.34102,23.98742 C329.71722,24.99902 329.90442,26.27342 329.90442,27.81242"/>
    <polygon fill="#FFF" points="344.53 35 341 35 341 1 344.53 1 344.53 16.17 354.468 16.17 354.468 1 358 1 358 35 354.468 35 354.468 19.308 344.53 19.308"/>
    <polygon fill="#FFF" points="376 35 380 35 380 1 376 1"/>
    <path fill="#FFF" d="M412.909975 2.93484007C411.516625 1.64555801 409.479077 1 406.793712 1L399 1 399 4.13792545 402.613662 4.13792545 406.793712 4.13792545C408.27211 4.13792545 409.408505 4.50471978 410.201086 5.23647446 410.990048 5.96822914 411.388147 6.99708722 411.388147 8.32304871L411.388147 17.2159771C411.388147 20.005448 409.857272 21.3992664 406.793712 21.3992664L402.613662 21.3992664 399 21.3992664 399 35 402.613662 35 402.613662 24.5390258 406.793712 24.5390258C409.511649 24.5390258 411.560054 23.9026377 412.937118 22.6298614 414.310563 21.3570851 415 19.552457 415 17.2159771L415 8.32304871C415 6.02141432 414.305135 4.22595609 412.909975 2.93484007M39.5829268 22.4464642C42.6432927 21.4707913 44.1743902 19.2021684 44.1743902 15.6460974L44.1743902 8.32304871C44.1743902 6.02141432 43.470122 4.22595609 42.0615854 2.93484007 40.6530488 1.64555801 38.5914634 1 35.8786585 1L28 1 28 4.12508765 31.9731707 4.12508765 31.9731707 4.13792545 35.8786585 4.13792545C37.3731707 4.13792545 38.5219512 4.50471978 39.3213415 5.23647446 40.122561 5.96822914 40.5231707 6.99708722 40.5231707 8.32304871L40.5231707 15.6460974C40.5231707 18.4355683 38.9737805 19.8312207 35.8786585 19.8312207L31.9731707 19.8312207 31.9731707 22.9691461 35.8786585 22.9691461 41.9829268 35 46 35 39.5829268 22.4464642z"/>
    <polygon fill="#FFF" points="288.683 4 289.901 4 300 4 300 1 285 1 285 4"/>
    <polygon fill="#FFF" points="294.179 31 294.179 31.012 285 31.012 285 34 300 34 300 31"/>
    <polygon fill="#FFF" points="298 19 298 16 289.941 16 288.713 16 285 16 285 19 288.713 19 294.579 19"/>
    <path fill="#FFF" d="M99.9099751 2.93484007C98.5166252 1.64555801 96.4772676 1 93.7937118 1L86 1 86 4.13792545 89.6136621 4.13792545 93.7937118 4.13792545C95.2721104 4.13792545 96.4085049 4.50471978 97.1992762 5.23647446 97.9900475 5.96822914 98.3881475 6.99708722 98.3881475 8.32304871L98.3881475 17.2159771C98.3881475 20.005448 96.8554626 21.3992664 93.7937118 21.3992664L89.6136621 21.3992664 86 21.3992664 86 35 89.6136621 35 89.6136621 24.5390258 93.7937118 24.5390258C96.5116489 24.5390258 98.5582447 23.9026377 99.9353088 22.6298614 101.310563 21.3570851 102 19.552457 102 17.2159771L102 8.32304871C102 6.02141432 101.303325 4.22595609 99.9099751 2.93484007M213.909975 2.93484007C212.516625 1.64555801 210.479077 1 207.793712 1L200 1 200 4.13792545 203.613662 4.13792545 207.793712 4.13792545C209.27211 4.13792545 210.408505 4.50471978 211.201086 5.23647446 211.990048 5.96822914 212.388147 6.99708722 212.388147 8.32304871L212.388147 17.2159771C212.388147 20.005448 210.857272 21.3992664 207.793712 21.3992664L203.613662 21.3992664 200 21.3992664 200 35 203.613662 35 203.613662 24.5390258 207.793712 24.5390258C210.511649 24.5390258 212.560054 23.9026377 213.937118 22.6298614 215.310563 21.3570851 216 19.552457 216 17.2159771L216 8.32304871C216 6.02141432 215.305135 4.22595609 213.909975 2.93484007"/>
  </g>
</svg>
