<svg xmlns="http://www.w3.org/2000/svg" width="21" height="21" viewBox="0 0 21 21">
  <g fill="none">
    <circle cx="10.5" cy="10.5" r="10.5" fill="#C5EBFF"/>
    <path fill="#040036" d="M13.8721766,9.68694902 C14.3126896,8.97460538 15.1009198,8.5 16,8.5 C17.3807119,8.5 18.5,9.61928813 18.5,11 C18.5,12.3807119 17.3807119,13.5 16,13.5 C15.3338848,13.5 14.7286163,13.2394839 14.2805238,12.8147809 L11.4523355,14.5116939 C11.4836049,14.6696194 11.5,14.8328951 11.5,15 C11.5,16.3807119 10.3807119,17.5 9,17.5 C7.61928813,17.5 6.5,16.3807119 6.5,15 C6.5,13.6192881 7.61928813,12.5 9,12.5 C9.85397024,12.5 10.6079349,12.9281749 11.0589212,13.5815521 L13.7052924,11.9937294 C13.5732147,11.6891543 13.5,11.3531272 13.5,11 C13.5,10.8733259 13.5094213,10.7488523 13.5276015,10.6272416 L9.2145741,8.77880127 C8.73450972,9.79607546 7.69946005,10.5 6.5,10.5 C4.84314575,10.5 3.5,9.15685425 3.5,7.5 C3.5,5.84314575 4.84314575,4.5 6.5,4.5 C8.15685425,4.5 9.5,5.84314575 9.5,7.5 C9.5,7.60348402 9.49476036,7.70574425 9.48453192,7.80652988 L13.8721766,9.68694902 Z"/>
  </g>
</svg>
