<svg xmlns="http://www.w3.org/2000/svg" width="49" height="76" viewBox="0 0 49 76">
  <defs>
    <filter id="medalla-a" width="134.1%" height="120.6%" x="-17.1%" y="-7.4%" filterUnits="objectBoundingBox">
      <feOffset dy="2" in="SourceAlpha" result="shadowOffsetOuter1"/>
      <feGaussianBlur in="shadowOffsetOuter1" result="shadowBlurOuter1" stdDeviation="2"/>
      <feColorMatrix in="shadowBlurOuter1" result="shadowMatrixOuter1" values="0 0 0 0 0   0 0 0 0 0   0 0 0 0 0  0 0 0 0.5 0"/>
      <feMerge>
        <feMergeNode in="shadowMatrixOuter1"/>
        <feMergeNode in="SourceGraphic"/>
      </feMerge>
    </filter>
  </defs>
  <g fill="none" fill-rule="evenodd" filter="url(#medalla-a)" transform="translate(4 2)">
    <path fill="#F4F4F4" d="M16.8875555,30.8374526 L20.6832694,32 L24.1064553,30.843468 L25.7966068,29.0678698 L26,28 L15,28 L15.2033932,29.0678698 L16.8875555,30.8374526 Z M20.6837309,33 C20.6334456,33 20.5833898,32.9925588 20.5344822,32.9783965 L16.6064859,31.8262122 C16.5190032,31.8005281 16.4386385,31.7522804 16.3731986,31.6867499 L14.5365211,29.8389342 C14.4566157,29.7585214 14.401738,29.6543447 14.3790063,29.5410466 L14.0113953,27.6932309 C13.9778717,27.5235238 14.0192021,27.3470955 14.1236762,27.212434 C14.2283799,27.0777724 14.3854355,27 14.5512164,27 L26.448864,27 C26.6146448,27 26.7717004,27.0777724 26.8761745,27.212434 C26.9811078,27.3470955 27.0222086,27.5235238 26.9884554,27.6932309 L26.6208444,29.5410466 C26.5985719,29.6543447 26.5434647,29.7585214 26.4635592,29.8389342 L24.6268817,31.6867499 C24.5646565,31.7491599 24.4898025,31.7954873 24.4073713,31.8218915 L20.8462972,32.9740759 C20.7932565,32.9913586 20.7383789,33 20.6837309,33 Z"/>
    <path fill="#F4F4F4" d="M23,32.4997444 C23,33.880597 21.8809098,35 20.5003833,35 C19.1190902,35 18,33.880597 18,32.4997444 C18,31.1191474 19.1190902,30 20.5003833,30 C21.8809098,30 23,31.1191474 23,32.4997444"/>
    <polygon fill="#F4F4F4" points="26.897 12.17 23 12.17 23 27 30 27 30 6.347 26.897 3"/>
    <polygon fill="#F4F4F4" points="17 27 17 12.17 13.103 12.17 13.103 3 10 6.347 10 27"/>
    <polygon points="0 68 41 68 41 0 0 0"/>
    <polygon fill="#F4F4F4" points="18 28 22 28 22 0 18 0"/>
    <path fill="#F4F4F4" d="M24.8768046,48 C24.6732435,47.469711 24.3780077,46.9792663 24,46.5532891 L28.0671319,40 C30.7086141,41.919024 32.5380173,44.7578276 33,48 L24.8768046,48 Z M28.0412464,60 L24,53.4360068 C24.3824743,53.0140086 24.686394,52.5286769 24.8973895,52 L33,52.0002246 C32.5212486,55.2486455 30.6833604,58.0880941 28.0412464,60 Z M21.0356658,63 C19.2518925,63 17.5523098,62.6485441 16,62.0159235 L20.09671,55 C20.401446,55.0549375 20.7141887,55.0880439 21.0356658,55.0880439 C21.3285132,55.0880439 21.6140819,55.0582961 21.8945555,55.012235 L26,62.0432723 C24.4663723,62.6581402 22.7917799,63 21.0356658,63 Z M12.9328681,60 C10.2911453,58.0812535 8.46150144,55.2420817 8,52 L16.1227141,52 C16.3260346,52.5307219 16.6217517,53.0209289 17,53.4466704 L12.9328681,60 Z M12.9585972,40 L17,46.5643386 C16.6168378,46.9863014 16.3127029,47.4713676 16.1019637,48 L8,48 C8.47943164,44.7520773 10.3162152,41.9124186 12.9585972,40 Z M23,50.5 C23,51.8807114 21.880967,53 20.5005111,53 C19.1192886,53 18,51.8807114 18,50.5 C18,49.119033 19.1192886,48 20.5005111,48 C21.880967,48 23,49.119033 23,50.5 Z M20.9646973,37 C22.7475434,37 24.4476526,37.3512055 26,37.9842869 L21.9034332,45 C21.5982045,44.9453041 21.285697,44.9121986 20.9646973,44.9121986 C20.6711149,44.9121986 20.3855392,44.9419455 20.1055441,44.9877654 L16,37.9569389 C17.5331797,37.3418496 19.2080553,37 20.9646973,37 Z M39.2603013,48.2966885 L36.0164832,48.2966885 C35.5347024,43.8625915 33.1970856,39.9863554 29.7939329,37.4613508 L31.4191466,34.6465606 C31.8997472,33.814253 31.6148332,32.7502113 30.7818079,32.2702244 C29.9499628,31.7897656 28.8853711,32.0748315 28.4045345,32.9061952 L26.7830975,35.713906 C24.8604591,34.8674395 22.7359967,34.3938241 20.5005901,34.3938241 C18.290205,34.3938241 16.1895838,34.8556404 14.2846492,35.6834644 L12.6596715,32.87009 C12.1788348,32.0380184 11.1144791,31.7529525 10.282162,32.2334113 C9.45008088,32.7136341 9.16445871,33.7776758 9.64411511,34.6099834 L11.2664962,37.4186381 C7.85059674,39.9285399 5.49551214,43.7946288 4.99366691,48.2235341 L1.74040681,48.2235341 C0.779441651,48.2235341 0,49.0025099 0,49.9631915 C0,50.9243452 0.779441651,51.7030849 1.74040681,51.7030849 L4.98375275,51.7030849 C5.46553361,56.1371819 7.80409462,60.0136539 11.2072473,62.5388946 L9.5815615,65.3534488 C9.10119694,66.1857564 9.3858749,67.2493261 10.2186642,67.7300209 C11.0507453,68.2104798 12.1151009,67.9254138 12.5957015,67.0931062 L14.2169024,64.2858674 C16.140249,65.1323339 18.2640033,65.6057133 20.5005901,65.6057133 C22.710031,65.6057133 24.8111243,65.144133 26.7160589,64.316545 L28.3410366,67.1301554 C28.8223454,67.961755 29.8859929,68.2472929 30.7185461,67.7663621 C31.5503912,67.2863753 31.8360133,66.2223336 31.3556488,65.390262 L29.7339758,62.5813713 C33.1498753,60.0714695 35.5047239,56.2056166 36.0070412,51.7767112 L39.2598292,51.7767112 C40.2212664,51.7762393 41.000236,50.9977355 40.9999999,50.0365819 C41.000236,49.0763722 40.2212664,48.2969245 39.2603013,48.2966885 Z"/>
    <path fill="#F4F4F4" d="M29,49.5 C29,54.194391 25.194391,58 20.5,58 C15.805609,58 12,54.194391 12,49.5 C12,44.805609 15.805609,41 20.5,41 C25.194391,41 29,44.805609 29,49.5"/>
    <path fill="#E50E32" d="M20.5,56 C16.9101323,56 14,53.0898677 14,49.5 C14,45.9101323 16.9101323,43 20.5,43 C24.0896275,43 27,45.9101323 27,49.5 C27,53.0898677 24.0896275,56 20.5,56 Z M20.5,37 L10,43.2498808 L10,55.7501192 L20.5,62 L31,55.7501192 L31,43.2498808 L20.5,37 Z"/>
    <polygon fill="#E50E32" points="19.5 51 21.5 51 21.5 43 19.5 43"/>
  </g>
</svg>
