<svg height="224" viewBox="0 0 241 224" width="241" xmlns="http://www.w3.org/2000/svg"><g fill="none" fill-rule="evenodd"><path d="m227.702 1.851-93.487 69.422 17.288-40.958z" fill="#e2761b"/><path d="m152.429871 29.9228235-16.556166 39.2592941 89.526878-66.5421176zm-17.659346 41.136c-.103453 0-.205965-.0338823-.290608-.1007059-.167405-.1308235-.224774-.357647-.142953-.5524705l17.304787-41.0352942c.050786-.1195294.147655-.2127058.268977-.2578823l76.272728-28.51764707c.21725-.08282353.465536.00941176.577453.21552941s.055488.46305882-.132607.60235294l-93.577515 69.55294122c-.082762.0621176-.182453.0931764-.280262.0931764z" fill="#e2761b"/><g fill="#e4761b"><path d="m12.32 1.035 92.825 70.212-16.458-41.694z"/><path d="m15.1719717 2.60244706 88.9202703 67.25835294-15.7652254-39.9407059zm89.9736043 69.11529414c-.09969 0-.199381-.032-.283083-.0950588l-92.825133-70.21176475c-.187155-.14117647-.2417027-.39717647-.1297859-.60235294.1128574-.20517647.3602029-.29647059.5774533-.21364706l76.3667757 28.51764705c.1250835.0461177.2238336.1430588.2727385.2672941l16.4583564 41.6941177c.07712.1967059.015048.4207059-.152357.5477647-.084643.064-.185274.096-.284965.096z"/><path d="m194.679 162.259-24.923 38.212 53.325 14.681 15.33-52.047z"/><path d="m170.501899 200.187482 52.258575 14.388706 15.025069-51.011764-42.85474-.830118zm52.579278 15.435294c-.041381 0-.082762-.004705-.125084-.016l-53.325076-14.682352c-.143893-.040471-.261452-.146824-.31506-.287059-.052666-.141177-.035738-.298353.046084-.424471l24.922654-38.210823c.089346-.136471.241703-.222118.403465-.213647l43.732206.847058c.146714.002824.284024.074353.369607.192.086524.118589.112857.271059.072417.411294l-15.329784 52.047059c-.06019.204236-.247345.336941-.451429.336941z"/><path d="m2.445 163.106 15.236 52.047 53.325-14.683-24.923-38.21z"/><path d="m3.06934248 163.564329 14.93290232 51.011765 52.2576341-14.388706-24.4279634-37.453176zm14.61125892 52.059295c-.2031431 0-.3902981-.133648-.4504887-.338824l-15.23667652-52.047059c-.04044053-.140235-.01410716-.291765.07335725-.410353.08558345-.118588.22289317-.189176.36960767-.192l43.6381576-.847059c.1739883.015059.3141195.077177.4025243.213647l24.9226547 38.210824c.0818215.126118.0987501.283294.0460834.424471-.0536072.140235-.1702264.246588-.31506.287058l-53.3250761 14.682353c-.0413811.011294-.0837025.016942-.1250836.016942z"/><path d="m67.997 97.694-14.86 22.494 52.949 2.353-1.881-56.941z"/><path d="m53.9868902 119.755482 51.6124668 2.293647-1.83111-55.4324702-35.4136815 31.3882353zm52.0986938 3.256471c-.006584 0-.013167 0-.01975-.000941l-52.949826-2.352941c-.169286-.00753-.3216433-.104471-.397822-.256-.0771192-.15153-.0667739-.332236.0263334-.472471l14.859545-22.4950588c.0225715-.0338824.0498453-.0658824.0808811-.0931765l36.2083855-32.0941176c.137309-.1204706.331048-.1515295.497512-.08.167405.0724705.278381.2352941.284024.4169411l1.880955 56.9411768c.004703.131764-.046083.258823-.13919.350117-.088405.08753-.206905.136471-.331048.136471z"/><path d="m172.672 97.694-36.678-32.753-1.224 57.6 52.855-2.353z"/><path d="m136.441753 65.9724235-1.190644 56.0762355 51.52218-2.292706-14.458901-21.7505883zm-1.671228 57.0390585c-.122262 0-.240763-.047058-.329168-.133647-.093107-.091294-.143893-.21647-.141071-.346353l1.222621-57.5999996c.003762-.1835295.114738-.3482353.283083-.4216471.166465-.0734118.363025-.0423529.500334.08l36.678624 32.7529412c.030096.0263529.056429.0574117.07806.0903529l14.953593 22.4941176c.094047.142118.104393.322824.028214.474353-.077119.150588-.229477.249412-.398762.256941l-52.854838 2.352941c-.007524 0-.014107 0-.02069 0z"/><path d="m71.006 200.471 31.788-15.53-27.462-21.459z"/><path d="m75.7019522 164.368565-4.1286964 35.301647 30.3388652-14.821647zm-4.6958044 36.572235c-.0959287 0-.1909169-.029176-.271798-.085647-.1410716-.100706-.2153693-.269177-.1956193-.439529l4.3261967-36.988236c.01975-.16847.1297859-.313412.2859051-.378353.1570598-.067764.336691-.042353.4711793.062118l27.4619444 21.458823c.127904.099765.194678.258824.17775.419765-.015988.161883-.114738.303059-.261453.374588l-31.7881406 15.529412c-.0648929.032-.1354287.047059-.2059646.047059z"/><path d="m137.874 184.941 31.882 15.53-4.421-36.989z"/><path d="m138.758055 184.848376 30.42821 14.821648-4.218982-35.30353zm30.99814 16.093177c-.069596 0-.140131-.016-.205965-.048l-31.881248-15.529412c-.145774-.070588-.245464-.212706-.262393-.373647-.016928-.161882.050786-.32.178691-.420706l27.461003-21.458823c.133548-.10353.31412-.126118.470239-.063059.156119.064941.265215.210823.285905.378353l4.420245 36.988235c.021631.171294-.054548.339765-.193739.43953-.080881.057411-.175869.087529-.272738.087529z"/></g><path d="m169.756 200.471-31.881-15.53 2.538 20.8-.282 8.753z" fill="#d7c1b3"/><path d="m138.445723 185.742682 2.433956 19.940706-.25487 8.056471 28.04504-13.275294zm1.685335 29.222589c-.090285 0-.179631-.026353-.25769-.077177-.13731-.090353-.217251-.244706-.212548-.40847l.282143-8.753883-2.535527-20.727529c-.020691-.171294.053607-.339765.194678-.440471.139191-.098823.322584-.116706.477763-.039529l31.882188 15.529412c.162703.079058.265215.244705.264275.425411-.000941.181647-.105334.346353-.268977.42353l-29.625042 14.023529c-.064893.030118-.132608.045177-.201263.045177z" fill="#d7c1b3"/><path d="m71.006 200.471 29.625 14.023-.188-8.753 2.351-20.8z" fill="#d7c1b3"/><path d="m72.091553 200.464188 28.053504 13.279059-.1721071-7.992471 2.2580861-20.011294zm28.539731 14.500706c-.068655 0-.13731-.014118-.201262-.045176l-29.6250423-14.02353c-.1636431-.077176-.2680361-.241882-.2689766-.422588-.0009405-.181647.1015716-.346353.2633337-.425412l31.7890812-15.529412c.154238-.076235.337631-.061176.477763.038589.13919.097882.215369.266353.195619.436706l-2.351194 20.8.190917 8.689882c.002821.162823-.07806.316235-.214429.405647-.07806.049882-.166464.075294-.25581.075294z" fill="#d7c1b3"/><path d="m101.101 149.741-26.521-7.812 18.715-8.564z" fill="#233447"/><path d="m75.9200489 141.8336 24.3028801 7.157647-7.1523318-15.006118zm25.1812861 8.377412c-.044203 0-.089345-.005647-.132607-.018824l-26.5214669-7.811764c-.1880955-.05553-.3225838-.221177-.3357505-.417883-.0141072-.195765.0949882-.380235.2727385-.462117l18.7155029-8.563765c.2341789-.105412.5097388-.005647.6197747.225882l7.8059633 16.376471c.079941.166588.053607.365176-.066774.507294-.090286.106353-.221952.164706-.357381.164706z" fill="#233447"/><path d="m139.567 149.741 7.806-16.376 18.81 8.564z" fill="#233447"/><path d="m147.59892 133.984376-7.154212 15.008 24.392225-7.158588zm-8.031678 16.226824c-.136369 0-.267095-.058353-.358322-.165647-.120381-.141177-.145774-.339765-.065833-.507294l7.805963-16.37553c.110977-.231529.386537-.330353.618835-.225882l18.80955 8.563765c.178691.081882.287786.266353.27462.462117-.014107.196706-.148596.362353-.337632.417883l-26.614573 7.811764c-.043262.012236-.088405.018824-.132608.018824z" fill="#233447"/><path d="m71.006 200.471 4.514-38.212-29.437.847z" fill="#cd6116"/><path d="m46.9461932 163.551435 23.7423554 35.595294 4.3008037-36.400941zm24.0602368 37.390118c-.1551788 0-.3028338-.076235-.3912387-.209882l-24.9226546-37.364706c-.0949882-.143059-.1053335-.324706-.0272739-.477177.0790001-.151529.2332385-.249412.4044054-.255059l29.4378873-.846117c.1232025-.012236.2670956.051764.3602029.15247.0921668.100706.1354287.237177.1194406.373647l-4.5142922 38.210824c-.0225714.195765-.165524.356706-.3573814.402823-.0366786.008471-.0733573.013177-.1090954.013177z" fill="#cd6116"/><path d="m165.242 162.259 4.514 38.212 24.923-37.366z" fill="#cd6116"/><path d="m165.772896 162.745412 4.299864 36.401882 23.743295-35.596235zm3.982923 38.195764c-.036679 0-.073358-.004705-.109096-.013176-.191857-.045176-.333869-.206118-.357381-.401882l-4.514292-38.211765c-.015989-.136471.028214-.272.11944-.372706.093108-.101647.229477-.152471.361144-.153412l29.436946.847059c.171167.005647.325406.102588.404406.254118.078059.15247.067714.335059-.027274.477176l-24.922655 37.364706c-.088405.133647-.237.209882-.391238.209882z" fill="#cd6116"/><path d="m187.625 120.188-52.855 2.353 4.891 27.199 7.806-16.375 18.809 8.565z" fill="#cd6116"/><path d="m135.328604 122.987106 4.535923 25.232941 7.177725-15.056941c.110976-.232471.385595-.330353.618834-.226824l18.510479 8.428236 20.280457-20.653177zm4.33184 27.22447c-.019751 0-.041382-.000941-.062072-.004705-.202203-.026353-.364905-.181647-.400643-.382118l-4.890484-27.2c-.023512-.133647.011286-.271059.095929-.377412.083703-.105412.210667-.170353.346096-.176l52.854837-2.352941c.217251-.026353.371489.102588.450489.278588.07806.176941.041381.383059-.094048.521412l-21.34884 21.741176c-.13919.141177-.350798.179765-.530429.097883l-18.389157-8.372706-7.606583 15.958588c-.079.164706-.245464.268235-.425095.268235z" fill="#cd6116"/><path d="m74.58 141.929 18.81-8.564 7.712 16.376 4.984-27.2-52.949-2.353z" fill="#cd6116"/><path d="m93.3891369 132.894306c.1768098 0 .3460958.099765.4260364.270118l7.0874387 15.050352 4.623388-25.227294-51.2118236-2.275764 20.3698029 20.653176 18.5104788-8.428235c.063012-.028235.1297859-.042353.1946788-.042353m7.7119161 17.316706c-.180572 0-.347036-.10353-.425096-.270118l-7.5144156-15.955765-18.3863358 8.372706c-.1805717.080941-.3912387.042353-.5294889-.097882l-21.4438282-21.740235c-.1354288-.138353-.1730479-.345412-.0949882-.522353.0780596-.176941.248286-.307765.4504887-.278589l52.948885 2.352942c.136369.005647.263334.069647.347977.176.083702.107294.11944.244706.094048.378353l-4.984531 27.199058c-.036679.201412-.199382.355765-.401584.383059-.020691.001883-.040441.002824-.061131.002824" fill="#cd6116"/><path d="m53.137 120.188 22.195 43.295-.752-21.553z" fill="#e4751f"/><path d="m54.9526666 122.699482 19.8356116 38.691765-.6715009-19.262118zm20.3792077 41.253647c-.1730479 0-.3357505-.096-.4175721-.255058l-22.1952698-43.294118c-.1062739-.207059-.0460834-.461177.1420121-.596706.1871551-.135529.4467269-.113882.61037.049882l21.4438282 21.741177c.0818216.084706.1307264.196706.1344883.314353l.752382 21.552941c.0075238.221176-.1382502.416941-.3517386.472471-.0395.010353-.0790001.015058-.1185001.015058z" fill="#e4751f"/><path d="m166.276 141.929-.94 21.553 22.289-43.294z" fill="#e4751f"/><path d="m166.738108 142.130541-.839846 19.231059 19.888278-38.628706zm-1.402252 21.823059c-.04044 0-.080881-.005647-.120381-.016-.214429-.057412-.359262-.255059-.349857-.475294l.940477-21.552941c.005643-.116706.052667-.227765.134488-.309647l21.349781-21.741177c.162703-.166588.423215-.186353.61037-.051765.188095.137412.249226.389648.142012.596706l-22.289318 43.294118c-.081821.16-.245464.256-.417572.256z" fill="#e4751f"/><path d="m106.086 122.541-4.984 27.199 6.207 32.095 1.41-42.258z" fill="#e4751f"/><path d="m101.579756 149.738071 5.398341 27.910588 1.271525-38.08753-2.202598-14.199529zm5.728448 32.56847c-.222893 0-.418512-.158117-.460834-.382117l-6.208092-32.094118c-.011285-.057412-.011285-.116706 0-.174118l4.984531-27.199059c.041381-.227764.23606-.374588.468358-.385882.229477.002824.424155.171294.458953.398118l2.632397 17.035294-1.405074 42.346353c-.007524.24-.194679.434823-.432619.453647-.013167.000941-.025393.001882-.03762.001882z" fill="#e4751f"/><path d="m134.77 122.541-2.538 16.942 1.127 42.352 6.302-32.095z" fill="#e4751f"/><path d="m134.81247 125.432941-2.116075 14.11953 1.019478 38.027294 5.466056-27.842824zm-1.453038 56.873412c-.013167 0-.025393-.000941-.0395-.001882-.238881-.020706-.424155-.216471-.430739-.456471l-1.127632-42.352941 2.543992-17.023059c.033857-.228706.227595-.397176.458012-.400941.240762.006588.428858.160941.469298.386823l4.890484 27.199059c.010345.058353.010345.116706-.000941.175059l-6.30214 32.094118c-.043262.223058-.237941.380235-.460834.380235z" fill="#e4751f"/><path d="m139.661 149.741-6.301 32.095 4.515 3.105 27.461-21.458.94-21.554z" fill="#f6851b"/><path d="m133.880175 181.623153 3.977279 2.734118 27.018039-21.11153.901918-20.679529-25.710775 7.546353zm3.994208 3.788235c-.093108 0-.185274-.027294-.266156-.081882l-4.515232-3.105882c-.154238-.107295-.231358-.294589-.194679-.479059l6.301199-32.095059c.032917-.171294.160822-.31153.329168-.35953l26.615514-7.811764c.144833-.042353.303774-.012236.422274.080941.119441.093176.186215.239059.179631.390588l-.940477 21.552941c-.006583.138353-.072417.265412-.180572.351059l-27.461003 21.458824c-.084643.065882-.188096.098823-.289667.098823z" fill="#f6851b"/><path d="m74.58 141.929.752 21.553 27.462 21.459 4.515-3.106-6.207-32.094z" fill="#f6851b"/><path d="m75.7946832 163.246306 27.0170978 21.111529 3.976339-2.736-6.094294-31.510588-25.6214295-7.546353zm26.9992288 22.165647c-.101571 0-.204083-.032941-.288726-.099765l-27.4619443-21.457882c-.1100359-.086588-.1758693-.216471-.1805717-.354824l-.752382-21.553882c-.0056429-.151529.0620715-.295529.1815121-.388706.1194407-.092235.27556-.121412.421334-.079059l26.5205259 7.811765c.169286.049882.29625.189176.329167.362353l6.207152 32.094118c.035738.18447-.040441.371764-.194679.477176l-4.514292 3.105882c-.080881.054589-.173988.082824-.267096.082824z" fill="#f6851b"/><path d="m140.131 214.494.282-8.753-2.351-2.07h-35.456l-2.163 2.07.188 8.753-29.625-14.023 10.345 8.471 20.973 14.588h36.021l21.066-14.588 10.345-8.471z" fill="#c0ad9e"/><path d="m102.471611 223.058824h35.72592l20.946315-14.504471 7.34607-6.017882-26.157501 12.384c-.148596.068705-.322584.058353-.458953-.032942-.13731-.089411-.217251-.243764-.212548-.407529l.274619-8.532706-2.051181-1.806118h-35.089217l-1.877193 1.796706.183393 8.546824c.002821.161882-.07806.316235-.214429.404706-.136369.08847-.308477.100706-.457072.031059l-26.1565613-12.383059 7.3752249 6.039529zm35.873575.941176h-36.02123c-.095929 0-.189036-.029176-.268036-.084706l-20.9726494-14.588235-10.3744077-8.492235c-.1843336-.150589-.2275956-.415059-.1006311-.616471.1269645-.198588.3837148-.275765.5990842-.173177l28.937553 13.698824-.1721072-7.993412c-.0028214-.131764.0498452-.258823.1457742-.350117l2.162158-2.069647c.088405-.083765.204083-.130824.325405-.130824h35.456003c.113798 0 .224774.041412.310358.117647l2.351193 2.070588c.105334.092236.164584.227765.159882.367059l-.257691 7.984941 28.929089-13.695059c.213488-.101647.471179-.025411.599084.173177.126964.201412.083702.465882-.100631.616471l-10.345253 8.470588-21.095852 14.610823c-.078059.054589-.172107.083765-.267095.083765z" fill="#c0ad9e"/><path d="m137.874 184.941-4.515-3.106h-26.05l-4.514 3.106-2.352 20.8 2.164-2.07h35.455l2.351 2.07z" fill="#161616"/><path d="m102.606099 203.200376h35.456003c.113798 0 .224774.041412.310358.117648l1.423883 1.253647-2.36248-19.362824-4.220863-2.902588h-25.758739l-4.217102 2.901647-2.180967 19.295059 1.224502-1.171765c.088405-.083765.204083-.130824.325405-.130824m-2.163098 3.010824c-.070536 0-.142013-.015059-.208786-.048941-.17681-.08753-.2802627-.276706-.2586317-.474353l2.3511937-20.8c.015988-.13553.088405-.256941.201262-.334118l4.514292-3.105882c.07806-.054588.171167-.082824.266156-.082824h26.051227c.094989 0 .188096.028236.266155.082824l4.515233 3.105882c.110976.076236.183393.195765.200322.330353l2.538349 20.8c.023512.193883-.074298.382118-.247346.473412-.172107.090353-.383715.067765-.529489-.064l-2.218586-1.952h-35.089217l-2.026729 1.939765c-.089346.084706-.206905.129882-.325405.129882" fill="#161616"/><path d="m232.298 75.106 7.994-38.4-11.944-35.671-90.473 67.2 34.798 29.459 49.186 14.4 10.909-12.706-4.702-3.388 7.524-6.871-5.831-4.517 7.523-5.742z" fill="#763d16"/><path d="m172.899929 97.2702118 48.800439 14.2870592 10.377229-12.0865886-4.286697-3.0889412c-.114738-.0828236-.186214-.2127059-.194679-.3548236-.008464-.1411764.047965-.2785882.152358-.3745882l7.11095-6.4931765-5.388936-4.1750588c-.115679-.0894117-.183393-.2277647-.182452-.3745882.00094-.1458824.068654-.2832941.185274-.3717647l7.03101-5.3656471-4.48984-3.3910588c-.145774-.1091765-.214429-.2927059-.17681-.4715294l7.967726-38.2748235-11.69766-34.93552946-89.477032 66.46023526zm48.95938 15.2941172c-.044203 0-.088405-.005647-.132608-.018823l-49.186975-14.4000001c-.062071-.0178824-.121321-.0498824-.171167-.0922353l-34.797668-29.4588235c-.110036-.0922353-.171167-.2305883-.166465-.3745883.004702-.1430588.074298-.2767059.189976-.3623529l90.472999-67.20000002c.11944-.08941176.277441-.11670588.420393-.07152941.144834.04517647.257691.15717647.305655.3002353l11.944065 35.67058823c.026333.0790588.031976.1637647.014107.2447059l-7.932928 38.1082353 4.74659 3.5849412c.11756.0894117.187155.2268235.187155.3745882 0 .1468235-.067714.2861176-.185274.3755294l-7.037593 5.3694118 5.347555 4.1430588c.110036.0847059.175869.2145882.182453.3538823.005643.138353-.049846.2729412-.153298.3661177l-7.095903 6.4790588 4.232149 3.050353c.107214.0771764.17681.1948235.191857.325647.015988.1317647-.023512.2625882-.110036.362353l-10.908598 12.7058826c-.090286.105411-.221953.163764-.356441.163764z" fill="#763d16"/><path d="m.47 36.706 7.994 38.4-5.078 3.765 7.523 5.741-5.736 4.517 7.523 6.871-4.702 3.388 10.815 12.706 49.187-14.4 34.798-29.459-90.474-67.2z" fill="#763d16"/><path d="m8.68277073 99.472 10.28694327 12.084706 48.7994983-14.2861178 34.2681797-29.0117647-89.4760919-66.45835291-11.6045523 34.93364701 7.96772566 38.2757648c.0376191.1797647-.03291671.3642352-.18057169.4743529l-4.5754232 3.392 7.02630763 5.3609412c.1156788.0884706.1843336.2249411.1852741.3708235s-.0658334.2832941-.1796312.3736471l-5.30147187 4.1750588 7.11377207 6.496c.1053335.0950588.1608217.2324706.1532978.3745882-.0084643.1411765-.0799406.272-.1946788.3548235zm10.12706207 13.092706c-.1354287 0-.2680361-.058353-.3583219-.165647l-10.81549166-12.7058825c-.08558346-.0997647-.12508351-.2305883-.1090954-.3614118.01598812-.1308235.08558346-.2484706.1927979-.3256471l4.23214886-3.0494117-7.09590295-6.48c-.10251205-.0922353-.15800023-.2258824-.15329784-.3642353.00470239-.138353.07053582-.2672941.17869073-.3529412l5.26009086-4.1421176-7.04135531-5.3731765c-.11755969-.0894118-.18527407-.2287059-.18433359-.3774118.00094048-.1477647.07147629-.2861176.18997646-.3745882l4.83687595-3.5858824-7.93292799-38.1044705c-.0169286-.0809412-.01222621-.1656471.01410716-.2447059l11.85001692-35.67058826c.0479644-.14305883.1608217-.25505883.3047147-.3002353.1429526-.04517647.3009528-.01882353.4222744.07152941l90.4739389 67.20000005c.114738.0847058.185274.2192941.189036.3623529.004702.144-.056429.2814118-.165524.3745882l-34.7976689 29.4588236c-.0507858.0423529-.1090954.0734117-.1721074.0922353l-49.186975 14.3999996c-.043262.013177-.0884049.018824-.1316669.018824z" fill="#763d16"/><path d="m221.859 112.094-49.187-14.4 14.954 22.494-22.291 43.294 29.344-.376h43.732z" fill="#f6851b"/><path d="m173.777959 98.5078588 14.23883 21.4192942c.094048.143059.104393.324706.026333.477176l-21.930995 42.597647 28.560421-.367058h43.0908l-16.274964-50.159059zm-8.442667 65.4456472c-.161762 0-.314119-.084706-.398762-.224-.087465-.140235-.094048-.316235-.01881-.463059l22.163294-43.047529-14.800295-22.2644709c-.109096-.1647059-.104393-.3802353.013166-.5392942.11662-.16.319763-.229647.51068-.1731764l49.186975 14.4009415c.148595.043294.267095.158117.31506.305882l16.551464 51.011765c.047024.143059.022571.299294-.066774.421647-.088405.122353-.229477.193882-.379953.193882h-43.732205l-29.337257.377412z" fill="#f6851b"/><path d="m67.997 97.694-49.187 14.4-16.365 51.012h43.639l29.248.376-22.195-43.294z" fill="#f6851b"/><path d="m3.09003298 162.635106h42.99299002l28.4748382.367059-21.8388288-42.598589c-.0780596-.151529-.0677143-.333176.0253929-.474352l14.152306-21.4230593-47.7160682 13.9698823zm72.24184132 1.317647h-.0056429l-29.2488513-.376471h-43.6325147c-.14953593 0-.29154804-.071529-.37901245-.192941-.08934537-.121412-.11379778-.278588-.06865486-.421647l16.36430911-51.011765c.0479643-.147764.1664645-.263529.3160004-.307764l49.186975-14.4000003c.190917-.0574118.3931196.0131765.5106793.1722353s.1222621.3745882.0141072.5392941l-14.7090686 22.2654119 22.0701863 43.04847c.0752382.146824.0686548.322824-.0188096.463059-.0855835.138353-.2370003.222118-.3997029.222118z" fill="#f6851b"/><path d="m134.77 122.541 3.105-54.306 14.294-38.682h-63.482l14.107 38.682 3.292 54.306 1.128 17.13.094 42.164h26.051l.189-42.164z" fill="#f6851b"/><path d="m134.770148 122.541365h.009405zm-26.992645 58.823529h25.113571l.186215-41.696 1.223561-17.157647 3.104516-54.3030588c.002822-.0461176.011286-.0922353.028215-.1364706l14.060139-38.048h-62.1345293l13.8767463 38.0498824c.015988.0432941.025393.0875294.028214.1336471l3.291671 54.3058819 1.127633 17.126589zm25.581929.941177h-26.051228c-.259571 0-.469298-.210824-.470238-.469647l-.094048-42.164706-1.127633-17.099294-3.286969-54.2400005-14.0836507-38.6183529c-.0526667-.144-.0319762-.3049412.0564287-.4310588.0884049-.1261177.2313574-.2004706.3846553-.2004706h63.4822337c.154238 0 .297191.0752941.385596.2014117.088404.1261177.108155.288.055488.432l-14.269866 38.6164706-3.100754 54.2352945v.006588l-1.222621 17.129412-.187155 42.133647c-.000941.258823-.211608.468706-.470239.468706z" fill="#f6851b"/></g></svg>