<svg xmlns="http://www.w3.org/2000/svg" width="76" height="151" viewBox="0 0 76 151">
  <g fill="none" opacity=".5">
    <rect width="65.936" height="65.332" x="9.615" y=".697" fill="#F4F4F4" opacity=".2"/>
    <polygon fill="#E50E32" points="1.5 9.5 1.5 150.088 .5 150.088 .5 8.5 11.504 8.5 11.504 9.5"/>
    <path fill="#F4F4F4" d="M10.1252,10.3918367 L9.0902,10.3918367 L9.0902,0.191428571 L19.2608,0.191428571 L19.2608,1.21693878 L10.1252,1.21693878 L10.1252,10.3918367 Z M19.3298,66.4804082 L9.035,66.4804082 L9.035,56.4167347 L10.07,56.4167347 L10.07,65.454898 L19.3298,65.454898 L19.3298,66.4804082 Z M75.6614,66.4804082 L65.5046,66.4804082 L65.5046,65.454898 L74.6264,65.454898 L74.6264,56.28 L75.6614,56.28 L75.6614,66.4804082 Z M75.7304,10.255102 L74.6954,10.255102 L74.6954,1.21693878 L65.4356,1.21693878 L65.4356,0.191428571 L75.7304,0.191428571 L75.7304,10.255102 Z"/>
  </g>
</svg>
