<svg xmlns="http://www.w3.org/2000/svg" width="1012" height="389" viewBox="0 0 1012 389">
  <g fill="none" fill-rule="evenodd" opacity=".4">
    <path fill="#F4F4F4" fill-rule="nonzero" d="M916.0925 108.491429L914.7175 108.491429 914.7175 107.110476 916.0925 107.110476 916.0925 108.491429zM913.3425 108.491429L911.9675 108.491429 911.9675 107.110476 913.3425 107.110476 913.3425 108.491429zM910.5925 108.491429L909.2175 108.491429 909.2175 107.110476 910.5925 107.110476 910.5925 108.491429zM907.8425 108.491429L906.4675 108.491429 906.4675 107.110476 907.8425 107.110476 907.8425 108.491429zM905.0925 108.491429L903.7175 108.491429 903.7175 107.110476 905.0925 107.110476 905.0925 108.491429zM902.3425 108.491429L900.9675 108.491429 900.9675 107.110476 902.3425 107.110476 902.3425 108.491429zM899.5925 108.491429L898.2175 108.491429 898.2175 107.110476 899.5925 107.110476 899.5925 108.491429zM896.8425 108.491429L895.4675 108.491429 895.4675 107.110476 896.8425 107.110476 896.8425 108.491429zM894.0925 108.491429L892.7175 108.491429 892.7175 107.110476 894.0925 107.110476 894.0925 108.491429zM891.3425 108.491429L889.9675 108.491429 889.9675 107.110476 891.3425 107.110476 891.3425 108.491429zM888.5925 108.491429L887.2175 108.491429 887.2175 107.110476 888.5925 107.110476 888.5925 108.491429zM885.8425 108.491429L884.4675 108.491429 884.4675 107.110476 885.8425 107.110476 885.8425 108.491429zM916.0925 122.37L914.7175 122.37 914.7175 120.989048 916.0925 120.989048 916.0925 122.37zM913.3425 122.37L911.9675 122.37 911.9675 120.989048 913.3425 120.989048 913.3425 122.37zM910.5925 122.37L909.2175 122.37 909.2175 120.989048 910.5925 120.989048 910.5925 122.37zM907.8425 122.37L906.4675 122.37 906.4675 120.989048 907.8425 120.989048 907.8425 122.37zM905.0925 122.37L903.7175 122.37 903.7175 120.989048 905.0925 120.989048 905.0925 122.37zM902.3425 122.37L900.9675 122.37 900.9675 120.989048 902.3425 120.989048 902.3425 122.37zM899.5925 122.37L898.2175 122.37 898.2175 120.989048 899.5925 120.989048 899.5925 122.37zM896.8425 122.37L895.4675 122.37 895.4675 120.989048 896.8425 120.989048 896.8425 122.37zM894.0925 122.37L892.7175 122.37 892.7175 120.989048 894.0925 120.989048 894.0925 122.37zM891.3425 122.37L889.9675 122.37 889.9675 120.989048 891.3425 120.989048 891.3425 122.37zM888.5925 122.37L887.2175 122.37 887.2175 120.989048 888.5925 120.989048 888.5925 122.37zM885.8425 122.37L884.4675 122.37 884.4675 120.989048 885.8425 120.989048 885.8425 122.37zM916.0925 136.248571L914.7175 136.248571 914.7175 134.867619 916.0925 134.867619 916.0925 136.248571zM913.3425 136.248571L911.9675 136.248571 911.9675 134.867619 913.3425 134.867619 913.3425 136.248571zM910.5925 136.248571L909.2175 136.248571 909.2175 134.867619 910.5925 134.867619 910.5925 136.248571zM907.8425 136.248571L906.4675 136.248571 906.4675 134.867619 907.8425 134.867619 907.8425 136.248571zM905.0925 136.248571L903.7175 136.248571 903.7175 134.867619 905.0925 134.867619 905.0925 136.248571zM902.3425 136.248571L900.9675 136.248571 900.9675 134.867619 902.3425 134.867619 902.3425 136.248571zM899.5925 136.248571L898.2175 136.248571 898.2175 134.867619 899.5925 134.867619 899.5925 136.248571zM896.8425 136.248571L895.4675 136.248571 895.4675 134.867619 896.8425 134.867619 896.8425 136.248571zM894.0925 136.248571L892.7175 136.248571 892.7175 134.867619 894.0925 134.867619 894.0925 136.248571zM891.3425 136.248571L889.9675 136.248571 889.9675 134.867619 891.3425 134.867619 891.3425 136.248571zM888.5925 136.248571L887.2175 136.248571 887.2175 134.867619 888.5925 134.867619 888.5925 136.248571zM885.8425 136.248571L884.4675 136.248571 884.4675 134.867619 885.8425 134.867619 885.8425 136.248571zM916.0925 150.127143L914.7175 150.127143 914.7175 148.74619 916.0925 148.74619 916.0925 150.127143zM913.3425 150.127143L911.9675 150.127143 911.9675 148.74619 913.3425 148.74619 913.3425 150.127143zM910.5925 150.127143L909.2175 150.127143 909.2175 148.74619 910.5925 148.74619 910.5925 150.127143zM907.8425 150.127143L906.4675 150.127143 906.4675 148.74619 907.8425 148.74619 907.8425 150.127143zM905.0925 150.127143L903.7175 150.127143 903.7175 148.74619 905.0925 148.74619 905.0925 150.127143zM902.3425 150.127143L900.9675 150.127143 900.9675 148.74619 902.3425 148.74619 902.3425 150.127143zM899.5925 150.127143L898.2175 150.127143 898.2175 148.74619 899.5925 148.74619 899.5925 150.127143zM896.8425 150.127143L895.4675 150.127143 895.4675 148.74619 896.8425 148.74619 896.8425 150.127143zM894.0925 150.127143L892.7175 150.127143 892.7175 148.74619 894.0925 148.74619 894.0925 150.127143zM891.3425 150.127143L889.9675 150.127143 889.9675 148.74619 891.3425 148.74619 891.3425 150.127143zM888.5925 150.127143L887.2175 150.127143 887.2175 148.74619 888.5925 148.74619 888.5925 150.127143zM885.8425 150.127143L884.4675 150.127143 884.4675 148.74619 885.8425 148.74619 885.8425 150.127143zM916.0925 164.005714L914.7175 164.005714 914.7175 162.624762 916.0925 162.624762 916.0925 164.005714zM913.3425 164.005714L911.9675 164.005714 911.9675 162.624762 913.3425 162.624762 913.3425 164.005714zM910.5925 164.005714L909.2175 164.005714 909.2175 162.624762 910.5925 162.624762 910.5925 164.005714zM907.8425 164.005714L906.4675 164.005714 906.4675 162.624762 907.8425 162.624762 907.8425 164.005714zM905.0925 164.005714L903.7175 164.005714 903.7175 162.624762 905.0925 162.624762 905.0925 164.005714zM902.3425 164.005714L900.9675 164.005714 900.9675 162.624762 902.3425 162.624762 902.3425 164.005714zM899.5925 164.005714L898.2175 164.005714 898.2175 162.624762 899.5925 162.624762 899.5925 164.005714zM896.8425 164.005714L895.4675 164.005714 895.4675 162.624762 896.8425 162.624762 896.8425 164.005714zM894.0925 164.005714L892.7175 164.005714 892.7175 162.624762 894.0925 162.624762 894.0925 164.005714zM891.3425 164.005714L889.9675 164.005714 889.9675 162.624762 891.3425 162.624762 891.3425 164.005714zM888.5925 164.005714L887.2175 164.005714 887.2175 162.624762 888.5925 162.624762 888.5925 164.005714zM885.8425 164.005714L884.4675 164.005714 884.4675 162.624762 885.8425 162.624762 885.8425 164.005714zM916.0925 115.5125L914.7175 115.5125 914.7175 114.1375 916.0925 114.1375 916.0925 115.5125zM913.3425 115.5125L911.9675 115.5125 911.9675 114.1375 913.3425 114.1375 913.3425 115.5125zM910.5925 115.5125L909.2175 115.5125 909.2175 114.1375 910.5925 114.1375 910.5925 115.5125zM907.8425 115.5125L906.4675 115.5125 906.4675 114.1375 907.8425 114.1375 907.8425 115.5125zM905.0925 115.5125L903.7175 115.5125 903.7175 114.1375 905.0925 114.1375 905.0925 115.5125zM902.3425 115.5125L900.9675 115.5125 900.9675 114.1375 902.3425 114.1375 902.3425 115.5125zM899.5925 115.5125L898.2175 115.5125 898.2175 114.1375 899.5925 114.1375 899.5925 115.5125zM896.8425 115.5125L895.4675 115.5125 895.4675 114.1375 896.8425 114.1375 896.8425 115.5125zM894.0925 115.5125L892.7175 115.5125 892.7175 114.1375 894.0925 114.1375 894.0925 115.5125zM891.3425 115.5125L889.9675 115.5125 889.9675 114.1375 891.3425 114.1375 891.3425 115.5125zM888.5925 115.5125L887.2175 115.5125 887.2175 114.1375 888.5925 114.1375 888.5925 115.5125zM885.8425 115.5125L884.4675 115.5125 884.4675 114.1375 885.8425 114.1375 885.8425 115.5125zM916.0925 129.33125L914.7175 129.33125 914.7175 127.95625 916.0925 127.95625 916.0925 129.33125zM913.3425 129.33125L911.9675 129.33125 911.9675 127.95625 913.3425 127.95625 913.3425 129.33125zM910.5925 129.33125L909.2175 129.33125 909.2175 127.95625 910.5925 127.95625 910.5925 129.33125zM907.8425 129.33125L906.4675 129.33125 906.4675 127.95625 907.8425 127.95625 907.8425 129.33125zM905.0925 129.33125L903.7175 129.33125 903.7175 127.95625 905.0925 127.95625 905.0925 129.33125zM902.3425 129.33125L900.9675 129.33125 900.9675 127.95625 902.3425 127.95625 902.3425 129.33125zM899.5925 129.33125L898.2175 129.33125 898.2175 127.95625 899.5925 127.95625 899.5925 129.33125zM896.8425 129.33125L895.4675 129.33125 895.4675 127.95625 896.8425 127.95625 896.8425 129.33125zM894.0925 129.33125L892.7175 129.33125 892.7175 127.95625 894.0925 127.95625 894.0925 129.33125zM891.3425 129.33125L889.9675 129.33125 889.9675 127.95625 891.3425 127.95625 891.3425 129.33125zM888.5925 129.33125L887.2175 129.33125 887.2175 127.95625 888.5925 127.95625 888.5925 129.33125zM885.8425 129.33125L884.4675 129.33125 884.4675 127.95625 885.8425 127.95625 885.8425 129.33125zM916.0925 143.16375L914.7175 143.16375 914.7175 141.78875 916.0925 141.78875 916.0925 143.16375zM913.3425 143.16375L911.9675 143.16375 911.9675 141.78875 913.3425 141.78875 913.3425 143.16375zM910.5925 143.16375L909.2175 143.16375 909.2175 141.78875 910.5925 141.78875 910.5925 143.16375zM907.8425 143.16375L906.4675 143.16375 906.4675 141.78875 907.8425 141.78875 907.8425 143.16375zM905.0925 143.16375L903.7175 143.16375 903.7175 141.78875 905.0925 141.78875 905.0925 143.16375zM902.3425 143.16375L900.9675 143.16375 900.9675 141.78875 902.3425 141.78875 902.3425 143.16375zM899.5925 143.16375L898.2175 143.16375 898.2175 141.78875 899.5925 141.78875 899.5925 143.16375zM896.8425 143.16375L895.4675 143.16375 895.4675 141.78875 896.8425 141.78875 896.8425 143.16375zM894.0925 143.16375L892.7175 143.16375 892.7175 141.78875 894.0925 141.78875 894.0925 143.16375zM891.3425 143.16375L889.9675 143.16375 889.9675 141.78875 891.3425 141.78875 891.3425 143.16375zM888.5925 143.16375L887.2175 143.16375 887.2175 141.78875 888.5925 141.78875 888.5925 143.16375zM885.8425 143.16375L884.4675 143.16375 884.4675 141.78875 885.8425 141.78875 885.8425 143.16375zM916.0925 156.9825L914.7175 156.9825 914.7175 155.6075 916.0925 155.6075 916.0925 156.9825zM913.3425 156.9825L911.9675 156.9825 911.9675 155.6075 913.3425 155.6075 913.3425 156.9825zM910.5925 156.9825L909.2175 156.9825 909.2175 155.6075 910.5925 155.6075 910.5925 156.9825zM907.8425 156.9825L906.4675 156.9825 906.4675 155.6075 907.8425 155.6075 907.8425 156.9825zM905.0925 156.9825L903.7175 156.9825 903.7175 155.6075 905.0925 155.6075 905.0925 156.9825zM902.3425 156.9825L900.9675 156.9825 900.9675 155.6075 902.3425 155.6075 902.3425 156.9825zM899.5925 156.9825L898.2175 156.9825 898.2175 155.6075 899.5925 155.6075 899.5925 156.9825zM896.8425 156.9825L895.4675 156.9825 895.4675 155.6075 896.8425 155.6075 896.8425 156.9825zM894.0925 156.9825L892.7175 156.9825 892.7175 155.6075 894.0925 155.6075 894.0925 156.9825zM891.3425 156.9825L889.9675 156.9825 889.9675 155.6075 891.3425 155.6075 891.3425 156.9825zM888.5925 156.9825L887.2175 156.9825 887.2175 155.6075 888.5925 155.6075 888.5925 156.9825zM885.8425 156.9825L884.4675 156.9825 884.4675 155.6075 885.8425 155.6075 885.8425 156.9825z"/>
    <path fill="#F4F4F4" fill-rule="nonzero" d="M916.0925 108.491429L914.7175 108.491429 914.7175 107.110476 916.0925 107.110476 916.0925 108.491429zM913.3425 108.491429L911.9675 108.491429 911.9675 107.110476 913.3425 107.110476 913.3425 108.491429zM910.5925 108.491429L909.2175 108.491429 909.2175 107.110476 910.5925 107.110476 910.5925 108.491429zM907.8425 108.491429L906.4675 108.491429 906.4675 107.110476 907.8425 107.110476 907.8425 108.491429zM905.0925 108.491429L903.7175 108.491429 903.7175 107.110476 905.0925 107.110476 905.0925 108.491429zM902.3425 108.491429L900.9675 108.491429 900.9675 107.110476 902.3425 107.110476 902.3425 108.491429zM899.5925 108.491429L898.2175 108.491429 898.2175 107.110476 899.5925 107.110476 899.5925 108.491429zM896.8425 108.491429L895.4675 108.491429 895.4675 107.110476 896.8425 107.110476 896.8425 108.491429zM894.0925 108.491429L892.7175 108.491429 892.7175 107.110476 894.0925 107.110476 894.0925 108.491429zM891.3425 108.491429L889.9675 108.491429 889.9675 107.110476 891.3425 107.110476 891.3425 108.491429zM888.5925 108.491429L887.2175 108.491429 887.2175 107.110476 888.5925 107.110476 888.5925 108.491429zM885.8425 108.491429L884.4675 108.491429 884.4675 107.110476 885.8425 107.110476 885.8425 108.491429zM916.0925 122.37L914.7175 122.37 914.7175 120.989048 916.0925 120.989048 916.0925 122.37zM913.3425 122.37L911.9675 122.37 911.9675 120.989048 913.3425 120.989048 913.3425 122.37zM910.5925 122.37L909.2175 122.37 909.2175 120.989048 910.5925 120.989048 910.5925 122.37zM907.8425 122.37L906.4675 122.37 906.4675 120.989048 907.8425 120.989048 907.8425 122.37zM905.0925 122.37L903.7175 122.37 903.7175 120.989048 905.0925 120.989048 905.0925 122.37zM902.3425 122.37L900.9675 122.37 900.9675 120.989048 902.3425 120.989048 902.3425 122.37zM899.5925 122.37L898.2175 122.37 898.2175 120.989048 899.5925 120.989048 899.5925 122.37zM896.8425 122.37L895.4675 122.37 895.4675 120.989048 896.8425 120.989048 896.8425 122.37zM894.0925 122.37L892.7175 122.37 892.7175 120.989048 894.0925 120.989048 894.0925 122.37zM891.3425 122.37L889.9675 122.37 889.9675 120.989048 891.3425 120.989048 891.3425 122.37zM888.5925 122.37L887.2175 122.37 887.2175 120.989048 888.5925 120.989048 888.5925 122.37zM885.8425 122.37L884.4675 122.37 884.4675 120.989048 885.8425 120.989048 885.8425 122.37zM916.0925 136.248571L914.7175 136.248571 914.7175 134.867619 916.0925 134.867619 916.0925 136.248571zM913.3425 136.248571L911.9675 136.248571 911.9675 134.867619 913.3425 134.867619 913.3425 136.248571zM910.5925 136.248571L909.2175 136.248571 909.2175 134.867619 910.5925 134.867619 910.5925 136.248571zM907.8425 136.248571L906.4675 136.248571 906.4675 134.867619 907.8425 134.867619 907.8425 136.248571zM905.0925 136.248571L903.7175 136.248571 903.7175 134.867619 905.0925 134.867619 905.0925 136.248571zM902.3425 136.248571L900.9675 136.248571 900.9675 134.867619 902.3425 134.867619 902.3425 136.248571zM899.5925 136.248571L898.2175 136.248571 898.2175 134.867619 899.5925 134.867619 899.5925 136.248571zM896.8425 136.248571L895.4675 136.248571 895.4675 134.867619 896.8425 134.867619 896.8425 136.248571zM894.0925 136.248571L892.7175 136.248571 892.7175 134.867619 894.0925 134.867619 894.0925 136.248571zM891.3425 136.248571L889.9675 136.248571 889.9675 134.867619 891.3425 134.867619 891.3425 136.248571zM888.5925 136.248571L887.2175 136.248571 887.2175 134.867619 888.5925 134.867619 888.5925 136.248571zM885.8425 136.248571L884.4675 136.248571 884.4675 134.867619 885.8425 134.867619 885.8425 136.248571zM916.0925 150.127143L914.7175 150.127143 914.7175 148.74619 916.0925 148.74619 916.0925 150.127143zM913.3425 150.127143L911.9675 150.127143 911.9675 148.74619 913.3425 148.74619 913.3425 150.127143zM910.5925 150.127143L909.2175 150.127143 909.2175 148.74619 910.5925 148.74619 910.5925 150.127143zM907.8425 150.127143L906.4675 150.127143 906.4675 148.74619 907.8425 148.74619 907.8425 150.127143zM905.0925 150.127143L903.7175 150.127143 903.7175 148.74619 905.0925 148.74619 905.0925 150.127143zM902.3425 150.127143L900.9675 150.127143 900.9675 148.74619 902.3425 148.74619 902.3425 150.127143zM899.5925 150.127143L898.2175 150.127143 898.2175 148.74619 899.5925 148.74619 899.5925 150.127143zM896.8425 150.127143L895.4675 150.127143 895.4675 148.74619 896.8425 148.74619 896.8425 150.127143zM894.0925 150.127143L892.7175 150.127143 892.7175 148.74619 894.0925 148.74619 894.0925 150.127143zM891.3425 150.127143L889.9675 150.127143 889.9675 148.74619 891.3425 148.74619 891.3425 150.127143zM888.5925 150.127143L887.2175 150.127143 887.2175 148.74619 888.5925 148.74619 888.5925 150.127143zM885.8425 150.127143L884.4675 150.127143 884.4675 148.74619 885.8425 148.74619 885.8425 150.127143zM916.0925 164.005714L914.7175 164.005714 914.7175 162.624762 916.0925 162.624762 916.0925 164.005714zM913.3425 164.005714L911.9675 164.005714 911.9675 162.624762 913.3425 162.624762 913.3425 164.005714zM910.5925 164.005714L909.2175 164.005714 909.2175 162.624762 910.5925 162.624762 910.5925 164.005714zM907.8425 164.005714L906.4675 164.005714 906.4675 162.624762 907.8425 162.624762 907.8425 164.005714zM905.0925 164.005714L903.7175 164.005714 903.7175 162.624762 905.0925 162.624762 905.0925 164.005714zM902.3425 164.005714L900.9675 164.005714 900.9675 162.624762 902.3425 162.624762 902.3425 164.005714zM899.5925 164.005714L898.2175 164.005714 898.2175 162.624762 899.5925 162.624762 899.5925 164.005714zM896.8425 164.005714L895.4675 164.005714 895.4675 162.624762 896.8425 162.624762 896.8425 164.005714zM894.0925 164.005714L892.7175 164.005714 892.7175 162.624762 894.0925 162.624762 894.0925 164.005714zM891.3425 164.005714L889.9675 164.005714 889.9675 162.624762 891.3425 162.624762 891.3425 164.005714zM888.5925 164.005714L887.2175 164.005714 887.2175 162.624762 888.5925 162.624762 888.5925 164.005714zM885.8425 164.005714L884.4675 164.005714 884.4675 162.624762 885.8425 162.624762 885.8425 164.005714z"/>
    <rect width="1" height="1" x="812" y="19" fill="#F4F4F4" fill-rule="nonzero"/>
    <path fill="#F4F4F4" fill-rule="nonzero" d="M968.45 108.491429L967.075 108.491429 967.075 107.110476 968.45 107.110476 968.45 108.491429zM965.7 108.491429L964.325 108.491429 964.325 107.110476 965.7 107.110476 965.7 108.491429zM962.95 108.491429L961.575 108.491429 961.575 107.110476 962.95 107.110476 962.95 108.491429zM960.2 108.491429L958.825 108.491429 958.825 107.110476 960.2 107.110476 960.2 108.491429zM957.45 108.491429L956.075 108.491429 956.075 107.110476 957.45 107.110476 957.45 108.491429zM954.7 108.491429L953.325 108.491429 953.325 107.110476 954.7 107.110476 954.7 108.491429zM951.95 108.491429L950.575 108.491429 950.575 107.110476 951.95 107.110476 951.95 108.491429zM949.2 108.491429L947.825 108.491429 947.825 107.110476 949.2 107.110476 949.2 108.491429zM946.45 108.491429L945.075 108.491429 945.075 107.110476 946.45 107.110476 946.45 108.491429zM943.7 108.491429L942.325 108.491429 942.325 107.110476 943.7 107.110476 943.7 108.491429zM940.95 108.491429L939.575 108.491429 939.575 107.110476 940.95 107.110476 940.95 108.491429zM938.2 108.491429L936.825 108.491429 936.825 107.110476 938.2 107.110476 938.2 108.491429zM968.45 122.37L967.075 122.37 967.075 120.989048 968.45 120.989048 968.45 122.37zM965.7 122.37L964.325 122.37 964.325 120.989048 965.7 120.989048 965.7 122.37zM962.95 122.37L961.575 122.37 961.575 120.989048 962.95 120.989048 962.95 122.37zM960.2 122.37L958.825 122.37 958.825 120.989048 960.2 120.989048 960.2 122.37zM957.45 122.37L956.075 122.37 956.075 120.989048 957.45 120.989048 957.45 122.37zM954.7 122.37L953.325 122.37 953.325 120.989048 954.7 120.989048 954.7 122.37zM951.95 122.37L950.575 122.37 950.575 120.989048 951.95 120.989048 951.95 122.37zM949.2 122.37L947.825 122.37 947.825 120.989048 949.2 120.989048 949.2 122.37zM946.45 122.37L945.075 122.37 945.075 120.989048 946.45 120.989048 946.45 122.37zM943.7 122.37L942.325 122.37 942.325 120.989048 943.7 120.989048 943.7 122.37zM940.95 122.37L939.575 122.37 939.575 120.989048 940.95 120.989048 940.95 122.37zM938.2 122.37L936.825 122.37 936.825 120.989048 938.2 120.989048 938.2 122.37zM968.45 136.248571L967.075 136.248571 967.075 134.867619 968.45 134.867619 968.45 136.248571zM965.7 136.248571L964.325 136.248571 964.325 134.867619 965.7 134.867619 965.7 136.248571zM962.95 136.248571L961.575 136.248571 961.575 134.867619 962.95 134.867619 962.95 136.248571zM960.2 136.248571L958.825 136.248571 958.825 134.867619 960.2 134.867619 960.2 136.248571zM957.45 136.248571L956.075 136.248571 956.075 134.867619 957.45 134.867619 957.45 136.248571zM954.7 136.248571L953.325 136.248571 953.325 134.867619 954.7 134.867619 954.7 136.248571zM951.95 136.248571L950.575 136.248571 950.575 134.867619 951.95 134.867619 951.95 136.248571zM949.2 136.248571L947.825 136.248571 947.825 134.867619 949.2 134.867619 949.2 136.248571zM946.45 136.248571L945.075 136.248571 945.075 134.867619 946.45 134.867619 946.45 136.248571zM943.7 136.248571L942.325 136.248571 942.325 134.867619 943.7 134.867619 943.7 136.248571zM940.95 136.248571L939.575 136.248571 939.575 134.867619 940.95 134.867619 940.95 136.248571zM938.2 136.248571L936.825 136.248571 936.825 134.867619 938.2 134.867619 938.2 136.248571zM968.45 150.127143L967.075 150.127143 967.075 148.74619 968.45 148.74619 968.45 150.127143zM965.7 150.127143L964.325 150.127143 964.325 148.74619 965.7 148.74619 965.7 150.127143zM962.95 150.127143L961.575 150.127143 961.575 148.74619 962.95 148.74619 962.95 150.127143zM960.2 150.127143L958.825 150.127143 958.825 148.74619 960.2 148.74619 960.2 150.127143zM957.45 150.127143L956.075 150.127143 956.075 148.74619 957.45 148.74619 957.45 150.127143zM954.7 150.127143L953.325 150.127143 953.325 148.74619 954.7 148.74619 954.7 150.127143zM951.95 150.127143L950.575 150.127143 950.575 148.74619 951.95 148.74619 951.95 150.127143zM949.2 150.127143L947.825 150.127143 947.825 148.74619 949.2 148.74619 949.2 150.127143zM946.45 150.127143L945.075 150.127143 945.075 148.74619 946.45 148.74619 946.45 150.127143zM943.7 150.127143L942.325 150.127143 942.325 148.74619 943.7 148.74619 943.7 150.127143zM940.95 150.127143L939.575 150.127143 939.575 148.74619 940.95 148.74619 940.95 150.127143zM938.2 150.127143L936.825 150.127143 936.825 148.74619 938.2 148.74619 938.2 150.127143zM968.45 164.005714L967.075 164.005714 967.075 162.624762 968.45 162.624762 968.45 164.005714zM965.7 164.005714L964.325 164.005714 964.325 162.624762 965.7 162.624762 965.7 164.005714zM962.95 164.005714L961.575 164.005714 961.575 162.624762 962.95 162.624762 962.95 164.005714zM960.2 164.005714L958.825 164.005714 958.825 162.624762 960.2 162.624762 960.2 164.005714zM957.45 164.005714L956.075 164.005714 956.075 162.624762 957.45 162.624762 957.45 164.005714zM954.7 164.005714L953.325 164.005714 953.325 162.624762 954.7 162.624762 954.7 164.005714zM951.95 164.005714L950.575 164.005714 950.575 162.624762 951.95 162.624762 951.95 164.005714zM949.2 164.005714L947.825 164.005714 947.825 162.624762 949.2 162.624762 949.2 164.005714zM946.45 164.005714L945.075 164.005714 945.075 162.624762 946.45 162.624762 946.45 164.005714zM943.7 164.005714L942.325 164.005714 942.325 162.624762 943.7 162.624762 943.7 164.005714zM940.95 164.005714L939.575 164.005714 939.575 162.624762 940.95 162.624762 940.95 164.005714zM938.2 164.005714L936.825 164.005714 936.825 162.624762 938.2 162.624762 938.2 164.005714zM968.45 115.5125L967.075 115.5125 967.075 114.1375 968.45 114.1375 968.45 115.5125zM965.7 115.5125L964.325 115.5125 964.325 114.1375 965.7 114.1375 965.7 115.5125zM962.95 115.5125L961.575 115.5125 961.575 114.1375 962.95 114.1375 962.95 115.5125zM960.2 115.5125L958.825 115.5125 958.825 114.1375 960.2 114.1375 960.2 115.5125zM957.45 115.5125L956.075 115.5125 956.075 114.1375 957.45 114.1375 957.45 115.5125zM954.7 115.5125L953.325 115.5125 953.325 114.1375 954.7 114.1375 954.7 115.5125zM951.95 115.5125L950.575 115.5125 950.575 114.1375 951.95 114.1375 951.95 115.5125zM949.2 115.5125L947.825 115.5125 947.825 114.1375 949.2 114.1375 949.2 115.5125zM946.45 115.5125L945.075 115.5125 945.075 114.1375 946.45 114.1375 946.45 115.5125zM943.7 115.5125L942.325 115.5125 942.325 114.1375 943.7 114.1375 943.7 115.5125zM940.95 115.5125L939.575 115.5125 939.575 114.1375 940.95 114.1375 940.95 115.5125zM938.2 115.5125L936.825 115.5125 936.825 114.1375 938.2 114.1375 938.2 115.5125zM968.45 129.33125L967.075 129.33125 967.075 127.95625 968.45 127.95625 968.45 129.33125zM965.7 129.33125L964.325 129.33125 964.325 127.95625 965.7 127.95625 965.7 129.33125zM962.95 129.33125L961.575 129.33125 961.575 127.95625 962.95 127.95625 962.95 129.33125zM960.2 129.33125L958.825 129.33125 958.825 127.95625 960.2 127.95625 960.2 129.33125zM957.45 129.33125L956.075 129.33125 956.075 127.95625 957.45 127.95625 957.45 129.33125zM954.7 129.33125L953.325 129.33125 953.325 127.95625 954.7 127.95625 954.7 129.33125zM951.95 129.33125L950.575 129.33125 950.575 127.95625 951.95 127.95625 951.95 129.33125zM949.2 129.33125L947.825 129.33125 947.825 127.95625 949.2 127.95625 949.2 129.33125zM946.45 129.33125L945.075 129.33125 945.075 127.95625 946.45 127.95625 946.45 129.33125zM943.7 129.33125L942.325 129.33125 942.325 127.95625 943.7 127.95625 943.7 129.33125zM940.95 129.33125L939.575 129.33125 939.575 127.95625 940.95 127.95625 940.95 129.33125zM938.2 129.33125L936.825 129.33125 936.825 127.95625 938.2 127.95625 938.2 129.33125zM968.45 143.16375L967.075 143.16375 967.075 141.78875 968.45 141.78875 968.45 143.16375zM965.7 143.16375L964.325 143.16375 964.325 141.78875 965.7 141.78875 965.7 143.16375zM962.95 143.16375L961.575 143.16375 961.575 141.78875 962.95 141.78875 962.95 143.16375zM960.2 143.16375L958.825 143.16375 958.825 141.78875 960.2 141.78875 960.2 143.16375zM957.45 143.16375L956.075 143.16375 956.075 141.78875 957.45 141.78875 957.45 143.16375zM954.7 143.16375L953.325 143.16375 953.325 141.78875 954.7 141.78875 954.7 143.16375zM951.95 143.16375L950.575 143.16375 950.575 141.78875 951.95 141.78875 951.95 143.16375zM949.2 143.16375L947.825 143.16375 947.825 141.78875 949.2 141.78875 949.2 143.16375zM946.45 143.16375L945.075 143.16375 945.075 141.78875 946.45 141.78875 946.45 143.16375zM943.7 143.16375L942.325 143.16375 942.325 141.78875 943.7 141.78875 943.7 143.16375zM940.95 143.16375L939.575 143.16375 939.575 141.78875 940.95 141.78875 940.95 143.16375zM938.2 143.16375L936.825 143.16375 936.825 141.78875 938.2 141.78875 938.2 143.16375zM968.45 156.9825L967.075 156.9825 967.075 155.6075 968.45 155.6075 968.45 156.9825zM965.7 156.9825L964.325 156.9825 964.325 155.6075 965.7 155.6075 965.7 156.9825zM962.95 156.9825L961.575 156.9825 961.575 155.6075 962.95 155.6075 962.95 156.9825zM960.2 156.9825L958.825 156.9825 958.825 155.6075 960.2 155.6075 960.2 156.9825zM957.45 156.9825L956.075 156.9825 956.075 155.6075 957.45 155.6075 957.45 156.9825zM954.7 156.9825L953.325 156.9825 953.325 155.6075 954.7 155.6075 954.7 156.9825zM951.95 156.9825L950.575 156.9825 950.575 155.6075 951.95 155.6075 951.95 156.9825zM949.2 156.9825L947.825 156.9825 947.825 155.6075 949.2 155.6075 949.2 156.9825zM946.45 156.9825L945.075 156.9825 945.075 155.6075 946.45 155.6075 946.45 156.9825zM943.7 156.9825L942.325 156.9825 942.325 155.6075 943.7 155.6075 943.7 156.9825zM940.95 156.9825L939.575 156.9825 939.575 155.6075 940.95 155.6075 940.95 156.9825zM938.2 156.9825L936.825 156.9825 936.825 155.6075 938.2 155.6075 938.2 156.9825z"/>
    <path fill="#F4F4F4" fill-rule="nonzero" d="M968.45 108.491429L967.075 108.491429 967.075 107.110476 968.45 107.110476 968.45 108.491429zM965.7 108.491429L964.325 108.491429 964.325 107.110476 965.7 107.110476 965.7 108.491429zM962.95 108.491429L961.575 108.491429 961.575 107.110476 962.95 107.110476 962.95 108.491429zM960.2 108.491429L958.825 108.491429 958.825 107.110476 960.2 107.110476 960.2 108.491429zM957.45 108.491429L956.075 108.491429 956.075 107.110476 957.45 107.110476 957.45 108.491429zM954.7 108.491429L953.325 108.491429 953.325 107.110476 954.7 107.110476 954.7 108.491429zM951.95 108.491429L950.575 108.491429 950.575 107.110476 951.95 107.110476 951.95 108.491429zM949.2 108.491429L947.825 108.491429 947.825 107.110476 949.2 107.110476 949.2 108.491429zM946.45 108.491429L945.075 108.491429 945.075 107.110476 946.45 107.110476 946.45 108.491429zM943.7 108.491429L942.325 108.491429 942.325 107.110476 943.7 107.110476 943.7 108.491429zM940.95 108.491429L939.575 108.491429 939.575 107.110476 940.95 107.110476 940.95 108.491429zM938.2 108.491429L936.825 108.491429 936.825 107.110476 938.2 107.110476 938.2 108.491429zM968.45 122.37L967.075 122.37 967.075 120.989048 968.45 120.989048 968.45 122.37zM965.7 122.37L964.325 122.37 964.325 120.989048 965.7 120.989048 965.7 122.37zM962.95 122.37L961.575 122.37 961.575 120.989048 962.95 120.989048 962.95 122.37zM960.2 122.37L958.825 122.37 958.825 120.989048 960.2 120.989048 960.2 122.37zM957.45 122.37L956.075 122.37 956.075 120.989048 957.45 120.989048 957.45 122.37zM954.7 122.37L953.325 122.37 953.325 120.989048 954.7 120.989048 954.7 122.37zM951.95 122.37L950.575 122.37 950.575 120.989048 951.95 120.989048 951.95 122.37zM949.2 122.37L947.825 122.37 947.825 120.989048 949.2 120.989048 949.2 122.37zM946.45 122.37L945.075 122.37 945.075 120.989048 946.45 120.989048 946.45 122.37zM943.7 122.37L942.325 122.37 942.325 120.989048 943.7 120.989048 943.7 122.37zM940.95 122.37L939.575 122.37 939.575 120.989048 940.95 120.989048 940.95 122.37zM938.2 122.37L936.825 122.37 936.825 120.989048 938.2 120.989048 938.2 122.37zM968.45 136.248571L967.075 136.248571 967.075 134.867619 968.45 134.867619 968.45 136.248571zM965.7 136.248571L964.325 136.248571 964.325 134.867619 965.7 134.867619 965.7 136.248571zM962.95 136.248571L961.575 136.248571 961.575 134.867619 962.95 134.867619 962.95 136.248571zM960.2 136.248571L958.825 136.248571 958.825 134.867619 960.2 134.867619 960.2 136.248571zM957.45 136.248571L956.075 136.248571 956.075 134.867619 957.45 134.867619 957.45 136.248571zM954.7 136.248571L953.325 136.248571 953.325 134.867619 954.7 134.867619 954.7 136.248571zM951.95 136.248571L950.575 136.248571 950.575 134.867619 951.95 134.867619 951.95 136.248571zM949.2 136.248571L947.825 136.248571 947.825 134.867619 949.2 134.867619 949.2 136.248571zM946.45 136.248571L945.075 136.248571 945.075 134.867619 946.45 134.867619 946.45 136.248571zM943.7 136.248571L942.325 136.248571 942.325 134.867619 943.7 134.867619 943.7 136.248571zM940.95 136.248571L939.575 136.248571 939.575 134.867619 940.95 134.867619 940.95 136.248571zM938.2 136.248571L936.825 136.248571 936.825 134.867619 938.2 134.867619 938.2 136.248571zM968.45 150.127143L967.075 150.127143 967.075 148.74619 968.45 148.74619 968.45 150.127143zM965.7 150.127143L964.325 150.127143 964.325 148.74619 965.7 148.74619 965.7 150.127143zM962.95 150.127143L961.575 150.127143 961.575 148.74619 962.95 148.74619 962.95 150.127143zM960.2 150.127143L958.825 150.127143 958.825 148.74619 960.2 148.74619 960.2 150.127143zM957.45 150.127143L956.075 150.127143 956.075 148.74619 957.45 148.74619 957.45 150.127143zM954.7 150.127143L953.325 150.127143 953.325 148.74619 954.7 148.74619 954.7 150.127143zM951.95 150.127143L950.575 150.127143 950.575 148.74619 951.95 148.74619 951.95 150.127143zM949.2 150.127143L947.825 150.127143 947.825 148.74619 949.2 148.74619 949.2 150.127143zM946.45 150.127143L945.075 150.127143 945.075 148.74619 946.45 148.74619 946.45 150.127143zM943.7 150.127143L942.325 150.127143 942.325 148.74619 943.7 148.74619 943.7 150.127143zM940.95 150.127143L939.575 150.127143 939.575 148.74619 940.95 148.74619 940.95 150.127143zM938.2 150.127143L936.825 150.127143 936.825 148.74619 938.2 148.74619 938.2 150.127143zM968.45 164.005714L967.075 164.005714 967.075 162.624762 968.45 162.624762 968.45 164.005714zM965.7 164.005714L964.325 164.005714 964.325 162.624762 965.7 162.624762 965.7 164.005714zM962.95 164.005714L961.575 164.005714 961.575 162.624762 962.95 162.624762 962.95 164.005714zM960.2 164.005714L958.825 164.005714 958.825 162.624762 960.2 162.624762 960.2 164.005714zM957.45 164.005714L956.075 164.005714 956.075 162.624762 957.45 162.624762 957.45 164.005714zM954.7 164.005714L953.325 164.005714 953.325 162.624762 954.7 162.624762 954.7 164.005714zM951.95 164.005714L950.575 164.005714 950.575 162.624762 951.95 162.624762 951.95 164.005714zM949.2 164.005714L947.825 164.005714 947.825 162.624762 949.2 162.624762 949.2 164.005714zM946.45 164.005714L945.075 164.005714 945.075 162.624762 946.45 162.624762 946.45 164.005714zM943.7 164.005714L942.325 164.005714 942.325 162.624762 943.7 162.624762 943.7 164.005714zM940.95 164.005714L939.575 164.005714 939.575 162.624762 940.95 162.624762 940.95 164.005714zM938.2 164.005714L936.825 164.005714 936.825 162.624762 938.2 162.624762 938.2 164.005714z"/>
    <rect width="1" height="1" x="864" y="19" fill="#F4F4F4" fill-rule="nonzero"/>
    <rect width="65.936" height="65.332" x="457.615" y="168.697" fill="#F4F4F4" fill-rule="nonzero" opacity=".2"/>
    <polygon fill="#F4F4F4" fill-rule="nonzero" points="458.125 178.392 457.09 178.392 457.09 168.191 467.261 168.191 467.261 169.217 458.125 169.217"/>
    <polygon fill="#F4F4F4" fill-rule="nonzero" points="467.33 234.48 457.035 234.48 457.035 224.417 458.07 224.417 458.07 233.455 467.33 233.455"/>
    <polygon fill="#F4F4F4" fill-rule="nonzero" points="523.661 234.48 513.505 234.48 513.505 233.455 522.626 233.455 522.626 224.28 523.661 224.28"/>
    <polygon fill="#F4F4F4" fill-rule="nonzero" points="523.73 178.255 522.695 178.255 522.695 169.217 513.436 169.217 513.436 168.191 523.73 168.191"/>
    <path fill="#F4F4F4" fill-rule="nonzero" d="M423.76704,375 C345.225743,346.182924 293,271.29917 293,187.5 C293,103.70083 345.225743,28.8170762 423.76704,0 L424,0.645273486 C345.729677,29.3638094 293.684364,103.989641 293.684364,187.5 C293.684364,271.010359 345.729677,345.636191 424,374.354727 L423.76704,375 Z" opacity=".44"/>
    <path fill="#F4F4F4" fill-rule="nonzero" d="M423.765828,352 C354.233795,326.637746 308,260.741131 308,187 C308,113.258869 354.233795,47.3622536 423.765828,22 L424,22.6310014 C354.743506,47.9014706 308.695391,113.541229 308.695391,186.993141 C308.695391,260.445054 354.743506,326.084812 424,351.355281 L423.765828,352 Z" opacity=".44"/>
    <path fill="#152896" fill-rule="nonzero" d="M438.051346 319C382.766711 298.803355 346 246.28025 346 187.5 346 128.71975 382.766711 76.1966446 438.051346 56L439 58.580854C384.793055 78.3780163 348.741423 129.874431 348.741423 187.506864 348.741423 245.139297 384.793055 296.635712 439 316.432874L438.051346 319zM420.043305 368C418.411074 367.396092 416.79256 366.778458 415.174045 366.147099L424.775403 341.90841C426.147025 342.457418 427.518648 342.9927 428.986284 343.514257L420.043305 368zM401.718428 360.190366C359.392224 339.489425 326.14101 303.950083 308.283504 260.325869L332.396627 250.443731C347.834575 288.153215 376.580915 318.872169 413.171476 336.761463L401.718428 360.190366zM303.235933 246.5046C288.823849 201.619714 291.34662 153.00631 310.327221 109.856589L334.152304 120.397536C317.786119 157.677616 315.610314 199.66003 328.034868 238.434188L303.235933 246.5046zM339.734808 109.005627L316.787563 96.6529541C339.050247 55.10578 375.799511 23.1978204 420.043305 7L429 31.4994677C390.748831 45.4992767 358.977764 73.0850952 339.734808 109.005627z" opacity=".44"/>
    <path fill="#F4F4F4" fill-rule="nonzero" d="M561.246638,375 L561,374.354727 C639.262136,345.636191 691.302005,271.010359 691.302005,187.5 C691.302005,103.989641 639.262136,29.3638094 561,0.645273486 L561.246638,0 C639.77972,28.8170762 692,103.70083 692,187.5 C692,271.29917 639.77972,346.182924 561.246638,375 Z" opacity=".44"/>
    <path fill="#F4F4F4" fill-rule="nonzero" d="M562.234119,352 L562,351.355281 C631.240803,326.084812 677.278485,260.445054 677.278485,186.993141 C677.278485,113.541229 631.240803,47.9014706 562,22.6310014 L562.234119,22 C631.763337,47.3502291 678,113.250901 678,187 C678,260.749099 631.763337,326.649771 562.234119,352 Z" opacity=".44"/>
    <path fill="#152896" fill-rule="nonzero" d="M546.935043 319L546 316.432874C600.214959 296.635712 636.271923 245.139297 636.271923 187.506864 636.271923 129.874431 600.214959 78.3780163 546 58.580854L546.935043 56C602.227852 76.1966446 639 128.71975 639 187.5 639 246.28025 602.227852 298.803355 546.935043 319zM564.969795 368L556.013715 343.514257C594.250523 329.500345 626.01059 301.917946 645.259065 266.008098L668.218449 278.360771C645.944504 319.894641 609.201649 351.794342 564.969795 368zM674.692063 265.129686L650.8549 254.575013C667.21695 217.294844 669.397341 175.315178 656.985632 136.538362L681.782865 128.536575C696.169055 173.415425 693.646864 222.011233 674.692063 265.157136L674.692063 265.129686zM652.610457 124.556269C637.163634 86.8486481 608.416007 56.1314259 571.827437 38.238537L583.279699 14.8233594C625.605683 35.5182657 658.859474 71.0527008 676.721925 114.674131L652.610457 124.556269zM560.210592 33.1053152C558.839064 32.5425823 557.467535 32.0072998 556 31.4857425L564.969795 7C566.601914 7.60390845 568.220318 8.22154209 569.825006 8.86662611L560.210592 33.1053152z" opacity=".44"/>
    <rect width="30" height="1" x="329" y="14" fill="#F4F4F4" fill-rule="nonzero" opacity=".37"/>
    <rect width="30" height="1" x="263" y="80" fill="#F4F4F4" fill-rule="nonzero" opacity=".37"/>
    <rect width="30" height="1" x="409" y="110" fill="#F4F4F4" fill-rule="nonzero" opacity=".37"/>
    <rect width="30" height="1" x="389" y="121" fill="#F4F4F4" fill-rule="nonzero" opacity=".37"/>
    <polyline fill="#F4F4F4" fill-rule="nonzero" points="263 177 263 187 254 181.889" opacity=".37"/>
    <polyline fill="#F4F4F4" fill-rule="nonzero" points="163 203 163 213 154 207.889" opacity=".37"/>
    <polyline fill="#F4F4F4" fill-rule="nonzero" points="434 187 434 177 443 182.111" opacity=".37"/>
    <polyline fill="#F4F4F4" fill-rule="nonzero" points="747 256 747 246 756 251.118" opacity=".37"/>
    <path fill="#152896" fill-rule="nonzero" d="M551,206 L485,206 L485,140 L551,140 L551,206 Z M485.688935,205.311783 L550.311065,205.311783 L550.311065,140.688217 L485.688935,140.688217 L485.688935,205.311783 Z" opacity=".44"/>
    <path fill="#152896" fill-rule="nonzero" d="M532.944885 225L467 225 467 159 533 159 532.944885 225zM467.63382 224.311209L532.25595 224.311209 532.25595 159.688791 467.63382 159.688791 467.63382 224.311209zM217 332L204 332 204 252 217 252 217 332zM204.672182 331.312833L216.327818 331.312833 216.327818 252.687167 204.672182 252.687167 204.672182 331.312833z" opacity=".44"/>
    <rect width="13" height="48" x="204" y="284" fill="#E50E32" fill-rule="nonzero" opacity=".25"/>
    <path fill="#152896" fill-rule="nonzero" d="M243,332 L230,332 L230,252 L243,252 L243,332 Z M230.672182,331.312833 L242.327818,331.312833 L242.327818,252.687167 L230.672182,252.687167 L230.672182,331.312833 Z" opacity=".44"/>
    <rect width="13" height="7" x="230" y="325" fill="#E50E32" fill-rule="nonzero" opacity=".25"/>
    <rect width="13" height="7" x="230" y="314" fill="#E50E32" fill-rule="nonzero" opacity=".25"/>
    <rect width="13" height="7" x="230" y="304" fill="#E50E32" fill-rule="nonzero" opacity=".25"/>
    <rect width="13" height="7" x="230" y="293" fill="#E50E32" fill-rule="nonzero" opacity=".25"/>
    <rect width="13" height="58" x="186" y="274" fill="#E50E32" fill-rule="nonzero" opacity=".25"/>
    <rect width="9" height="11" x="601" y="94" fill="#E50E32" fill-rule="nonzero" opacity=".25"/>
    <rect width="9" height="21" x="590" y="94" fill="#E50E32" fill-rule="nonzero" opacity=".25"/>
    <rect width="3.237" height="1.379" x="272.503" y="236.339" fill="#F4F4F4" fill-rule="nonzero" transform="rotate(-1.29 274.122 237.029)"/>
    <rect width="3.237" height="1.379" x="273.287" y="274.144" fill="#F4F4F4" fill-rule="nonzero" transform="rotate(-1.29 274.905 274.834)"/>
    <rect width="3.238" height="1.38" x="273.145" y="313.002" fill="#F4F4F4" fill-rule="nonzero" transform="rotate(-1.146 274.764 313.691)"/>
    <rect width="3.626" height="1.375" x="79.267" y="162.134" fill="#F4F4F4" fill-rule="nonzero" transform="rotate(-1.29 81.08 162.821)"/>
    <rect width="3.626" height="1.375" x="80.145" y="199.821" fill="#F4F4F4" fill-rule="nonzero" transform="rotate(-1.29 81.958 200.509)"/>
    <rect width="3.626" height="1.375" x="81.008" y="237.509" fill="#F4F4F4" fill-rule="nonzero" transform="rotate(-1.29 82.821 238.196)"/>
    <rect width="3.237" height="1.368" x=".021" y="199.703" fill="#F4F4F4" fill-rule="nonzero" transform="rotate(-1.29 1.64 200.387)"/>
    <rect width="3.237" height="1.368" x=".805" y="237.21" fill="#F4F4F4" fill-rule="nonzero" transform="rotate(-1.29 2.423 237.894)"/>
    <rect width="3.237" height="1.368" x="1.588" y="274.717" fill="#F4F4F4" fill-rule="nonzero" transform="rotate(-1.29 3.207 275.401)"/>
    <rect width="3.453" height="1.368" x="395.4" y="191.136" fill="#F4F4F4" fill-rule="nonzero"/>
    <rect width="3.453" height="1.368" x="395.4" y="228.658" fill="#F4F4F4" fill-rule="nonzero"/>
    <rect width="3.453" height="1.368" x="395.4" y="266.18" fill="#F4F4F4" fill-rule="nonzero"/>
    <polygon fill="#F4F4F4" fill-rule="nonzero" points="205.555 152 159 152 159 151.316 205.269 151.316 234.522 122 235 122.479" opacity=".39"/>
    <rect width="93" height="1" x="190" y="149" fill="#F4F4F4" fill-rule="nonzero" opacity=".39" transform="rotate(-45 236.5 149.5)"/>
    <rect width="1" height="19.232" x="716.454" y="72.514" fill="#F4F4F4" fill-rule="nonzero" transform="rotate(-45 716.954 82.127)"/>
    <rect width="18.941" height="1" x="735.373" y="81.845" fill="#F4F4F4" fill-rule="nonzero" transform="rotate(-45 744.847 82.345)"/>
    <rect width="1" height="19.232" x="744.361" y="100.982" fill="#F4F4F4" fill-rule="nonzero" transform="rotate(-45 744.861 110.595)"/>
    <rect width="18.941" height="1" x="707.474" y="110.307" fill="#F4F4F4" fill-rule="nonzero" transform="rotate(-45 716.948 110.807)"/>
    <path fill="#F4F4F4" fill-rule="nonzero" d="M735.154545,100.001538 L727.259091,100.001538 L727.259091,91.9707692 L735.154545,91.9707692 L735.154545,100.001538 Z M727.6,99.6553846 L734.813636,99.6553846 L734.813636,92.3169231 L727.6,92.3169231 L727.6,99.6553846 Z"/>
    <rect width="1.582" height="1" x="719.773" y="96.485" fill="#F4F4F4" fill-rule="nonzero"/>
    <rect width="1.582" height="1" x="740.064" y="96.485" fill="#F4F4F4" fill-rule="nonzero"/>
    <rect width="10.091" height="1" x="744.367" y="73.463" fill="#F4F4F4" fill-rule="nonzero" transform="rotate(-44.84 749.415 73.963)"/>
    <polygon fill="#F4F4F4" fill-rule="nonzero" points="716.718 77.142 710.827 71.146 711.073 70.911 716.964 76.892"/>
    <polygon fill="#F4F4F4" fill-rule="nonzero" points="709.709 122.654 709.464 122.405 716.595 115.163 716.841 115.412"/>
    <rect width="1" height="8.474" x="748.186" y="114.162" fill="#F4F4F4" fill-rule="nonzero" transform="rotate(-44.99 748.686 118.396)"/>
    <rect width="1" height="19.232" x="608.651" y="194.183" fill="#F4F4F4" fill-rule="nonzero" transform="rotate(-45 609.15 203.796)"/>
    <rect width="18.941" height="1" x="627.58" y="203.524" fill="#F4F4F4" fill-rule="nonzero" transform="rotate(-45 637.054 204.024)"/>
    <rect width="1" height="19.232" x="636.558" y="222.651" fill="#F4F4F4" fill-rule="nonzero" transform="rotate(-45 637.058 232.264)"/>
    <rect width="18.941" height="1" x="599.672" y="231.995" fill="#F4F4F4" fill-rule="nonzero" transform="rotate(-45 609.145 232.495)"/>
    <path fill="#F4F4F4" fill-rule="nonzero" d="M627.359091,221.669231 L619.463636,221.669231 L619.463636,213.652308 L627.359091,213.652308 L627.359091,221.669231 Z M619.804545,221.323077 L627.018182,221.323077 L627.018182,213.998462 L619.804545,213.998462 L619.804545,221.323077 Z"/>
    <rect width="1.582" height="1" x="611.964" y="218.152" fill="#F4F4F4" fill-rule="nonzero"/>
    <rect width="1.582" height="1" x="632.255" y="218.152" fill="#F4F4F4" fill-rule="nonzero"/>
    <polygon fill="#F4F4F4" fill-rule="nonzero" points="637.927 199.142 637.682 198.892 644.827 191.651 645.059 191.9"/>
    <polygon fill="#F4F4F4" fill-rule="nonzero" points="608.923 198.823 603.032 192.828 603.264 192.578 609.168 198.574"/>
    <polygon fill="#F4F4F4" fill-rule="nonzero" points="601.9 244.322 601.668 244.086 608.8 236.831 609.045 237.08"/>
    <polygon fill="#F4F4F4" fill-rule="nonzero" points="643.464 243.394 637.559 237.412 637.805 237.163 643.695 243.145"/>
    <rect width="1" height="19.232" x="195.278" y="50.066" fill="#F4F4F4" fill-rule="nonzero" transform="rotate(-45 195.778 59.679)"/>
    <rect width="19.099" height="1" x="214.36" y="59.403" fill="#F4F4F4" fill-rule="nonzero" transform="rotate(-45 223.912 59.903)"/>
    <rect width="1" height="19.232" x="223.418" y="78.534" fill="#F4F4F4" fill-rule="nonzero" transform="rotate(-45 223.918 88.147)"/>
    <rect width="19.099" height="1" x="186.214" y="87.879" fill="#F4F4F4" fill-rule="nonzero" transform="rotate(-45 195.767 88.379)"/>
    <path fill="#F4F4F4" fill-rule="nonzero" d="M214.125,77.5584615 L206.16375,77.5584615 L206.16375,69.5276923 L214.125,69.5276923 L214.125,77.5584615 Z M206.5075,77.2123077 L213.78125,77.2123077 L213.78125,69.8738462 L206.5075,69.8738462 L206.5075,77.2123077 Z"/>
    <rect width="1.595" height="1" x="198.615" y="74.042" fill="#F4F4F4" fill-rule="nonzero"/>
    <rect width="1.595" height="1" x="219.075" y="74.042" fill="#F4F4F4" fill-rule="nonzero"/>
    <polygon fill="#F4F4F4" fill-rule="nonzero" points="224.795 55.017 224.548 54.768 231.739 47.526 231.986 47.775"/>
    <polygon fill="#F4F4F4" fill-rule="nonzero" points="195.549 54.698 189.609 48.703 189.843 48.468 195.796 54.449"/>
    <polygon fill="#F4F4F4" fill-rule="nonzero" points="188.468 100.211 188.234 99.962 195.425 92.72 195.659 92.969"/>
    <polygon fill="#F4F4F4" fill-rule="nonzero" points="230.364 99.269 224.424 93.288 224.671 93.038 230.611 99.034"/>
    <rect width="1" height="19.232" x="460.217" y="40.161" fill="#F4F4F4" fill-rule="nonzero" transform="rotate(-45 460.717 49.774)"/>
    <rect width="18.941" height="1" x="479.146" y="49.489" fill="#F4F4F4" fill-rule="nonzero" transform="rotate(-45 488.62 49.99)"/>
    <rect width="1" height="19.232" x="488.12" y="68.606" fill="#F4F4F4" fill-rule="nonzero" transform="rotate(-45 488.62 78.22)"/>
    <rect width="18.941" height="1" x="451.247" y="77.964" fill="#F4F4F4" fill-rule="nonzero" transform="rotate(-45 460.721 78.464)"/>
    <path fill="#F4F4F4" fill-rule="nonzero" d="M478.931818,67.6415385 L471.090909,67.6415385 L471.090909,59.6246154 L479,59.6246154 L478.931818,67.6415385 Z M471.363636,67.2953846 L478.590909,67.2953846 L478.590909,59.9707692 L471.363636,59.9707692 L471.363636,67.2953846 Z"/>
    <rect width="1.582" height="1" x="463.536" y="64.125" fill="#F4F4F4" fill-rule="nonzero"/>
    <rect width="1.582" height="1" x="483.827" y="64.125" fill="#F4F4F4" fill-rule="nonzero"/>
    <polygon fill="#F4F4F4" fill-rule="nonzero" points="489.5 45.1 489.255 44.865 496.386 37.623 496.632 37.858"/>
    <polygon fill="#F4F4F4" fill-rule="nonzero" points="460.495 44.782 454.591 38.8 454.836 38.551 460.727 44.532"/>
    <polygon fill="#F4F4F4" fill-rule="nonzero" points="453.473 90.294 453.227 90.045 460.359 82.803 460.605 83.052"/>
    <polygon fill="#F4F4F4" fill-rule="nonzero" points="495.023 89.366 489.132 83.371 489.364 83.122 495.268 89.117"/>
    <rect width="106" height="1" x="302" y="351" fill="#F4F4F4" fill-rule="nonzero" opacity=".44" transform="rotate(-45 355 351.5)"/>
    <rect width="9" height="1" x="318" y="372" fill="#152896" fill-rule="nonzero" opacity=".44"/>
    <rect width="24" height="1" x="307" y="367" fill="#152896" fill-rule="nonzero" opacity=".44"/>
    <rect width="15" height="1" x="322" y="361" fill="#152896" fill-rule="nonzero" opacity=".44"/>
    <rect width="8" height="1" x="334" y="356" fill="#152896" fill-rule="nonzero" opacity=".44"/>
    <path fill="#152896" fill-rule="nonzero" d="M740 320L726 320 726 256 739.971717 256 740 320zM726.735354 319.314188L739.292929 319.314188 739.292929 256.685812 726.735354 256.685812 726.735354 319.314188zM737 256L730 256 730 195 737 195 737 256zM730.674374 255.315837L736.325626 255.315837 736.325626 195.684163 730.674374 195.684163 730.674374 255.315837z"/>
    <polygon fill="#152896" fill-rule="nonzero" points="726.473 320 717 308.567 726.5 299 726.973 299.477 717.905 308.607 727 319.564"/>
    <rect width="6" height="1" x="727" y="311" fill="#152896" fill-rule="nonzero"/>
    <rect width="3" height="1" x="731" y="304" fill="#152896" fill-rule="nonzero"/>
    <rect width="1" height="24" x="734" y="267" fill="#152896" fill-rule="nonzero"/>
    <rect width="1" height="1" x="730" y="273" fill="#152896" fill-rule="nonzero"/>
    <rect width="1" height="1" x="730" y="276" fill="#152896" fill-rule="nonzero"/>
    <rect width="13" height="63" x="757" y="256" fill="#152896" fill-rule="nonzero" opacity=".44"/>
    <rect width="6" height="61" x="760" y="196" fill="#152896" fill-rule="nonzero" opacity=".44"/>
    <path fill="#152896" fill-rule="nonzero" d="M770 320L756 320 756 256 770 256 770 320zM756.70922 319.314188L769.29078 319.314188 769.29078 256.685812 756.70922 256.685812 756.70922 319.314188zM766 256L759 256 759 195 766 195 766 256zM759.674374 255.315837L765.325626 255.315837 765.325626 195.684163 759.674374 195.684163 759.674374 255.315837z"/>
    <polygon fill="#152896" fill-rule="nonzero" points="756.486 320 747 308.567 756.5 299 756.973 299.477 747.919 308.607 757 319.564"/>
    <rect width="6" height="1" x="757" y="311" fill="#152896" fill-rule="nonzero"/>
    <rect width="3" height="1" x="760" y="304" fill="#152896" fill-rule="nonzero"/>
    <rect width="1" height="24" x="764" y="267" fill="#152896" fill-rule="nonzero"/>
    <rect width="1" height="1" x="759" y="273" fill="#152896" fill-rule="nonzero"/>
    <rect width="1" height="1" x="759" y="276" fill="#152896" fill-rule="nonzero"/>
    <path fill="#152896" fill-rule="nonzero" d="M800 320L786 320 786 256 800 256 800 320zM786.708502 319.314188L799.291498 319.314188 799.291498 256.685812 786.694332 256.685812 786.708502 319.314188zM796 256L789 256 789 195 796 195 796 256zM789.675676 255.315837L795.324324 255.315837 795.324324 195.684163 789.675676 195.684163 789.675676 255.315837z"/>
    <polygon fill="#152896" fill-rule="nonzero" points="786.486 320 777 308.567 786.5 299 786.986 299.477 777.919 308.607 787 319.564"/>
    <rect width="6" height="1" x="786" y="311" fill="#152896" fill-rule="nonzero"/>
    <rect width="3" height="1" x="790" y="304" fill="#152896" fill-rule="nonzero"/>
    <rect width="1" height="24" x="793" y="267" fill="#152896" fill-rule="nonzero"/>
    <rect width="1" height="1" x="789" y="273" fill="#152896" fill-rule="nonzero"/>
    <rect width="1" height="1" x="789" y="276" fill="#152896" fill-rule="nonzero"/>
    <path fill="#152896" fill-rule="nonzero" d="M830 320L816 320 816 256 830 256 830 320zM816.708502 319.314188L829.291498 319.314188 829.291498 256.685812 816.708502 256.685812 816.708502 319.314188zM826 256L819 256 819 195 826 195 826 256zM819.674374 255.315837L825.325626 255.315837 825.325626 195.684163 819.674374 195.684163 819.674374 255.315837z"/>
    <polygon fill="#152896" fill-rule="nonzero" points="815.473 320 806 308.567 815.5 299 815.973 299.477 806.919 308.607 816 319.564"/>
    <rect width="6" height="1" x="816" y="311" fill="#152896" fill-rule="nonzero"/>
    <rect width="3" height="1" x="820" y="304" fill="#152896" fill-rule="nonzero"/>
    <rect width="1" height="24" x="823" y="267" fill="#152896" fill-rule="nonzero"/>
    <rect width="1" height="1" x="819" y="273" fill="#152896" fill-rule="nonzero"/>
    <rect width="1" height="1" x="819" y="276" fill="#152896" fill-rule="nonzero"/>
    <path fill="#F4F4F4" fill-rule="nonzero" d="M747,204 C745.343146,204 744,202.656854 744,201 C744,199.343146 745.343146,198 747,198 C748.656854,198 750,199.343146 750,201 C750,202.656854 748.656854,204 747,204 Z M747,198.331858 C745.533757,198.331858 744.345133,199.520483 744.345133,200.986726 C744.345133,202.452968 745.533757,203.641593 747,203.641593 C748.466243,203.641593 749.654867,202.452968 749.654867,200.986726 C749.654867,199.520483 748.466243,198.331858 747,198.331858 Z" opacity=".25"/>
    <circle cx="747" cy="201" r="3" fill="#E50E32" fill-rule="nonzero" opacity=".25"/>
    <circle cx="776" cy="201" r="3" fill="#E50E32" fill-rule="nonzero" opacity=".25"/>
    <circle cx="804" cy="201" r="3" fill="#E50E32" fill-rule="nonzero" opacity=".25"/>
    <circle cx="833" cy="201" r="3" fill="#E50E32" fill-rule="nonzero" opacity=".25"/>
    <path fill="#F4F4F4" fill-rule="nonzero" d="M747.013259 212.999971C745.798701 213.005321 744.700759 212.277808 744.232255 211.157235 743.763752 210.036663 744.017143 208.744167 744.874076 207.883444 745.731008 207.02272 747.022373 206.763625 748.145004 207.227176 749.267634 207.690727 749.999988 208.785447 750 210.000015 750.000016 211.651698 748.664926 212.992695 747.013259 212.999971zM747.013259 207.343667C745.553496 207.343667 744.370125 208.527038 744.370125 209.9868 744.370125 211.446561 745.553496 212.629932 747.013259 212.629932 748.473021 212.629932 749.656393 211.446561 749.656393 209.9868 749.656393 208.527038 748.473021 207.343667 747.013259 207.343667zM747.01323 330.999971C745.797473 331.005315 744.698698 330.276365 744.230976 329.154166 743.763253 328.031967 744.019076 326.738433 744.878754 325.878754 745.738433 325.019076 747.031967 324.763253 748.154166 325.230976 749.276365 325.698698 750.005315 326.797473 749.999971 328.01323 749.999971 329.662762 748.662762 330.999971 747.01323 330.999971zM747.01323 325.343666C745.553468 325.343666 744.370097 326.527037 744.370097 327.986799 744.370097 329.446561 745.553468 330.629932 747.01323 330.629932 748.472993 330.629932 749.656364 329.446561 749.656364 327.986799 749.66342 327.281228 749.388066 326.602127 748.891615 326.100712 748.395165 325.599297 747.718837 325.317199 747.01323 325.317235L747.01323 325.343666zM747 223C745.343146 223 744 221.656854 744 220 744 218.343146 745.343146 217 747 217 748.656854 217 750 218.343146 750 220 750 221.656854 748.656854 223 747 223zM747 217.331858C745.533757 217.331858 744.345133 218.520483 744.345133 219.986726 744.345133 221.452968 745.533757 222.641593 747 222.641593 748.466243 222.641593 749.654867 221.452968 749.654867 219.986726 749.654867 218.520483 748.466243 217.331858 747 217.331858zM932.986726 206.999971C931.331619 206.992647 929.995136 205.646276 930.000013 203.99116 930.00489 202.336045 931.349285 200.997573 933.004405 201.000003 934.659526 201.002434 935.999984 202.344848 936 203.999971 936.000008 204.797925 935.682116 205.563006 935.116632 206.125998 934.551149 206.68899 933.784673 207.003501 932.986726 206.999971zM932.986726 201.331829C931.520483 201.331829 930.331859 202.520454 930.331859 203.986696 930.331859 205.452939 931.520483 206.641564 932.986726 206.641564 934.452968 206.641564 935.641593 205.452939 935.641593 203.986696 935.641593 202.520454 934.452968 201.331829 932.986726 201.331829zM747.013259 232.999971C745.798701 233.005321 744.700759 232.277808 744.232255 231.157235 743.763752 230.036663 744.017143 228.744167 744.874076 227.883444 745.731008 227.02272 747.022373 226.763625 748.145004 227.227176 749.267634 227.690727 749.999988 228.785447 750 230.000015 750.000016 231.651698 748.664926 232.992695 747.013259 232.999971zM747.013259 227.343667C745.553496 227.343667 744.370125 228.527038 744.370125 229.9868 744.370125 231.446561 745.553496 232.629932 747.013259 232.629932 748.473021 232.629932 749.656393 231.446561 749.656393 229.9868 749.656393 228.527038 748.473021 227.343667 747.013259 227.343667z" opacity=".25"/>
    <polygon fill="#F4F4F4" fill-rule="nonzero" points="713.339 187 713 187 713 168 730 168 730 168.335 713.339 168.335" opacity=".34"/>
    <rect width="1" height="100" x="719" y="173" fill="#F4F4F4" fill-rule="nonzero" opacity=".34"/>
    <path fill="#E50E32" fill-rule="nonzero" d="M36 199.399064L53.6730952 208C58.5306033 197.982193 68.025024 191.051796 79 189.512774L76.4170092 170C58.9038661 172.383106 43.735411 183.416539 36 199.399064zM119.070274 183L106 197.759313C114.362785 205.182363 118.472655 216.276744 116.960397 227.346333L136.511006 230C138.912215 212.409718 132.370988 194.782149 119.070274 183zM97 275.418554L92.2131939 256.17038C80.656218 259.109402 68.4181161 255.611597 60.1279163 247L46 260.748696C59.1836936 274.42741 78.6141384 280.016466 97 275.418554z" opacity=".25"/>
    <path fill="#E50E32" fill-rule="nonzero" d="M29.2199054 228L48.7454648 226.188333C47.7600906 215.100708 52.3541117 204.249405 61 197.242523L48.6365356 182C34.8955435 193.130335 27.6120222 210.385748 29.2199054 228zM92.5329284 171L89 190.390526C100.047277 192.394107 109.363776 199.748703 113.840473 210L132 202.172632C124.899799 185.872546 110.092906 174.177485 92.5329284 171zM120 261.057365L106.046269 247C97.6917343 255.59092 85.4601192 258.994874 73.9649639 255.927952L69 275.253364C87.2743799 280.10185 106.706316 274.692914 120 261.057365z" opacity=".25"/>
    <path fill="#F4F4F4" fill-rule="nonzero" d="M142.999995 224L142.309986 224C142.3105 198.556009 126.117764 175.91875 102 167.647101L102.220801 167C126.625137 175.354937 143.010942 198.258552 142.999995 224zM23.680294 224L23.0003454 224C22.9117297 197.839476 39.8807699 174.697343 64.7961199 167L65 167.654702C40.3665241 175.258415 23.5886923 198.137375 23.680294 224zM82.5426582 283.999211C70.5871663 284.011376 58.9029162 280.328125 49 273.425489L49.3846005 272.830983C70.8772554 287.760093 99.2795613 286.614532 119.574192 270L120 270.552042C109.377393 279.323383 96.1544958 284.070397 82.5426582 283.999211z" opacity=".44"/>
    <path d="M727,266 L737,256"/>
    <path fill="#F4F4F4" fill-rule="nonzero" d="M885 211L861 211 873.020489 191 873.170746 191.248791 885 211zM861.655663 210.654457L884.398976 210.654457 873.020489 191.704907 861.655663 210.654457zM915 211L891 211 902.993155 191 903.143754 191.248791 915 211zM891.602396 210.654457L914.397604 210.654457 902.993155 191.704907 891.602396 210.654457z" opacity=".56"/>
    <polygon fill="#E50E32" fill-rule="nonzero" points="891 210 902.493 191 914 210" opacity=".25"/>
    <path fill="#F4F4F4" fill-rule="nonzero" d="M883,275 L859,275 L870.993155,255 L871.143754,255.249135 L883,275 Z M859.602396,274.653979 L882.397604,274.653979 L870.993155,255.622837 L859.602396,274.653979 Z" opacity=".56"/>
    <polygon fill="#E50E32" fill-rule="nonzero" points="859 274 870.493 255 882 274" opacity=".25"/>
    <path fill="#F4F4F4" fill-rule="nonzero" d="M945 211L921 211 932.993155 191 933.143754 191.248791 945 211zM921.602396 210.654457L944.397604 210.654457 932.993155 191.704907 921.602396 210.654457zM975 211L951 211 963.006845 191 963.143754 191.248791 975 211zM951.602396 210.654457L974.397604 210.654457 963.006845 191.704907 951.602396 210.654457z" opacity=".56"/>
    <path fill="#F4F4F4" fill-rule="nonzero" d="M969 198L957 198 963.035757 188 963.178784 188.258993 969 198zM957.557807 197.640288L968.442193 197.640288 963.05006 188.705036 957.557807 197.640288zM1004 211L980 211 991.993155 191 992.143754 191.248791 1004 211zM980.602396 210.654457L1003.3976 210.654457 991.993155 191.704907 980.602396 210.654457z" opacity=".56"/>
    <rect width="10" height="1" x="863" y="218" fill="#F4F4F4" fill-rule="nonzero"/>
    <rect width="5" height="1" x="863" y="223" fill="#F4F4F4" fill-rule="nonzero"/>
    <polygon fill="#152896" fill-rule="nonzero" points="1012 236 952.742 236 939.984 223.668 921 223.668 921 223 940.274 223 953.018 235.332 1012 235.332" opacity=".67"/>
    <rect width="8" height="1" x="999" y="230" fill="#F4F4F4" fill-rule="nonzero" opacity=".67"/>
    <rect width="20" height="1" x="966" y="235" fill="#F4F4F4" fill-rule="nonzero" opacity=".67"/>
    <rect width="107" height="1" x="897" y="246" fill="#F4F4F4" fill-rule="nonzero" opacity=".67"/>
    <rect width="19" height="1" x="906" y="245" fill="#F4F4F4" fill-rule="nonzero" opacity=".67"/>
  </g>
</svg>
