<?xml version="1.0"?>
<svg xmlns="http://www.w3.org/2000/svg" xmlns:xlink="http://www.w3.org/1999/xlink" version="1.1" id="Layer_1" x="0px" y="0px" viewBox="0 0 511.958 511.958" style="enable-background:new 0 0 511.958 511.958;" xml:space="preserve" width="512px" height="512px" class=""><g><g id="XMLID_2413_">
	<g id="XMLID_1430_">
		<path id="XMLID_1867_" d="M498.723,392.059c-14.902-14.9-38.076-17.172-55.479-6.667l-42.956-42.956    c6.732-7.604,11.981-16.508,15.391-26.323c5.386-15.503,2.477-32.406-7.782-45.217c-1.943-2.427-3.729-5.024-5.332-7.756    c12.084-19.733,18.463-41.919,18.463-64.284c0-17.131-3.693-33.686-10.5-49.046l22.153-22.153    c17.563,10.644,40.978,8.369,56.026-6.68c8.621-8.622,13.369-20.084,13.369-32.276c0-12.193-4.748-23.655-13.369-32.277    c-7.056-7.055-16.099-11.521-25.771-12.904c-1.385-9.675-5.85-18.717-12.905-25.772c-17.796-17.796-46.754-17.798-64.554,0    c-15.049,15.049-17.324,38.465-6.68,56.027l-17.484,17.484c-18.026-12.665-39.417-22.198-63.156-27.485    c-5.388-1.201-10.734,2.195-11.935,7.587c-1.201,5.391,2.196,10.734,7.587,11.935c63.129,14.061,107.219,61.58,107.219,115.561    c0,19.475-5.516,38.062-16.394,55.244c-0.628,0.992-1.076,2.087-1.325,3.234l-1.119,5.174c-0.491,2.273-0.175,4.647,0.895,6.714    c2.614,5.047,5.71,9.816,9.201,14.176c5.934,7.409,7.616,17.186,4.501,26.151c-4.91,14.131-14.917,25.745-28.178,32.702    c-2.624,1.377-4.503,3.846-5.129,6.742l-0.628,2.904c-0.149,0.694-0.226,1.403-0.226,2.113v43.006    c0,34.275-27.885,62.16-62.16,62.16h-88.748c-34.275,0-62.161-27.885-62.161-62.16v-43.006c0-0.718-0.077-1.433-0.23-2.134    l-0.607-2.781c-0.634-2.901-2.524-5.371-5.159-6.74c-13.371-6.946-23.453-18.597-28.389-32.807    c-3.115-8.966-1.433-18.742,4.501-26.151c3.496-4.366,6.596-9.142,9.211-14.195c1.072-2.072,1.387-4.454,0.889-6.733l-1.128-5.157    c-0.25-1.14-0.696-2.227-1.32-3.212c-10.878-17.183-16.394-35.77-16.394-55.244c0-53.981,44.091-101.502,107.222-115.562    c5.391-1.2,8.788-6.544,7.587-11.935c-1.2-5.392-6.545-8.79-11.935-7.587c-23.741,5.287-45.132,14.821-63.159,27.486    l-17.484-17.484c10.645-17.563,8.369-40.979-6.68-56.027c-17.797-17.795-46.755-17.797-64.554,0    c-7.056,7.056-11.521,16.098-12.905,25.772c-9.673,1.384-18.716,5.85-25.771,12.904C14.629,65.046,9.881,76.508,9.881,88.702    c0,12.192,4.748,23.654,13.369,32.276c15.049,15.048,38.462,17.323,56.026,6.68l22.153,22.153    c-6.807,15.36-10.5,31.914-10.5,49.046c0,22.365,6.379,44.551,18.464,64.285c-1.604,2.729-3.389,5.328-5.333,7.755    c-10.259,12.811-13.168,29.714-7.782,45.217c3.411,9.819,8.657,18.723,15.389,26.326l-42.953,42.954    c-17.404-10.504-40.578-8.233-55.48,6.667c-17.646,17.646-17.646,46.36,0,64.007c6.977,6.976,15.912,11.398,25.474,12.784    c1.386,9.563,5.809,18.498,12.784,25.474c8.823,8.823,20.413,13.234,32.004,13.234c11.59,0,23.18-4.411,32.003-13.234    c14.9-14.9,17.171-38.074,6.667-55.48l12.73-12.73c11.774,30.981,41.76,53.064,76.821,53.064h88.748    c35,0,64.939-22.006,76.757-52.902l12.568,12.568c-10.504,17.406-8.233,40.58,6.667,55.48    c8.824,8.824,20.412,13.235,32.004,13.234c11.588-0.001,23.181-4.412,32.002-13.234c6.977-6.976,11.399-15.911,12.785-25.474    c9.561-1.386,18.498-5.809,25.474-12.784C516.37,438.419,516.37,409.706,498.723,392.059z M377.005,103.852l22.096-22.095    c3.848-3.849,3.912-10.066,0.146-13.994c-9.584-9.99-9.417-26.083,0.373-35.872c9.999-9.998,26.27-9.999,36.269,0    c5.382,5.382,8.081,12.826,7.405,20.426c-0.262,2.949,0.796,5.863,2.891,7.957c2.093,2.094,5.004,3.15,7.957,2.89    c7.594-0.674,15.041,2.022,20.424,7.404c10,9.999,10,26.27,0,36.269c-9.789,9.791-25.882,9.956-35.871,0.373    c-3.927-3.767-10.146-3.702-13.994,0.146l-24.132,24.131C394.066,121.49,386.147,112.208,377.005,103.852z M87.258,107.354    c-3.85-3.848-10.066-3.913-13.994-0.146c-9.989,9.585-26.081,9.417-35.871-0.373c-4.844-4.844-7.512-11.284-7.512-18.134    c0-6.851,2.668-13.291,7.512-18.135c5.381-5.383,12.829-8.085,20.424-7.404c2.96,0.266,5.864-0.795,7.957-2.89    c2.095-2.094,3.152-5.008,2.891-7.957c-0.676-7.6,2.023-15.044,7.405-20.426c9.998-10,26.269-10,36.269,0    c9.79,9.789,9.957,25.882,0.373,35.872c-3.767,3.928-3.702,10.146,0.146,13.994l22.095,22.095    c-9.142,8.356-17.06,17.638-23.562,27.634L87.258,107.354z M101.87,430.856c-3.848,3.849-3.912,10.067-0.145,13.994    c9.439,9.84,9.274,25.689-0.368,35.331c-9.848,9.852-25.873,9.848-35.723,0c-5.3-5.3-7.959-12.633-7.293-20.117    c0.262-2.949-0.796-5.863-2.89-7.957s-5.017-3.152-7.957-2.89c-7.487,0.669-14.817-1.993-20.117-7.294    c-9.849-9.849-9.849-25.873,0-35.722c9.642-9.642,25.49-9.81,35.331-0.367c3.927,3.767,10.146,3.702,13.994-0.146l50.067-50.067    c0.915,0.613,1.844,1.208,2.788,1.785v39.61c0,1.991,0.096,3.959,0.236,5.915L101.87,430.856z M484.581,441.923    c-5.302,5.301-12.635,7.963-20.117,7.294c-2.945-0.262-5.862,0.797-7.957,2.89c-2.094,2.094-3.151,5.008-2.89,7.957    c0.666,7.484-1.993,14.817-7.294,20.117c-9.847,9.85-25.873,9.852-35.722,0c-9.643-9.642-9.808-25.491-0.368-35.331    c3.768-3.927,3.703-10.146-0.145-13.994l-27.714-27.714c0.15-2.024,0.252-4.062,0.252-6.125v-39.744    c0.867-0.533,1.718-1.087,2.561-1.652l50.068,50.068c3.849,3.847,10.065,3.912,13.994,0.146    c9.841-9.439,25.691-9.275,35.331,0.367C494.429,416.05,494.429,432.075,484.581,441.923z" data-original="#000000" class="active-path" data-old_color="#FDFBFB" fill="#FFFDFD"/>
		<path id="XMLID_1871_" d="M255.979,79.177h0.282c5.522,0,10-4.478,10-10s-4.478-10-10-10h-0.282c-5.522,0-10,4.478-10,10    S250.457,79.177,255.979,79.177z" data-original="#000000" class="active-path" data-old_color="#FDFBFB" fill="#FFFDFD"/>
		<path id="XMLID_1874_" d="M191.144,205.378c-24.504,0-44.439,19.936-44.439,44.44v23.12c0,24.504,19.936,44.439,44.439,44.439    h4.806c24.505,0,44.44-19.936,44.44-44.439v-23.12c0-24.505-19.936-44.44-44.44-44.44H191.144z M220.39,249.819v23.12    c0,13.476-10.964,24.439-24.44,24.439h-4.806c-13.476,0-24.439-10.964-24.439-24.439v-23.12c0-13.477,10.964-24.44,24.439-24.44    h4.806C209.426,225.378,220.39,236.342,220.39,249.819z" data-original="#000000" class="active-path" data-old_color="#FDFBFB" fill="#FFFDFD"/>
		<path id="XMLID_1910_" d="M313.568,317.378h4.806c24.505,0,44.44-19.936,44.44-44.439v-23.12c0-24.505-19.936-44.44-44.44-44.44    h-4.806c-24.504,0-44.439,19.936-44.439,44.44v23.12C269.128,297.443,289.064,317.378,313.568,317.378z M289.128,249.819    c0-13.477,10.964-24.44,24.439-24.44h4.806c13.477,0,24.44,10.964,24.44,24.44v23.12c0,13.476-10.964,24.439-24.44,24.439h-4.806    c-13.476,0-24.439-10.964-24.439-24.439V249.819z" data-original="#000000" class="active-path" data-old_color="#FDFBFB" fill="#FFFDFD"/>
		<path id="XMLID_1913_" d="M295.979,366.378H209.54c-12.131,0-22,9.869-22,22v22.218c0,12.131,9.869,22,22,22h86.439    c12.131,0,22-9.869,22-22v-22.218C317.979,376.248,308.11,366.378,295.979,366.378z M297.979,410.596c0,1.103-0.897,2-2,2H209.54    c-1.103,0-2-0.897-2-2v-22.218c0-1.103,0.897-2,2-2h86.439c1.103,0,2,0.897,2,2V410.596z" data-original="#000000" class="active-path" data-old_color="#FDFBFB" fill="#FFFDFD"/>
		<path id="XMLID_1914_" d="M231.076,338.618c1.786,3.094,5.088,5,8.66,5h26.046c3.572,0,6.874-1.906,8.66-5s1.786-6.906,0-10    l-13.022-22.557c-1.786-3.094-5.087-5-8.66-5c-3.572,0-6.874,1.906-8.66,5l-13.023,22.557    C229.29,331.711,229.29,335.524,231.076,338.618z" data-original="#000000" class="active-path" data-old_color="#FDFBFB" fill="#FFFDFD"/>
	</g>
</g></g> </svg>
