<svg xmlns="http://www.w3.org/2000/svg" width="30" height="32" viewBox="0 0 30 32">
  <path fill="#FFF" d="M10.8849558,4.24778761 C10.8849558,1.90181416 12.7867699,0 15.1327434,0 C17.4787168,0 19.380531,1.90181416 19.380531,4.24778761 C19.380531,6.59376106 17.4787168,8.49557522 15.1327434,8.49557522 C12.7867699,8.49557522 10.8849558,6.59376106 10.8849558,4.24778761 Z M19.8959071,7.98019912 C19.8959071,5.63422566 21.7977212,3.7324115 24.1436947,3.7324115 C26.4896681,3.7324115 28.3914823,5.63422566 28.3914823,7.98019912 C28.3914823,10.3261726 26.4896681,12.2279867 24.1436947,12.2279867 C21.7977212,12.2279867 19.8959071,10.3261726 19.8959071,7.98019912 Z M25.7522124,16.9911504 C25.7522124,15.8181637 26.7031195,14.8672566 27.8761062,14.8672566 C29.0490929,14.8672566 30,15.8181637 30,16.9911504 C30,18.1641372 29.0490929,19.1150442 27.8761062,19.1150442 C26.7031195,19.1150442 25.7522124,18.1641372 25.7522124,16.9911504 Z M22.0198009,26.0021018 C22.0198009,24.829115 22.970708,23.878208 24.1436947,23.878208 C25.3166814,23.878208 26.2675885,24.829115 26.2675885,26.0021018 C26.2675885,27.1750885 25.3166814,28.1259956 24.1436947,28.1259956 C22.970708,28.1259956 22.0198009,27.1750885 22.0198009,26.0021018 Z M13.0089159,29.7345133 C13.0089159,29.7345133 13.0089159,29.7345133 13.0089159,29.7345133 C13.0089159,28.5615265 13.959823,27.6106195 15.1328097,27.6106195 C16.3057965,27.6106195 17.2567035,28.5615265 17.2567035,29.7345133 C17.2567035,29.7345133 17.2567035,29.7345133 17.2567035,29.7345133 C17.2567035,30.9075 16.3057965,31.8584071 15.1328097,31.8584071 C13.959823,31.8584071 13.0089159,30.9075 13.0089159,29.7345133 Z M3.9979646,26.0021018 C3.9979646,26.0021018 3.9979646,26.0021018 3.9979646,26.0021018 C3.9979646,24.829115 4.94887168,23.878208 6.12185841,23.878208 C7.29484513,23.878208 8.24575221,24.829115 8.24575221,26.0021018 C8.24575221,26.0021018 8.24575221,26.0021018 8.24575221,26.0021018 C8.24575221,27.1750885 7.29484513,28.1259956 6.12185841,28.1259956 C4.94887168,28.1259956 3.9979646,27.1750885 3.9979646,26.0021018 Z M2.9360177,7.98019912 C2.9360177,7.98019912 2.9360177,7.98019912 2.9360177,7.98019912 C2.9360177,6.22068584 4.36234513,4.79435841 6.12185841,4.79435841 C7.88137168,4.79435841 9.30769912,6.22068584 9.30769912,7.98019912 C9.30769912,7.98019912 9.30769912,7.98019912 9.30769912,7.98019912 C9.30769912,9.73964602 7.88137168,11.1660398 6.12185841,11.1660398 C4.36234513,11.1660398 2.9360177,9.73971239 2.9360177,7.98019912 Z M0,16.9911504 C0,15.6715487 1.06971239,14.6017699 2.38938053,14.6017699 C3.70904867,14.6017699 4.77876106,15.6715487 4.77876106,16.9911504 C4.77876106,18.3107522 3.7089823,19.380531 2.38938053,19.380531 C1.06977876,19.380531 0,18.3107522 0,16.9911504 Z"/>
</svg>
