<svg xmlns="http://www.w3.org/2000/svg" width="1440" height="970" viewBox="0 0 1440 970">
  <g fill="none" fill-rule="evenodd" transform="translate(-69 -34)">
    <polygon fill="#152896" points="364 611.251 364 203.749 9.999 0 9.999 815" opacity=".17"/>
    <path fill="#152896" fill-rule="nonzero" d="M393.078926,608.181008 L396.078926,608.181008 L396.078926,668.656713 L343.414629,698.892743 L341.920922,696.291044 L393.078926,666.919818 L393.078926,608.181008 Z M396.079825,517.090688 L393.079825,517.090688 L393.079825,486.526689 L396.079825,486.526689 L396.079825,517.090688 Z M396.079825,455.96269 L393.079825,455.96269 L393.079825,425.398691 L396.079825,425.398691 L396.079825,455.96269 Z M396.079825,394.834692 L393.079825,394.834692 L393.079825,380.449993 L396.079825,380.449993 L396.079825,394.834692 Z M341.921821,246.792859 L343.415529,244.19116 L396.079825,274.427191 L396.079825,334.902896 L393.079825,334.902896 L393.079825,276.164086 L341.921821,246.792859 Z M264.087762,198.644659 L262.594057,201.246359 L236.087935,186.028488 L237.581641,183.426788 L264.087762,198.644659 Z M211.07552,168.208917 L209.581814,170.810618 L183.075693,155.592747 L184.569399,152.991047 L211.07552,168.208917 Z M158.063277,137.773176 L156.569572,140.374876 L143.597913,132.927501 L145.091618,130.325801 L158.063277,137.773176 Z M1.60846637,110.153039 L0.114694043,107.551378 L52.7697115,77.3189286 L105.427737,107.551359 L103.934029,110.153058 L52.7697546,80.7782312 L1.60846637,110.153039 Z M103.933729,832.930846 L105.427437,835.532545 L52.7694118,865.764975 L0.114394342,835.532526 L1.60816667,832.930865 L52.7694549,862.305673 L103.933729,832.930846 Z M184.757613,789.985738 L183.263879,787.384054 L209.769835,772.165895 L211.263569,774.767579 L184.757613,789.985738 Z M237.769524,759.54942 L236.275791,756.947737 L262.781746,741.729578 L264.27548,744.331262 L237.769524,759.54942 Z M290.781436,729.113103 L289.287702,726.511419 L302.257026,719.065197 L303.75076,721.666881 L290.781436,729.113103 Z"/>
    <polygon stroke="#152896" stroke-width=".5" points="779 489.75 779 377.25 682 321 585 377.25 585 489.75 682 546"/>
    <path fill="#152896" fill-rule="nonzero" d="M786.015097,489.097047 L789.015097,489.097047 L789.015097,506.418538 L774.047243,515.080026 L772.544669,512.483437 L786.015097,504.688469 L786.015097,489.097047 Z M789.015343,463.948702 L786.015343,463.948702 L786.015343,433.384702 L789.015343,433.384702 L789.015343,463.948702 Z M772.544915,390.263645 L774.047489,387.667057 L789.015343,396.328545 L789.015343,413.650036 L786.015343,413.650036 L786.015343,398.058614 L772.544915,390.263645 Z M752.318579,375.092514 L750.816006,377.689103 L724.361956,362.380895 L725.864528,359.784305 L752.318579,375.092514 Z M680.4221,352.539915 L678.919461,349.943365 L693.889079,341.280356 L708.859529,349.943346 L707.356955,352.539934 L693.889122,344.746468 L680.4221,352.539915 Z M657.189914,362.517979 L658.692515,365.114552 L632.238631,380.423049 L630.73603,377.826476 L657.189914,362.517979 Z M601.763433,398.058614 L601.763433,413.650036 L598.763433,413.650036 L598.763433,396.328545 L613.731287,387.667057 L615.233861,390.263645 L601.763433,398.058614 Z M598.763597,438.799616 L601.763597,438.799616 L601.763597,469.363615 L598.763597,469.363615 L598.763597,438.799616 Z M601.763597,504.688469 L615.234025,512.483437 L613.731451,515.080026 L598.763597,506.418538 L598.763597,489.097047 L601.763597,489.097047 L601.763597,504.688469 Z M635.460733,527.654547 L636.963383,525.058002 L663.416977,540.367 L661.914327,542.963544 L635.460733,527.654547 Z M707.356872,550.207149 L708.859447,552.803737 L693.888997,561.466727 L678.919379,552.803718 L680.422018,550.207167 L693.88904,558.000615 L707.356872,550.207149 Z M730.589027,540.229104 L729.086426,537.632531 L755.540309,522.324034 L757.04291,524.920607 L730.589027,540.229104 Z"/>
    <g opacity=".244" transform="translate(1185 560)">
      <polygon fill="#F4F4F4" points="280.29 5.142 280.18 .3 293.164 .015 293.279 4.856"/>
      <polygon fill="#F4F4F4" points="283.408 137.848 283.298 133.006 296.282 132.72 296.397 137.562"/>
      <polygon fill="#F4F4F4" points="286.529 270.558 286.419 265.717 299.403 265.431 299.519 270.273"/>
      <polygon fill="#F4F4F4" points=".113 135.075 .003 130.233 12.987 129.948 13.102 134.789"/>
      <polygon fill="#F4F4F4" points="3.234 267.785 3.123 262.944 16.107 262.658 16.218 267.5"/>
      <polygon fill="#F4F4F4" points="6.352 416.492 6.242 411.65 19.226 411.364 19.341 416.206"/>
      <path fill="#E50E32" d="M127.837004 131.969154L190.425179 162.070175C207.899402 126.444495 242.311297 102.604754 280.740088 97.3623068L271.333493 29.1052632C210.238967 37.3946434 155.60241 75.2636704 127.837004 131.969154M340.898678 394.749539L323.958505 327.254019C303.852938 332.316303 282.174356 332.185882 260.926538 325.766248 241.048454 319.76203 223.929199 308.961201 210.41094 295.035088L160.422907 343.532549C181.903048 365.62691 209.118647 382.765256 240.733851 392.315005 274.531918 402.526522 308.973711 402.763213 340.898678 394.749539" opacity=".597"/>
      <path fill="#E50E32" d="M103.576633 229.807018L172.444316 223.42347C168.769387 183.615631 185.630824 145.222603 215.568282 120.818331L172.074421 66.7368421C124.444463 105.501681 97.6871399 166.468902 103.576633 229.807018M423.61674 346.912371L374.235464 297.54386C359.701054 312.382162 341.140838 323.55957 319.68436 329.094724 299.622915 334.264763 279.426311 333.875306 260.687493 328.914601L243.140969 396.762834C272.900066 404.620124 304.985828 405.218914 336.897814 396.986772 371.020613 388.189918 400.528701 370.450163 423.61674 346.912371" opacity=".597"/>
      <path fill="#F4F4F4" d="M82.6048035 214.754386L80.2114537 214.754386C80.2114537 122.178589 139.355913 41.5223395 227.388103 14.0526316L228.101322 16.3433747C141.074338 43.5009269 82.6048035 123.235116 82.6048035 214.754386M290.41297 444C248.311442 444 207.698109 431.544679 172.955947 407.974045L174.300124 405.978495C208.643833 429.274379 248.796306 441.589915 290.41297 441.589915 337.876803 441.589915 382.551469 425.938821 419.617136 396.333333L421.110132 398.21802C383.62201 428.17056 338.424075 444 290.41297 444"/>
    </g>
  </g>
</svg>
