<svg height="39" viewBox="0 0 234 39" width="234" xmlns="http://www.w3.org/2000/svg"><g fill="none" fill-rule="evenodd" transform="translate(10 10)"><path d="m6.86528229 15.3035303v-1.45152h1.84865142v1.45152c0 1.17936-.36195428 2.0902628-1.08308571 2.7327086-.72205714.6424457-1.80421714.9636685-3.24740571.9636685-1.44411429 0-2.53460572-.3212228-3.27425143-.9636685-.73964572-.6424458-1.10900572-1.5533486-1.10900572-2.7327086v-10.5614743c0-1.17936.36102857-2.09026286 1.08216-2.73270857.72205715-.64244572 1.80421715-.96366857 3.24833143-.96366857 1.44318857 0 2.53460572.32122285 3.27332572.96366857.73964571.64244571 1.10993142 1.55334857 1.10993142 2.73270857v2.50868571h-1.84865142v-2.50868571c0-1.40801143-.83592-2.11155429-2.50868572-2.11155429-1.67276571 0-2.50776.70354286-2.50776 2.11155429v10.5614743c0 1.4080114.83499429 2.11248 2.50776 2.11248 1.67276572 0 2.50868572-.7044686 2.50868572-2.11248" fill="#e50e32"/><path d="m34.6112111 19h-1.8005038v-4.94957c-2.3315488-.2687934-3.4964216-1.5061859-3.4964216-3.7121776v-8.82396669h1.7996022v8.82396669c0 1.4345077.8574258 2.152233 2.5713756 2.152233 1.7148514 0 2.5722771-.7177253 2.5722771-2.152233v-8.82396669h1.7996023v8.82396669c0 2.2059917-1.148644 3.4433842-3.4459318 3.7121776z" fill="#fff"/><path d="m67.371 1.514v1.614h-3.444v15.872h-1.854v-15.872h-3.444v-1.614z" fill="#fff"/><path d="m80.3561143 15.3035303v-10.5614743c0-1.40801143-.8892468-2.11155429-2.6668052-2.11155429-1.7784935 0-2.6677403.70354286-2.6677403 2.11155429v10.5614743c0 1.4080114.8892468 2.11248 2.6677403 2.11248 1.7775584 0 2.6668052-.7044686 2.6668052-2.11248m1.8673247-10.5614743v10.5614743c0 1.17936-.3787013 2.0902628-1.1342338 2.7327086-.7555325.6424457-1.8841558.9636685-3.3868052.9636685s-2.6359481-.3212228-3.4008312-.9636685c-.763948-.6424458-1.1463896-1.5533486-1.1463896-2.7327086v-10.5614743c0-1.17936.3777663-2.09026286 1.1332987-2.73270857.7555325-.64244572 1.8841559-.96366857 3.3868052-.96366857 1.5026494 0 2.6359481.32122285 3.4008312.96366857.763948.64244571 1.1473247 1.55334857 1.1473247 2.73270857" fill="#fff"/><path d="m96.8912416 15.3035303c0 2.4651771-1.5026494 3.6963771-4.507013 3.6963771-3.0052987 0-4.5079481-1.2312-4.5079481-3.6963771v-2.2439314h1.8673247v2.3494628c0 .6341143.2225454 1.12752.6657662 1.4783657.4450909.3526972 1.1033767.5285829 1.9748572.5285829.8705454 0 1.5278961-.1758857 1.972987-.5285829.4450909-.3508457.6667013-.8312914.6667013-1.43856 0-.6072685-.0663896-1.0914171-.2001039-1.4524457-.1337143-.3601028-.4048831-.7433486-.8135065-1.1478857l-4.694026-4.54155429c-.5507532-.54524571-.9285195-1.07845714-1.1332987-1.59778285-.2038441-.51932572-.3067013-1.17473143-.3067013-1.96714286 0-1.17936.3693507-2.09026286 1.1071169-2.73270857.7377662-.64244572 1.8532987-.96366857 3.3465974-.96366857 2.8631688 0 4.2947533 1.23212571 4.2947533 3.69637714v2.24485714h-1.8673247v-2.35038857c0-.63411428-.2094546-1.12659428-.6264935-1.47836571-.4179741-.35177143-1.0444676-.52765715-1.8804156-.52765715-.8359481 0-1.4624416.17588572-1.8804156.52765715s-.6264935.83592-.6264935 1.45244571c0 .6156.0617143 1.09974857.187013 1.45152.1234286.35269714.3992727.72205714.8256623 1.10900572l4.7744416 4.54155431c.5161558.56376.8714805 1.1043771 1.0669091 1.6237028.1954285.5202515.2936104 1.1756572.2936104 1.9671429" fill="#e50e32"/><path d="m121.628097 1.51428571c-.830477 0-1.550857.57153953-1.734037 1.37697643l-3.665489 16.10873786c1.108569 0 2.068126-.7629958 2.312998-1.8372261l.501134-2.1984466.352122-1.6137032 2.219984-9.73786404 2.219984 9.73786404.379647 1.6137032.501134 2.1984466c.244872 1.0742303 1.205378 1.8372261 2.312997 1.8372261l-3.665489-16.10873786c-.183179-.8054369-.903559-1.37697643-1.734985-1.37697643m16.766469 13.78924459v-1.45152h1.867325v1.45152c0 1.17936-.36561 2.0902628-1.094026 2.7327086-.728416.6424457-1.822442.9636685-3.280208.9636685s-2.560208-.3212228-3.307325-.9636685c-.747116-.6424458-1.120207-1.5533486-1.120207-2.7327086v-10.5614743c0-1.17936.364675-2.09026286 1.094026-2.73270857.728415-.64244572 1.821506-.96366857 3.280207-.96366857 1.457767 0 2.560208.32122285 3.307325.96366857.747117.64244571 1.120208 1.55334857 1.120208 2.73270857v2.50868571h-1.867325v-2.50868571c0-1.40801143-.844363-2.11155429-2.534026-2.11155429-1.689662 0-2.533091.70354286-2.533091 2.11155429v10.5614743c0 1.4080114.843429 2.11248 2.533091 2.11248 1.689663 0 2.534026-.7044686 2.534026-2.11248" fill="#fff"/><path d="m169.66513 15.3035303c0 2.4651771-1.486697 3.6963771-4.461943 3.6963771-2.975245 0-4.462868-1.2312-4.462868-3.6963771v-2.2439314h1.848651v2.3494628c0 .6341143.22032 1.12752.660035 1.4783657.439714.3526972 1.091417.5285829 1.954182.5285829.86184 0 1.513543-.1758857 1.954183-.5285829.439715-.3508457.660035-.8312914.660035-1.43856 0-.6072685-.065726-1.0914171-.198103-1.4524457-.132377-.3601028-.400835-.7433486-.805372-1.1478857l-4.648011-4.54155429c-.54432-.54524571-.919234-1.07845714-1.121966-1.59778285-.201806-.51932572-.303634-1.17473143-.303634-1.96714286 0-1.17936.365657-2.09026286 1.096046-2.73270857.730388-.64244572 1.834765-.96366857 3.314057-.96366857 2.834537 0 4.25088 1.23212571 4.25088 3.69637714v2.24485714h-1.847726v-2.35038857c0-.63411428-.20736-1.12659428-.621154-1.47836571-.412869-.35177143-1.034023-.52765715-1.861612-.52765715-.826663 0-1.447817.17588572-1.861611.52765715s-.620229.83592-.620229 1.45244571c0 .6156.062023 1.09974857.185143 1.45152.122194.35269714.39528.72205714.818332 1.10900572l4.726697 4.54155431c.510068.56376.86184 1.1043771 1.05624 1.6237028.193474.5202515.289748 1.1756572.289748 1.9671429" fill="#e50e32"/><path d="m177.187 19h-1.816v-17.486h1.816v7.802h5.111v-7.802h1.816v17.486h-1.816v-8.07h-5.111z" fill="#fff"/><path d="m0 18h213.429v-18h-213.429z"/><g fill="#fff"><path d="m193.371 19h2.058v-17.486h-2.058z"/><path d="m212.353701 2.50934632c-.716579-.66305934-1.764461-.99506061-3.145506-.99506061h-4.008195v1.61379024h1.858455 2.14974c.760319 0 1.34475.18863708 1.752363.56496806.405752.37633098.610489.90545799.610489 1.58738104v4.57350605c0 1.434585-.787307 2.1514059-2.362852 2.1514059h-2.14974-1.858455v6.994663h1.858455v-5.3799296h2.14974c1.397796 0 2.451261-.3272853 3.159466-.981856.706343-.6545707 1.06091-1.5826651 1.06091-2.7842833v-4.57350605c0-1.18369769-.357359-2.1070762-1.07487-2.77107873m-191.9967672 10.03454958c1.5739024-.5017747 2.361324-1.668495 2.361324-3.49733151v-3.76613934c0-1.18369769-.3621951-2.1070762-1.0865853-2.77107873-.7243903-.66305934-1.7846342-.99506061-3.179791-.99506061h-4.0518815v1.60718794h2.0433449v.0066023h2.0085366c.7686063 0 1.3594077.18863708 1.7705227.56496806.4120557.37633098.6180836.90545799.6180836 1.58738104v3.76613934c0 1.43458501-.7968293 2.15234911-2.3886063 2.15234911h-2.0085366v1.6137902h2.0085366l3.139338 6.1872963h2.0659234z"/><path d="m148.466 3.057h.626 5.194v-1.543h-7.715v1.543z"/><path d="m151.292 16.943v.006h-4.721v1.537h7.715v-1.543z"/><path d="m153.257 10.771v-1.542h-4.144-.632-1.91v1.542h1.91 3.017z"/><path d="m51.3822729 2.50934632c-.7165799-.66305934-1.7653924-.99506061-3.1455068-.99506061h-4.0081947v1.61379024h1.8584548 2.1497399c.7603192 0 1.3447507.18863708 1.7514331.56496806s.6114195.90545799.6114195 1.58738104v4.57350605c0 1.434585-.788238 2.1514059-2.3628526 2.1514059h-2.1497399-1.8584548v6.994663h1.8584548v-5.3799296h2.1497399c1.3977962 0 2.4503312-.3272853 3.1585355-.981856.7072738-.6545707 1.0618413-1.5826651 1.0618413-2.7842833v-4.57350605c0-1.18369769-.35829-2.1070762-1.07487-2.77107873m58.6285711 0c-.71658-.66305934-1.764461-.99506061-3.145506-.99506061h-4.008195v1.61379024h1.858455 2.14974c.760319 0 1.34475.18863708 1.752363.56496806.405752.37633098.610489.90545799.610489 1.58738104v4.57350605c0 1.434585-.787307 2.1514059-2.362852 2.1514059h-2.14974-1.858455v6.994663h1.858455v-5.3799296h2.14974c1.397796 0 2.451261-.3272853 3.159466-.981856.706343-.6545707 1.06091-1.5826651 1.06091-2.7842833v-4.57350605c0-1.18369769-.357359-2.1070762-1.07487-2.77107873"/></g></g></svg>